<svg width="72" height="72" viewBox="0 0 72 72" fill="none" xmlns="http://www.w3.org/2000/svg">
<g opacity="0.2">
<path d="M65.5312 0H6.46875C5.30283 0 4.35938 0.943453 4.35938 2.10938V69.8906C4.35938 71.0565 5.30283 72 6.46875 72H65.5312C66.6972 72 67.6406 71.0565 67.6406 69.8906V2.10938C67.6406 0.943453 66.6972 0 65.5312 0Z" fill="url(#paint0_linear_832_653)"/>
</g>
<path d="M24.0887 7.21H26.2447V17.01H23.7387V9.842L22.0307 10.276L21.4287 8.162L24.0887 7.21Z" fill="url(#paint1_linear_832_653)"/>
<path d="M34.5476 15.834C33.8383 16.758 32.8443 17.22 31.5656 17.22C30.2869 17.22 29.2883 16.758 28.5696 15.834C27.8603 14.9007 27.5056 13.6593 27.5056 12.11C27.5056 10.5607 27.8603 9.324 28.5696 8.4C29.2883 7.46667 30.2869 7 31.5656 7C32.8443 7 33.8383 7.46667 34.5476 8.4C35.2663 9.324 35.6256 10.5607 35.6256 12.11C35.6256 13.6593 35.2663 14.9007 34.5476 15.834ZM30.0116 12.11C30.0116 13.8927 30.5296 14.784 31.5656 14.784C32.6016 14.784 33.1196 13.8927 33.1196 12.11C33.1196 10.3273 32.6016 9.436 31.5656 9.436C30.5296 9.436 30.0116 10.3273 30.0116 12.11Z" fill="url(#paint2_linear_832_653)"/>
<path d="M43.6039 10.458C43.6039 11.2233 43.3986 11.9 42.9879 12.488L40.0899 17.01H37.2479L39.3199 13.888C38.3679 13.7667 37.6073 13.398 37.0379 12.782C36.4686 12.1567 36.1839 11.382 36.1839 10.458C36.1839 9.44067 36.5246 8.61 37.2059 7.966C37.8873 7.322 38.7833 7 39.8939 7C41.0046 7 41.9006 7.322 42.5819 7.966C43.2633 8.61 43.6039 9.44067 43.6039 10.458ZM38.6899 10.458C38.6899 10.8313 38.8019 11.1207 39.0259 11.326C39.2499 11.5313 39.5393 11.634 39.8939 11.634C40.2486 11.634 40.5379 11.5313 40.7619 11.326C40.9859 11.1207 41.0979 10.8313 41.0979 10.458C41.0979 10.0847 40.9859 9.8 40.7619 9.604C40.5379 9.39867 40.2486 9.296 39.8939 9.296C39.5486 9.296 39.2593 9.39867 39.0259 9.604C38.8019 9.80933 38.6899 10.094 38.6899 10.458Z" fill="url(#paint3_linear_832_653)"/>
<path d="M51.4379 10.458C51.4379 11.2233 51.2326 11.9 50.8219 12.488L47.9239 17.01H45.0819L47.1539 13.888C46.2019 13.7667 45.4413 13.398 44.8719 12.782C44.3026 12.1567 44.0179 11.382 44.0179 10.458C44.0179 9.44067 44.3586 8.61 45.0399 7.966C45.7213 7.322 46.6173 7 47.7279 7C48.8386 7 49.7346 7.322 50.4159 7.966C51.0973 8.61 51.4379 9.44067 51.4379 10.458ZM46.5239 10.458C46.5239 10.8313 46.6359 11.1207 46.8599 11.326C47.0839 11.5313 47.3733 11.634 47.7279 11.634C48.0826 11.634 48.3719 11.5313 48.5959 11.326C48.8199 11.1207 48.9319 10.8313 48.9319 10.458C48.9319 10.0847 48.8199 9.8 48.5959 9.604C48.3719 9.39867 48.0826 9.296 47.7279 9.296C47.3826 9.296 47.0933 9.39867 46.8599 9.604C46.6359 9.80933 46.5239 10.094 46.5239 10.458Z" fill="url(#paint4_linear_832_653)"/>
<path d="M33.1605 29.75C32.1712 30.73 30.9579 31.22 29.5205 31.22C28.0832 31.22 26.8652 30.73 25.8665 29.75C24.8772 28.7607 24.3825 27.5473 24.3825 26.11C24.3825 24.6727 24.8772 23.464 25.8665 22.484C26.8652 21.4947 28.0832 21 29.5205 21C30.9579 21 32.1712 21.4947 33.1605 22.484C34.1592 23.464 34.6585 24.6727 34.6585 26.11C34.6585 27.5473 34.1592 28.7607 33.1605 29.75ZM27.6305 28.028C28.1345 28.5227 28.7645 28.77 29.5205 28.77C30.2765 28.77 30.9065 28.5227 31.4105 28.028C31.9145 27.524 32.1665 26.8847 32.1665 26.11C32.1665 25.3353 31.9145 24.7007 31.4105 24.206C30.9065 23.702 30.2765 23.45 29.5205 23.45C28.7645 23.45 28.1345 23.702 27.6305 24.206C27.1265 24.7007 26.8745 25.3353 26.8745 26.11C26.8745 26.8847 27.1265 27.524 27.6305 28.028Z" fill="url(#paint5_linear_832_653)"/>
<path d="M35.8211 21.21H38.3271V31.01H35.8211V21.21Z" fill="url(#paint6_linear_832_653)"/>
<path d="M43.858 21.21C45.2113 21.21 46.3406 21.6813 47.246 22.624C48.1606 23.5573 48.618 24.7193 48.618 26.11C48.618 27.5007 48.1606 28.6673 47.246 29.61C46.3406 30.5433 45.2113 31.01 43.858 31.01H39.868V21.21H43.858ZM43.858 28.588C44.5393 28.588 45.0946 28.364 45.524 27.916C45.9533 27.4587 46.168 26.8567 46.168 26.11C46.168 25.3633 45.9533 24.766 45.524 24.318C45.0946 23.8607 44.5393 23.632 43.858 23.632H42.444V28.588H43.858Z" fill="url(#paint7_linear_832_653)"/>
<path d="M12.7969 39.1094V43.3281H25.4531V37H14.9062C13.7403 37 12.7969 37.9435 12.7969 39.1094ZM57.0938 37H29.6719V43.3281H59.2031V39.1094C59.2031 37.9435 58.2597 37 57.0938 37ZM29.6719 53.875H59.2031V47.5469H29.6719V53.875ZM29.6719 64.4219H57.0938C58.2597 64.4219 59.2031 63.4784 59.2031 62.3125V58.0938H29.6719V64.4219ZM12.7969 62.3125C12.7969 63.4784 13.7403 64.4219 14.9062 64.4219H25.4531V47.5469H12.7969V62.3125Z" fill="url(#paint8_linear_832_653)"/>
<defs>
<linearGradient id="paint0_linear_832_653" x1="22.3945" y1="56.1" x2="62.9075" y2="1.20787" gradientUnits="userSpaceOnUse">
<stop stop-color="#526BF0"/>
<stop offset="1" stop-color="#8572FF"/>
</linearGradient>
<linearGradient id="paint1_linear_832_653" x1="29.9813" y1="25.8714" x2="41.7018" y2="3.48422" gradientUnits="userSpaceOnUse">
<stop stop-color="#526BF0"/>
<stop offset="1" stop-color="#8572FF"/>
</linearGradient>
<linearGradient id="paint2_linear_832_653" x1="29.9813" y1="25.8714" x2="41.7018" y2="3.48422" gradientUnits="userSpaceOnUse">
<stop stop-color="#526BF0"/>
<stop offset="1" stop-color="#8572FF"/>
</linearGradient>
<linearGradient id="paint3_linear_832_653" x1="29.9813" y1="25.8714" x2="41.7018" y2="3.48422" gradientUnits="userSpaceOnUse">
<stop stop-color="#526BF0"/>
<stop offset="1" stop-color="#8572FF"/>
</linearGradient>
<linearGradient id="paint4_linear_832_653" x1="29.9813" y1="25.8714" x2="41.7018" y2="3.48422" gradientUnits="userSpaceOnUse">
<stop stop-color="#526BF0"/>
<stop offset="1" stop-color="#8572FF"/>
</linearGradient>
<linearGradient id="paint5_linear_832_653" x1="29.9813" y1="25.8714" x2="41.7018" y2="3.48422" gradientUnits="userSpaceOnUse">
<stop stop-color="#526BF0"/>
<stop offset="1" stop-color="#8572FF"/>
</linearGradient>
<linearGradient id="paint6_linear_832_653" x1="29.9813" y1="25.8714" x2="41.7018" y2="3.48422" gradientUnits="userSpaceOnUse">
<stop stop-color="#526BF0"/>
<stop offset="1" stop-color="#8572FF"/>
</linearGradient>
<linearGradient id="paint7_linear_832_653" x1="29.9813" y1="25.8714" x2="41.7018" y2="3.48422" gradientUnits="userSpaceOnUse">
<stop stop-color="#526BF0"/>
<stop offset="1" stop-color="#8572FF"/>
</linearGradient>
<linearGradient id="paint8_linear_832_653" x1="26.0227" y1="58.3662" x2="36.8155" y2="30.2091" gradientUnits="userSpaceOnUse">
<stop stop-color="#526BF0"/>
<stop offset="1" stop-color="#8572FF"/>
</linearGradient>
</defs>
</svg>
