<svg width="72" height="72" viewBox="0 0 72 72" fill="none" xmlns="http://www.w3.org/2000/svg">
<g clip-path="url(#clip0_2234_1175)">
<path d="M66.6868 41.4869L47.9734 44.7093L66.3547 33.3422C69.0455 31.6782 69.9625 28.1988 68.4412 25.4247C67.6614 24.0029 65.8524 23.5198 64.4677 24.3637L43.1135 37.3771L59.6059 18.033C61.6181 15.6729 61.4786 12.1627 59.2855 9.96961L59.0203 9.70439C57.8977 8.58178 56.0734 8.5957 54.9681 9.73518L35.5037 29.8014L45.8671 8.20125C47.2411 5.33728 46.1219 1.899 43.325 0.392762L43.2283 0.34059C41.8972 -0.376176 40.2384 0.0728396 39.4518 1.36378C36.4411 6.3045 29.3147 17.9207 25.5082 23.4634C25.499 23.4769 25.4895 23.4906 25.4801 23.5042C23.4942 26.3676 19.1877 26.1523 17.4707 23.12L13.5623 16.2173C11.7062 12.9393 7.96653 11.2099 4.26683 11.9187C2.537 12.2501 1.54405 14.037 2.16786 15.6556C3.61771 19.4176 7.38055 27.7815 7.38055 27.7815C9.03486 33.2613 8.86794 39.168 6.70035 44.4659C3.74553 51.6876 5.19735 60.2881 11.0607 66.1513C18.8591 73.9496 31.5025 73.9496 39.3009 66.1513L48.7723 56.6799C49.3191 56.133 49.9826 55.7168 50.713 55.4622L66.0288 50.1258C68.4876 49.2691 70.1032 46.9124 70.0156 44.3101L70.0117 44.1941C69.9538 42.47 68.3868 41.1943 66.6868 41.4869Z" fill="url(#paint0_linear_2234_1175)"/>
<path d="M51.7546 37.8581L41.1047 34.0934L50.7438 42.6005C52.1548 43.8459 52.3438 45.9779 51.174 47.4521C50.5744 48.2076 49.4651 48.3096 48.7378 47.6761L37.5204 37.9057L45.2527 50.901C46.1961 52.4866 45.7626 54.5308 44.2569 55.5971L44.0748 55.726C43.3041 56.2718 42.2357 56.0808 41.7018 55.3019L32.2992 41.5855L36.2115 55.2894C36.7303 57.1064 35.7294 59.0103 33.9386 59.6132L33.8765 59.634C33.0244 59.9209 32.0967 59.4915 31.7648 58.6558C30.4945 55.4571 27.4798 47.9316 25.8031 44.3001C25.799 44.2912 25.795 44.2824 25.7907 44.2734C24.9131 42.3953 22.3633 42.094 21.0527 43.7001L18.0724 47.3521C16.6556 49.0882 14.2894 49.7275 12.1912 48.9411C11.21 48.5735 10.8069 47.4262 11.3349 46.5397C12.562 44.479 15.6065 39.9518 15.6065 39.9518C17.1257 36.9043 17.6197 33.4242 16.8795 30.1005C15.8705 25.5698 17.5836 20.6723 21.6091 17.8218C26.9631 14.0306 34.3769 15.2975 38.1681 20.6515L43.1768 27.7248L52.2347 32.7265C53.5906 33.4752 54.3018 35.019 53.9897 36.5362L53.9758 36.6038C53.7688 37.6089 52.7221 38.1999 51.7546 37.8581Z" fill="#E3E2FE"/>
<path d="M53.9895 36.5361L53.975 36.6041C53.7692 37.6096 52.7219 38.2006 51.7541 37.8588L50.3488 37.3618C50.301 36.1464 49.6259 35.0149 48.5249 34.4064L39.9779 29.688C39.6412 29.5021 39.3508 29.2425 39.1285 28.9287L34.458 22.3317C32.1431 19.062 28.4778 17.3163 24.7546 17.3163C23.7652 17.3163 22.7714 17.4395 21.7979 17.6915C23.8376 16.3036 26.1599 15.6372 28.4633 15.6372C32.1865 15.6372 35.8532 17.3814 38.1682 20.6512L43.1762 27.7252L52.2335 32.7261C53.5897 33.4749 54.3009 35.0193 53.9895 36.5361Z" fill="#E3E2FE"/>
</g>
<defs>
<linearGradient id="paint0_linear_2234_1175" x1="21.3715" y1="56.1" x2="60.9345" y2="-1.53486" gradientUnits="userSpaceOnUse">
<stop stop-color="#526BF0"/>
<stop offset="1" stop-color="#8572FF"/>
</linearGradient>
<clipPath id="clip0_2234_1175">
<rect width="72" height="72" fill="white"/>
</clipPath>
</defs>
</svg>
