<?xml version="1.0" encoding="UTF-8"?>
<svg width="72px" height="72px" viewBox="0 0 72 72" version="1.1" xmlns="http://www.w3.org/2000/svg" xmlns:xlink="http://www.w3.org/1999/xlink">
    <!-- Generator: Sketch 52.5 (67469) - http://www.bohemiancoding.com/sketch -->
    <title>Group 2</title>
    <desc>Created with Sketch.</desc>
    <defs>
        <linearGradient x1="28.4999562%" y1="77.9168395%" x2="67.018493%" y2="-14.8648494%" id="linearGradient-1">
            <stop stop-color="#526BF0" offset="0%"></stop>
            <stop stop-color="#8572FF" offset="100%"></stop>
        </linearGradient>
        <linearGradient x1="28.5%" y1="77.9166667%" x2="82.2683333%" y2="-4.97276389%" id="linearGradient-2">
            <stop stop-color="#526BF0" offset="0%"></stop>
            <stop stop-color="#8572FF" offset="100%"></stop>
        </linearGradient>
    </defs>
    <g id="Page-1" stroke="none" stroke-width="1" fill="none" fill-rule="evenodd">
        <g id="Group-2">
            <g id="bank-3-1" fill-rule="nonzero">
                <g id="Group" opacity="0.2" transform="translate(4.000000, 17.000000)" fill="url(#linearGradient-1)">
                    <path d="M15.125,38.125 L13.0156,38.125 L13.0156,2.2656 C13.0156,1.0997 12.0722,0.1562 10.9062,0.1562 L6.6875,0.1562 C5.52158,0.1562 4.57812,1.0997 4.57812,2.2656 L4.57812,38.125 L2.46875,38.125 C1.30283,38.125 0.35938,39.0685 0.35938,40.2344 L0.35938,48.6719 C0.35938,49.8378 1.30283,50.7812 2.46875,50.7812 L15.125,50.7812 C16.2909,50.7812 17.2344,49.8378 17.2344,48.6719 L17.2344,40.2344 C17.2344,39.0685 16.2909,38.125 15.125,38.125 Z M61.5312,38.125 L59.4219,38.125 L59.4219,2.2656 C59.4219,1.0997 58.4784,0.1562 57.3125,0.1562 L53.0938,0.1562 C51.9278,0.1562 50.9844,1.0997 50.9844,2.2656 L50.9844,38.125 L48.875,38.125 C47.7091,38.125 46.7656,39.0685 46.7656,40.2344 L46.7656,48.6719 C46.7656,49.8378 47.7091,50.7812 48.875,50.7812 L61.5312,50.7812 C62.6972,50.7812 63.6406,49.8378 63.6406,48.6719 L63.6406,40.2344 C63.6406,39.0685 62.6972,38.125 61.5312,38.125 Z" id="Shape"></path>
                </g>
                <path d="M70.4015,8.78263 L36.5109,0.0648633 C36.1731,-0.0216211 35.827,-0.0216211 35.4891,0.0648633 L1.59848,8.78263 C0.65925,9.01747 0,9.85996 0,10.8282 L0,19.2657 C0,20.4316 0.943453,21.375 2.10938,21.375 L69.8906,21.375 C71.0565,21.375 72,20.4316 72,19.2657 L72,10.8282 C72,9.85996 71.3408,9.01747 70.4015,8.78263 Z M69.8906,63.5625 L2.10938,63.5625 C0.943453,63.5625 0,64.506 0,65.6719 L0,69.8907 C0,71.0566 0.943453,72 2.10938,72 L69.8906,72 C71.0565,72 72,71.0566 72,69.8907 L72,65.6719 C72,64.506 71.0565,63.5625 69.8906,63.5625 Z" id="Shape" fill="url(#linearGradient-2)"></path>
            </g>
            <g id="Group" transform="translate(28.000000, 31.000000)" fill="#7870FB">
                <polygon id="Path" points="11.3333333 17 11.3333333 11.3333333 17 11.3333333 17 5.66666667 11.3333333 5.66666667 11.3333333 0 5.66666667 0 5.66666667 5.66666667 0 5.66666667 0 11.3333333 5.66666667 11.3333333 5.66666667 17"></polygon>
            </g>
        </g>
    </g>
</svg>