<svg width="72" height="72" viewBox="0 0 72 72" fill="none" xmlns="http://www.w3.org/2000/svg">
<path d="M60.4623 47.9188L65.7547 47.8872C66.7635 47.8813 67.5863 48.6941 67.5924 49.703L67.6551 60.2119C67.661 61.2206 66.8482 62.0434 65.8393 62.0495L60.5468 62.0811C59.5381 62.0871 58.7153 61.2743 58.7092 60.2653L58.6465 49.7565C58.6404 48.7476 59.4534 47.925 60.4623 47.9188Z" fill="#E3E2FE"/>
<path d="M6.60604 48.2394L11.8985 48.2078C12.9072 48.2018 13.73 49.0147 13.7361 50.0236L13.7986 60.5326C13.8046 61.5414 12.9917 62.3641 11.9828 62.3703L6.69038 62.4019C5.68162 62.4078 4.85887 61.595 4.85273 60.5861L4.79007 50.0772C4.78411 49.0683 5.59711 48.2455 6.60604 48.2394Z" fill="#E3E2FE"/>
<path d="M66.4784 22.3238C66.0363 22.3656 65.7 22.7392 65.7047 23.1831C65.8136 24.0495 65.2583 24.8609 64.4114 25.0733L63.0947 25.0814L63.7708 27.0547C63.7708 27.0547 72.2477 27.0037 71.9942 24.2195C71.7977 22.0586 68.1185 22.1666 66.4784 22.3238Z" fill="url(#paint0_linear_2234_891)"/>
<path d="M5.5214 22.3238C5.96347 22.3656 6.29972 22.7392 6.29503 23.1831C6.18613 24.0495 6.74144 24.8609 7.58838 25.0733L8.90504 25.0814L8.22892 27.0547C8.22892 27.0547 -0.247967 27.0037 0.00557625 24.2195C0.202054 22.0586 3.88131 22.1666 5.5214 22.3238Z" fill="url(#paint1_linear_2234_891)"/>
<path d="M70.105 38.8578C69.9466 36.7871 69.348 34.7741 68.3488 32.9534L64.7757 26.4005C64.7757 26.4005 58.431 12.0995 55.7878 10.9615C53.2321 9.86096 36.9196 9.61356 35.8388 9.59839H35.779C34.6982 9.62692 18.39 10.0692 15.8479 11.2C13.2182 12.3693 7.04128 26.7425 7.04128 26.7425L3.54965 33.3382C2.57286 35.1706 1.99823 37.1901 1.86406 39.2624C1.61846 43.8395 2.11164 48.4265 3.32446 52.8469C3.89583 54.9316 5.79975 56.3698 7.96136 56.3494L36.0568 56.1869H36.1165L64.2119 56.0198C66.3732 56.0139 68.2594 54.5531 68.8059 52.4619C69.9672 48.0266 70.4058 43.4328 70.105 38.8578Z" fill="url(#paint2_linear_2234_891)"/>
<path d="M22.3357 47.3561L49.7142 47.1926C50.2041 47.1898 50.6036 47.5845 50.6065 48.0743L50.6343 52.7361C50.6372 53.226 50.2424 53.6255 49.7527 53.6284L22.3742 53.7918C21.8843 53.7947 21.4848 53.3999 21.4819 52.9102L21.4541 48.2483C21.4512 47.7584 21.846 47.359 22.3357 47.3561Z" fill="#E3E2FE"/>
<path d="M56.3011 13.1187C56.0152 12.4962 55.3987 12.0919 54.7137 12.078L35.9929 11.6938H35.9341L17.2187 12.3013C16.5344 12.3237 15.923 12.7351 15.6447 13.3607L10.2744 25.4401L36.0133 25.2864H36.0722L61.8147 25.1327L56.3011 13.1187Z" fill="#E3E2FE"/>
<path d="M62.3941 46.4048C60.5895 46.4153 59.1351 47.8865 59.1456 49.6911C59.156 51.4957 60.6273 52.9502 62.4319 52.9397C64.2365 52.9292 65.6909 51.458 65.6804 49.6534C65.6804 49.6529 65.6804 49.6523 65.6804 49.6518C65.6691 47.8479 64.198 46.3944 62.3941 46.4048Z" fill="#E3E2FE"/>
<path d="M9.92741 46.7183C8.12281 46.7292 6.66873 48.2009 6.67975 50.0055C6.69058 51.8101 8.16236 53.2642 9.96695 53.2532C11.7715 53.2423 13.2254 51.7706 13.2146 49.9662C13.2036 48.1616 11.732 46.7075 9.92741 46.7183Z" fill="#E3E2FE"/>
<path d="M23.7666 39.0686H47.5967V42.0432H23.7666V39.0686Z" fill="#E3E2FE"/>
<path d="M66.9801 34.3917C66.9014 33.6955 66.2731 33.1951 65.5771 33.2741C65.5229 33.2802 65.4691 33.2898 65.416 33.3029L54.5184 35.9675C54.1912 36.0479 53.9093 36.2552 53.735 36.5436L51.5761 40.1166C51.2146 40.7155 51.4067 41.494 52.0055 41.8557C52.2031 41.9751 52.4295 42.0381 52.6603 42.0381H63.3079C63.5569 42.0399 63.8009 41.9687 64.01 41.8335C66.5218 40.1701 67.3078 37.5789 66.9801 34.3917Z" fill="#E3E2FE"/>
<path d="M5.0207 34.3917C5.09944 33.6955 5.7277 33.1951 6.42367 33.2741C6.47785 33.2802 6.53166 33.2898 6.58476 33.3029L17.4824 35.9675C17.8096 36.0479 18.0915 36.2552 18.2658 36.5436L20.4247 40.1166C20.7862 40.7155 20.5941 41.494 19.9953 41.8557C19.7977 41.9751 19.5712 42.0381 19.3404 42.0381H8.69292C8.44389 42.0399 8.19992 41.9687 7.9908 41.8335C5.47885 40.1701 4.69294 37.5789 5.0207 34.3917Z" fill="#E3E2FE"/>
<defs>
<linearGradient id="paint0_linear_2234_891" x1="65.6327" y1="25.9936" x2="67.3971" y2="20.9525" gradientUnits="userSpaceOnUse">
<stop stop-color="#526BF0"/>
<stop offset="1" stop-color="#8572FF"/>
</linearGradient>
<linearGradient id="paint1_linear_2234_891" x1="2.53794" y1="25.9936" x2="4.30234" y2="20.9525" gradientUnits="userSpaceOnUse">
<stop stop-color="#526BF0"/>
<stop offset="1" stop-color="#8572FF"/>
</linearGradient>
<linearGradient id="paint2_linear_2234_891" x1="21.2951" y1="46.0254" x2="41.6968" y2="0.0138544" gradientUnits="userSpaceOnUse">
<stop stop-color="#526BF0"/>
<stop offset="1" stop-color="#8572FF"/>
</linearGradient>
</defs>
</svg>
