<svg width="72" height="72" viewBox="0 0 72 72" fill="none" xmlns="http://www.w3.org/2000/svg">
<path d="M8.85439 33.4818C8.85439 33.4818 5.5189 17.3851 29.0264 14.8923C29.0264 14.8923 47.9676 12.8155 56.1745 24.3171C58.749 27.9237 59.7684 32.2485 59.0417 36.481C58.3063 40.7123 55.6774 45.6078 47.2921 44.7355L8.85439 33.4818Z" fill="url(#paint0_linear_2234_793)"/>
<path d="M6.6084 39.6782H15.4226V45.8391C15.4226 46.8873 14.9584 47.8926 14.1321 48.6339C13.3058 49.3753 12.1851 49.792 11.0164 49.7924C9.84729 49.7924 8.72611 49.3759 7.89946 48.6345C7.07281 47.8931 6.6084 46.8876 6.6084 45.8391V39.6782Z" fill="url(#paint1_linear_2234_793)"/>
<path d="M6.6084 39.6784H15.4226V36.0103C15.4226 34.9622 14.9584 33.9569 14.1321 33.2156C13.3058 32.4743 12.1851 32.0577 11.0164 32.0574C9.84735 32.0574 8.72622 32.4738 7.89958 33.2151C7.07294 33.9565 6.60849 34.9619 6.6084 36.0103V39.6784Z" fill="#E3E2FE"/>
<path d="M49.3396 46.3831L71.9364 71.7952H58.3949L41.6963 58.2298L49.3396 46.3831Z" fill="url(#paint2_linear_2234_793)"/>
<path d="M3.83924 2.32924C9.89295 -2.12762 19.0463 0.28908 21.6443 6.91596C22.2198 8.42071 22.5209 9.9989 22.5359 11.5897V18.1498C22.5358 18.9291 22.8615 19.6801 23.4487 20.2545C23.774 20.5729 24.1696 20.8271 24.6104 21.0011C25.0511 21.175 25.5274 21.2648 26.0089 21.2648C26.8 21.2648 27.5808 21.4263 28.2919 21.7371C29.0031 22.0479 29.626 22.4998 30.1134 23.0586L48.4342 44.0599C49.9319 45.7767 50.7533 47.8901 50.7702 50.0698C50.7871 52.2496 49.9984 54.373 48.5274 56.1083L40.4854 65.5955L44.4645 71.7952H32.2618L29.0811 68.1085C28.2368 67.1301 27.7669 65.9336 27.7415 64.6966C27.716 63.4596 28.1363 62.2483 28.9398 61.2427L35.0912 53.5406L19.111 36.7728C18.5735 36.2089 18.1719 35.5512 17.9316 34.8413C17.6912 34.1314 17.6172 33.3846 17.7143 32.6478L18.3725 27.6423C18.4899 26.7525 18.2381 25.8551 17.6651 25.1212L16.6977 23.8819L14.8399 26.115C14.5349 26.4822 14.1467 26.7875 13.7009 27.0107C13.255 27.234 12.7616 27.3701 12.253 27.4103C11.7443 27.4505 11.232 27.3938 10.7495 27.2439C10.267 27.094 9.82531 26.8544 9.45337 26.5406C6.3704 23.9372 1.88623 19.3371 0.427539 13.6516C0.427539 13.6516 -1.21094 8.21487 2.53019 3.56384C2.87789 3.13384 3.28361 2.74409 3.73809 2.40349C3.7717 2.37926 3.80495 2.35565 3.83924 2.32924Z" fill="#E3E2FE"/>
<path d="M22.0665 39.8249L19.9881 36.7915C19.6937 36.3619 19.3032 35.9917 18.8413 35.7042C18.3793 35.4168 17.856 35.2183 17.3042 35.1213C16.7525 35.0244 16.1843 35.031 15.6356 35.1408C15.0868 35.2507 14.5694 35.4613 14.116 35.7594C13.28 36.3092 12.7096 37.1243 12.521 38.0384C12.3325 38.9525 12.54 39.8967 13.1013 40.6783L16.2096 45.0065L22.0665 39.8249Z" fill="#E3E2FE"/>
<path d="M6.12305 16.4652L10.965 9.72363C11.939 10.7706 12.5927 12.0267 12.8619 13.3687C12.9444 13.907 12.8978 14.4549 12.7253 14.9758C12.5528 15.4967 12.2584 15.9785 11.8616 16.3892C11.4649 16.7999 10.975 17.1299 10.4247 17.3571C9.87439 17.5844 9.27633 17.7038 8.67048 17.7072C8.16211 17.7167 7.65976 17.6071 7.21303 17.3893C6.7663 17.1715 6.39061 16.8529 6.12305 16.4652Z" fill="url(#paint3_linear_2234_793)"/>
<path d="M18.3737 27.6423L19.9179 21.1437C19.9396 21.0503 19.9247 20.953 19.8758 20.8682C19.8269 20.7835 19.7469 20.7164 19.6494 20.6783C19.5518 20.6402 19.4426 20.6334 19.3401 20.6591C19.2376 20.6847 19.1481 20.7412 19.0866 20.8191L16.7002 23.8819L17.6677 25.1212C18.2402 25.8553 18.4915 26.7527 18.3737 27.6423Z" fill="url(#paint4_linear_2234_793)"/>
<path d="M23.4684 32.1318L22.5857 37.1115L21.3456 35.9282C18.3139 32.8634 18.0285 30.2622 18.0285 30.2622L17.7143 32.6478C17.6172 33.3846 17.6911 34.1315 17.9315 34.8414C18.1719 35.5513 18.5735 36.2089 19.111 36.7729L26.4654 44.4905L25.1037 32.175C25.084 31.996 24.9923 31.8297 24.8457 31.707C24.6991 31.5843 24.5076 31.5137 24.3072 31.5084C24.1068 31.5031 23.9111 31.5635 23.7567 31.6782C23.6023 31.793 23.4998 31.9542 23.4684 32.1318Z" fill="url(#paint5_linear_2234_793)"/>
<path d="M40.1431 47.0516L37.674 48.5708C37.3128 48.7929 36.8753 48.8923 36.4398 48.8512C36.0043 48.8101 35.5993 48.6312 35.2977 48.3465L34.7743 47.8522C34.4744 47.5692 34.2959 47.2 34.2706 46.8102L33.1756 29.8499C33.173 29.774 33.1395 29.7017 33.0815 29.6465C33.0235 29.5913 32.945 29.557 32.8608 29.5501C32.7766 29.5432 32.6924 29.5642 32.6243 29.6091C32.5561 29.6541 32.5086 29.7198 32.4908 29.7939L29.2436 41.7224C29.2436 41.7224 26.2469 41.7796 25.6719 43.6569L30.8468 49.0871L32.2552 50.565L35.0916 53.5412L40.6717 47.5732C40.734 47.5074 40.7674 47.4235 40.7658 47.3372C40.7642 47.2509 40.7276 47.1681 40.6628 47.1042C40.5981 47.0404 40.5097 46.9998 40.414 46.9901C40.3184 46.9804 40.2221 47.0023 40.1431 47.0516Z" fill="url(#paint6_linear_2234_793)"/>
<path d="M30.2857 21.3811C31.8414 22.1 33.0846 23.7664 33.0818 27.259L31.5795 46.6419C31.4761 47.9735 30.8686 49.2335 29.8576 50.2132C28.8466 51.1928 27.4928 51.8333 26.0204 52.0286C24.8108 52.1888 23.5752 52.0412 22.4545 51.6025C21.3337 51.1639 20.3729 50.4517 19.6813 49.5473L16.209 45.0066L22.067 39.8249L24.2115 42.0471L24.2337 31.764V24.8171C24.2337 22.027 27.5204 20.103 30.2857 21.3811Z" fill="#E3E2FE"/>
<path d="M21.2768 48.5596L17.782 43.615L16.209 45.0065L19.6806 49.5463C20.6002 50.7522 21.9901 51.6055 23.5764 51.938C25.1626 52.2706 26.8302 52.0582 28.2506 51.3429C23.4055 52.2699 21.2768 48.5596 21.2768 48.5596Z" fill="url(#paint7_linear_2234_793)"/>
<path d="M42.1879 68.2488L40.4853 65.5959L37.7321 68.423C37.6562 68.5011 37.6103 68.599 37.6013 68.7023C37.5922 68.8055 37.6204 68.9086 37.6818 68.9964C37.7431 69.0841 37.8343 69.1519 37.9419 69.1896C38.0494 69.2272 38.1677 69.2329 38.2791 69.2056L42.1879 68.2488Z" fill="url(#paint8_linear_2234_793)"/>
<defs>
<linearGradient id="paint0_linear_2234_793" x1="23.1064" y1="38.1922" x2="35.0098" y2="7.34821" gradientUnits="userSpaceOnUse">
<stop stop-color="#526BF0"/>
<stop offset="1" stop-color="#8572FF"/>
</linearGradient>
<linearGradient id="paint1_linear_2234_793" x1="9.12044" y1="47.5588" x2="14.8256" y2="39.8942" gradientUnits="userSpaceOnUse">
<stop stop-color="#526BF0"/>
<stop offset="1" stop-color="#8572FF"/>
</linearGradient>
<linearGradient id="paint2_linear_2234_793" x1="50.3147" y1="66.1833" x2="62.8913" y2="43.1117" gradientUnits="userSpaceOnUse">
<stop stop-color="#526BF0"/>
<stop offset="1" stop-color="#8572FF"/>
</linearGradient>
<linearGradient id="paint3_linear_2234_793" x1="8.05492" y1="15.9446" x2="12.591" y2="10.0077" gradientUnits="userSpaceOnUse">
<stop stop-color="#526BF0"/>
<stop offset="1" stop-color="#8572FF"/>
</linearGradient>
<linearGradient id="paint4_linear_2234_793" x1="17.62" y1="26.0968" x2="21.5122" y2="23.3297" gradientUnits="userSpaceOnUse">
<stop stop-color="#526BF0"/>
<stop offset="1" stop-color="#8572FF"/>
</linearGradient>
<linearGradient id="paint5_linear_2234_793" x1="20.1787" y1="41.3485" x2="28.5471" y2="33.3763" gradientUnits="userSpaceOnUse">
<stop stop-color="#526BF0"/>
<stop offset="1" stop-color="#8572FF"/>
</linearGradient>
<linearGradient id="paint6_linear_2234_793" x1="29.9737" y1="48.2429" x2="44.0946" y2="34.5476" gradientUnits="userSpaceOnUse">
<stop stop-color="#526BF0"/>
<stop offset="1" stop-color="#8572FF"/>
</linearGradient>
<linearGradient id="paint7_linear_2234_793" x1="19.6408" y1="50.2196" x2="23.4126" y2="41.9593" gradientUnits="userSpaceOnUse">
<stop stop-color="#526BF0"/>
<stop offset="1" stop-color="#8572FF"/>
</linearGradient>
<linearGradient id="paint8_linear_2234_793" x1="38.9073" y1="68.4217" x2="40.6413" y2="65.0398" gradientUnits="userSpaceOnUse">
<stop stop-color="#526BF0"/>
<stop offset="1" stop-color="#8572FF"/>
</linearGradient>
</defs>
</svg>
