<svg width="72" height="72" viewBox="0 0 72 72" fill="none" xmlns="http://www.w3.org/2000/svg">
<path d="M54.9844 19.125C54.9844 21.5606 54.5161 23.9105 53.5866 26.1562H18.4148C17.4839 23.9105 17.0156 21.5592 17.0156 19.125C17.0156 8.57953 25.5319 0 36 0C46.4681 0 54.9844 8.57953 54.9844 19.125Z" fill="#E3E2FE"/>
<path d="M50.7656 19.125C50.7656 21.6127 50.1567 23.933 48.9108 26.1562H23.0892C21.8433 23.9316 21.2344 21.6112 21.2344 19.125C21.2344 10.9055 27.8578 4.21875 36 4.21875C44.1422 4.21875 50.7656 10.9055 50.7656 19.125Z" fill="url(#paint0_linear_2230_508)"/>
<path d="M42.3281 24.3984C42.3281 25.0144 42.2227 25.6064 42.0272 26.1562H37.125L37.0547 25.4531C37.6369 25.4531 38.1094 24.9806 38.1094 24.3984C38.1094 23.8162 37.6369 23.3438 37.0547 23.3438H34.9453C32.0372 23.3438 29.6719 20.9784 29.6719 18.0703C29.6719 15.5236 31.4859 13.3931 33.8906 12.9023V10.6875C33.8906 9.52313 34.8356 8.57812 36 8.57812C37.1644 8.57812 38.1094 9.52313 38.1094 10.6875V12.7969H40.2188C41.3831 12.7969 42.3281 13.7419 42.3281 14.9062C42.3281 16.0706 41.3831 17.0156 40.2188 17.0156H34.9453C34.3631 17.0156 33.8906 17.4881 33.8906 18.0703C33.8906 18.6525 34.3631 19.125 34.9453 19.125H37.0547C39.9628 19.125 42.3281 21.4903 42.3281 24.3984Z" fill="#E3E2FE"/>
<path d="M67.6406 27.5625V69.8906C67.6406 71.055 66.6956 72 65.5312 72H6.46875C5.30438 72 4.35938 71.055 4.35938 69.8906V27.5625C4.35938 26.3981 5.30438 25.4531 6.46875 25.4531H65.5312C66.6956 25.4531 67.6406 26.3981 67.6406 27.5625Z" fill="#E3E2FE"/>
<path d="M36 39.5879C31.4066 35.8552 24.75 39.0281 24.75 45.715C24.75 48.6671 26.5157 51.7959 29.998 55.0142C32.4063 57.24 34.7939 58.7183 34.8943 58.7802C35.5725 59.1975 36.4276 59.1975 37.1059 58.7802C37.2063 58.7183 39.5937 57.24 42.0022 55.0142C45.4843 51.796 47.25 48.6672 47.25 45.7151C47.25 39.0109 40.5831 35.8636 36 39.5879Z" fill="url(#paint1_linear_2230_508)"/>
<defs>
<linearGradient id="paint0_linear_2230_508" x1="29.6508" y1="21.3117" x2="39.7541" y2="0.344968" gradientUnits="userSpaceOnUse">
<stop stop-color="#526BF0"/>
<stop offset="1" stop-color="#8572FF"/>
</linearGradient>
<linearGradient id="paint1_linear_2230_508" x1="31.1625" y1="54.4351" x2="42.1905" y2="36.3005" gradientUnits="userSpaceOnUse">
<stop stop-color="#526BF0"/>
<stop offset="1" stop-color="#8572FF"/>
</linearGradient>
</defs>
</svg>
