<svg width="72" height="72" viewBox="0 0 72 72" fill="none" xmlns="http://www.w3.org/2000/svg">
<path d="M12 30H6.00005V6.00005H0V0H9C10.6568 0 12 1.34311 12 2.99995V30Z" fill="#E3E2FE"/>
<path d="M65.2503 13.4701C63.7809 8.1036 60.2419 3.53947 55.4103 0.780131C53.9764 -0.0340881 52.1541 0.461756 51.3304 1.89008L33.4503 33.0001C32.6361 34.4341 33.1319 36.2563 34.5602 37.0801C44.6408 42.8155 57.4623 39.2931 63.1977 29.2125C65.9154 24.4358 66.6523 18.7839 65.2503 13.4701Z" fill="url(#paint0_linear_2234_1211)"/>
<path d="M69.0004 24H6.00042V29.04C5.79721 46.2903 18.6799 60.8968 35.8204 62.8501C53.961 64.6063 70.0905 51.3241 71.8468 33.1837C71.9492 32.1256 72.0005 31.0632 72.0004 30V27C72.0004 25.3431 70.6573 24 69.0004 24Z" fill="#E3E2FE"/>
<path d="M57.0001 69.0001C60.3138 69.0001 63.0001 66.3138 63.0001 63C63.0001 59.6863 60.3138 57 57.0001 57C53.6863 57 51 59.6863 51 63C51 66.3138 53.6863 69.0001 57.0001 69.0001Z" fill="#E3E2FE"/>
<path d="M57 72C52.0295 72 48 67.9705 48 63C48 58.0295 52.0295 54 57 54C61.9705 54 66 58.0295 66 63C66 67.9705 61.9707 72 57 72ZM57 60C55.3432 60 54 61.3432 54 63C54 64.6568 55.3432 66 57 66C58.6568 66 60 64.6568 60 63C60.0001 61.3432 58.6568 60 57 60Z" fill="url(#paint1_linear_2234_1211)"/>
<path d="M21 69.0001C24.3138 69.0001 27.0001 66.3138 27.0001 63C27.0001 59.6863 24.3138 57 21 57C17.6863 57 15 59.6863 15 63C15 66.3138 17.6863 69.0001 21 69.0001Z" fill="#E3E2FE"/>
<path d="M21 72C16.0295 72 12 67.9705 12 63C12 58.0295 16.0295 54 21 54C25.9705 54 30 58.0295 30 63C30 67.9705 25.9707 72 21 72ZM21 60C19.3432 60 18 61.3432 18 63C18 64.6568 19.3432 66 21 66C22.6568 66 24 64.6568 24 63C24.0001 61.3432 22.6568 60 21 60Z" fill="url(#paint2_linear_2234_1211)"/>
<path d="M39.0001 50.49C35.4284 48.122 32.3681 45.0617 30.0001 41.49C27.0001 35.4899 33.0001 29.49 39.0001 35.4899C45.0002 29.4899 51.0001 35.4899 48.0001 41.49C45.6323 45.0617 42.5718 48.122 39.0001 50.49Z" fill="url(#paint3_linear_2234_1211)"/>
<defs>
<linearGradient id="paint0_linear_2234_1211" x1="42.4313" y1="31.1209" x2="64.9436" y2="2.18453" gradientUnits="userSpaceOnUse">
<stop stop-color="#526BF0"/>
<stop offset="1" stop-color="#8572FF"/>
</linearGradient>
<linearGradient id="paint1_linear_2234_1211" x1="53.13" y1="68.025" x2="62.8083" y2="53.1049" gradientUnits="userSpaceOnUse">
<stop stop-color="#526BF0"/>
<stop offset="1" stop-color="#8572FF"/>
</linearGradient>
<linearGradient id="paint2_linear_2234_1211" x1="17.13" y1="68.025" x2="26.8083" y2="53.1049" gradientUnits="userSpaceOnUse">
<stop stop-color="#526BF0"/>
<stop offset="1" stop-color="#8572FF"/>
</linearGradient>
<linearGradient id="paint3_linear_2234_1211" x1="34.787" y1="46.6286" x2="43.7148" y2="31.2041" gradientUnits="userSpaceOnUse">
<stop stop-color="#526BF0"/>
<stop offset="1" stop-color="#8572FF"/>
</linearGradient>
</defs>
</svg>
