<svg width="72" height="72" viewBox="0 0 72 72" fill="none" xmlns="http://www.w3.org/2000/svg">
<g clip-path="url(#clip0_2234_544)">
<path d="M36 20.0345C34.8351 20.0345 33.8906 19.09 33.8906 17.9251V11.147C33.8906 9.98204 34.8351 9.0376 36 9.0376C37.1649 9.0376 38.1094 9.98204 38.1094 11.147V17.9251C38.1094 19.09 37.1649 20.0345 36 20.0345Z" fill="#E3E2FE"/>
<path d="M49.5562 11.1469H33.8906V2.10938C33.8906 0.944437 34.8351 0 36 0H49.5562C50.7212 0 51.6656 0.944437 51.6656 2.10938V9.03755C51.6656 10.2025 50.7213 11.1469 49.5562 11.1469Z" fill="url(#paint0_linear_2234_544)"/>
<path d="M69.8908 35.8502H51.8158C51.2563 35.8502 50.7198 35.628 50.3244 35.2323L41.2868 26.1947C40.6835 25.5915 40.5031 24.6843 40.8295 23.8959C41.156 23.1077 41.9251 22.5938 42.7783 22.5938H69.8908C71.0557 22.5938 72.0002 23.5382 72.0002 24.7031V33.7407C72.0002 34.9057 71.0557 35.8502 69.8908 35.8502Z" fill="url(#paint1_linear_2234_544)"/>
<path d="M20.1843 35.85H2.10938C0.944437 35.85 0 34.9056 0 33.7407V24.7031C0 23.5382 0.944437 22.5938 2.10938 22.5938H29.2219C30.075 22.5938 30.8443 23.1076 31.1707 23.8959C31.497 24.6841 31.3166 25.5915 30.7133 26.1947L21.6759 35.2321C21.2804 35.6279 20.7437 35.85 20.1843 35.85Z" fill="url(#paint2_linear_2234_544)"/>
<path d="M69.8906 72H2.10938C0.944437 72 0 71.0555 0 69.8906V33.7407H17.2013L34.5085 16.4334C35.3322 15.6098 36.6678 15.6098 37.4916 16.4334L54.7987 33.7407H72V69.8906C72 71.0555 71.0556 72 69.8906 72Z" fill="#E3E2FE"/>
<path d="M51.8154 49.4062C50.6505 49.4062 49.7061 48.4617 49.7061 47.2968V42.7781C49.7061 41.6131 50.6505 40.6687 51.8154 40.6687C52.9804 40.6687 53.9248 41.6131 53.9248 42.7781V47.2968C53.9248 48.4617 52.9804 49.4062 51.8154 49.4062Z" fill="url(#paint3_linear_2234_544)"/>
<path d="M11.1465 49.4062C9.98155 49.4062 9.03711 48.4617 9.03711 47.2968V42.7781C9.03711 41.6131 9.98155 40.6687 11.1465 40.6687C12.3114 40.6687 13.2559 41.6131 13.2559 42.7781V47.2968C13.2559 48.4617 12.3114 49.4062 11.1465 49.4062Z" fill="url(#paint4_linear_2234_544)"/>
<path d="M51.8154 62.9625C50.6505 62.9625 49.7061 62.0181 49.7061 60.8532V56.3345C49.7061 55.1695 50.6505 54.2251 51.8154 54.2251C52.9804 54.2251 53.9248 55.1695 53.9248 56.3345V60.8533C53.9248 62.0183 52.9804 62.9625 51.8154 62.9625Z" fill="url(#paint5_linear_2234_544)"/>
<path d="M11.1465 62.9625C9.98155 62.9625 9.03711 62.0181 9.03711 60.8532V56.3345C9.03711 55.1695 9.98155 54.2251 11.1465 54.2251C12.3114 54.2251 13.2559 55.1695 13.2559 56.3345V60.8533C13.2559 62.0183 12.3114 62.9625 11.1465 62.9625Z" fill="url(#paint6_linear_2234_544)"/>
<path d="M60.8535 49.4062C59.6886 49.4062 58.7441 48.4617 58.7441 47.2968V42.7781C58.7441 41.6131 59.6886 40.6687 60.8535 40.6687C62.0185 40.6687 62.9629 41.6131 62.9629 42.7781V47.2968C62.9629 48.4617 62.0186 49.4062 60.8535 49.4062Z" fill="url(#paint7_linear_2234_544)"/>
<path d="M20.1846 49.4062C19.0196 49.4062 18.0752 48.4617 18.0752 47.2968V42.7781C18.0752 41.6131 19.0196 40.6687 20.1846 40.6687C21.3495 40.6687 22.2939 41.6131 22.2939 42.7781V47.2968C22.2939 48.4617 21.3495 49.4062 20.1846 49.4062Z" fill="url(#paint8_linear_2234_544)"/>
<path d="M60.8535 62.9625C59.6886 62.9625 58.7441 62.0181 58.7441 60.8532V56.3345C58.7441 55.1695 59.6886 54.2251 60.8535 54.2251C62.0185 54.2251 62.9629 55.1695 62.9629 56.3345V60.8533C62.9629 62.0183 62.0186 62.9625 60.8535 62.9625Z" fill="url(#paint9_linear_2234_544)"/>
<path d="M20.1846 62.9625C19.0196 62.9625 18.0752 62.0181 18.0752 60.8532V56.3345C18.0752 55.1695 19.0196 54.2251 20.1846 54.2251C21.3495 54.2251 22.2939 55.1695 22.2939 56.3345V60.8533C22.2939 62.0183 21.3495 62.9625 20.1846 62.9625Z" fill="url(#paint10_linear_2234_544)"/>
<path d="M27 72V49C27 47.8351 27.9444 46.8906 29.1094 46.8906H42.8906C44.0556 46.8906 45 47.8351 45 49V72H27Z" fill="url(#paint11_linear_2234_544)"/>
<path d="M42.532 37.0572C43.1177 33.4441 40.6636 30.0404 37.0506 29.4547C33.4376 28.869 30.0339 31.3231 29.4482 34.9362C28.8625 38.5493 31.3166 41.9531 34.9296 42.5388C38.5426 43.1245 41.9463 40.6703 42.532 37.0572Z" fill="url(#paint12_linear_2234_544)"/>
</g>
<defs>
<linearGradient id="paint0_linear_2234_544" x1="38.9565" y1="8.68531" x2="43.5384" y2="-2.57825" gradientUnits="userSpaceOnUse">
<stop stop-color="#526BF0"/>
<stop offset="1" stop-color="#8572FF"/>
</linearGradient>
<linearGradient id="paint1_linear_2234_544" x1="49.5983" y1="32.9227" x2="53.583" y2="18.4046" gradientUnits="userSpaceOnUse">
<stop stop-color="#526BF0"/>
<stop offset="1" stop-color="#8572FF"/>
</linearGradient>
<linearGradient id="paint2_linear_2234_544" x1="8.9294" y1="32.9226" x2="12.9139" y2="18.4046" gradientUnits="userSpaceOnUse">
<stop stop-color="#526BF0"/>
<stop offset="1" stop-color="#8572FF"/>
</linearGradient>
<linearGradient id="paint3_linear_2234_544" x1="50.9084" y1="47.4766" x2="55.8369" y2="43.8081" gradientUnits="userSpaceOnUse">
<stop stop-color="#526BF0"/>
<stop offset="1" stop-color="#8572FF"/>
</linearGradient>
<linearGradient id="paint4_linear_2234_544" x1="10.2395" y1="47.4766" x2="15.168" y2="43.8081" gradientUnits="userSpaceOnUse">
<stop stop-color="#526BF0"/>
<stop offset="1" stop-color="#8572FF"/>
</linearGradient>
<linearGradient id="paint5_linear_2234_544" x1="50.9084" y1="61.033" x2="55.8369" y2="57.3645" gradientUnits="userSpaceOnUse">
<stop stop-color="#526BF0"/>
<stop offset="1" stop-color="#8572FF"/>
</linearGradient>
<linearGradient id="paint6_linear_2234_544" x1="10.2395" y1="61.033" x2="15.168" y2="57.3645" gradientUnits="userSpaceOnUse">
<stop stop-color="#526BF0"/>
<stop offset="1" stop-color="#8572FF"/>
</linearGradient>
<linearGradient id="paint7_linear_2234_544" x1="59.9465" y1="47.4766" x2="64.875" y2="43.8081" gradientUnits="userSpaceOnUse">
<stop stop-color="#526BF0"/>
<stop offset="1" stop-color="#8572FF"/>
</linearGradient>
<linearGradient id="paint8_linear_2234_544" x1="19.2775" y1="47.4766" x2="24.2061" y2="43.8081" gradientUnits="userSpaceOnUse">
<stop stop-color="#526BF0"/>
<stop offset="1" stop-color="#8572FF"/>
</linearGradient>
<linearGradient id="paint9_linear_2234_544" x1="59.9465" y1="61.033" x2="64.875" y2="57.3645" gradientUnits="userSpaceOnUse">
<stop stop-color="#526BF0"/>
<stop offset="1" stop-color="#8572FF"/>
</linearGradient>
<linearGradient id="paint10_linear_2234_544" x1="19.2775" y1="61.033" x2="24.2061" y2="57.3645" gradientUnits="userSpaceOnUse">
<stop stop-color="#526BF0"/>
<stop offset="1" stop-color="#8572FF"/>
</linearGradient>
<linearGradient id="paint11_linear_2234_544" x1="32.13" y1="66.455" x2="46.8418" y2="50.1967" gradientUnits="userSpaceOnUse">
<stop stop-color="#526BF0"/>
<stop offset="1" stop-color="#8572FF"/>
</linearGradient>
<linearGradient id="paint12_linear_2234_544" x1="39.1867" y1="39.4019" x2="29.4818" y2="30.6089" gradientUnits="userSpaceOnUse">
<stop stop-color="#526BF0"/>
<stop offset="1" stop-color="#8572FF"/>
</linearGradient>
<clipPath id="clip0_2234_544">
<rect width="72" height="72" fill="white"/>
</clipPath>
</defs>
</svg>
