<svg width="122" height="115" viewBox="0 0 122 115" fill="none" xmlns="http://www.w3.org/2000/svg">
	<mask id="mask0_6_96" style="mask-type:alpha" maskUnits="userSpaceOnUse" x="3" y="5" width="88" height="58">
		<path d="M9.5 50.5C11 57.5 16 62.5 16 62.5L60.4999 56.5C69.0806 50.9208 81 45 85 43.5C89 42 88.5 32.5 80 33.5L87 31.5C92.5 30 91 21 84 21C91 19 88.5 8.00003 80 10.5L76.5 11.5C78 8.0001 74 4.42007 70.5 5.50003C43.1444 13.9396 36.5582 20.175 26 31.5C21.6676 19.3656 18.8388 13.6124 12 8.00003C8.4373 5.07634 1.49963 8.00003 3.99966 13C3.99966 13 8.75691 21.238 9.99986 27.5C11.5627 35.3735 7.96238 43.3244 9.5 50.5Z" fill="#EBAE9D" />
	</mask>
	<g mask="url(#mask0_6_96)">
		<path d="M10.0317 50.1958C11.5317 57.1958 16.5317 62.1958 16.5317 62.1958L61.0317 56.1958C69.6123 50.6166 81.5317 44.6958 85.5317 43.1958C89.5317 41.6958 89.0317 32.1958 80.5317 33.1958L87.5317 31.1958C93.0317 29.6958 91.5317 20.6958 84.5317 20.6958C91.5317 18.6958 89.0317 7.69583 80.5317 10.1958L77.0317 11.1958C78.5317 7.6959 74.5317 4.11587 71.0317 5.19583C43.6761 13.6354 37.09 19.8708 26.5317 31.1958C22.1993 19.0614 19.3706 13.3082 12.5317 7.69583C8.96904 4.77214 2.03137 7.69583 4.53139 12.6958C4.53139 12.6958 9.28865 20.9338 10.5316 27.1958C12.0944 35.0693 8.49412 43.0202 10.0317 50.1958Z" fill="url(#paint0_linear_6_96)" />
		<path d="M14.5 27C12 20 6.5 7.5 6.5 7.5L2.5 5L-1 18.5L5.5 77L87.5 54.5L88.5 38.5C88.5 38.5 66 50.5 60.5 52.5C55 54.5 49.6343 52.9386 43.5 50.5L42 27C33.5115 27 32.4764 36.4651 28 43.5C24.5145 48.9138 21.842 49.728 16.5 52C13.5492 43.9229 17 34 14.5 27Z" fill="#475BCF" />
		<path d="M73.5 15.5C75.9984 14.5438 76.4869 12.5296 76.5001 11.4999C76.5133 10.4701 45.0228 21.7424 45.0001 24.4999C44.9774 27.2573 49.0001 26.4999 49.0001 26.4999C58.1017 21.0384 62.8738 18.5318 73.5 15.5Z" fill="#475BCF" />
		<path d="M55.5 32C66.5 22.5 87 18.5 87 18.5" stroke="#475BCF" stroke-width="3" stroke-linecap="round" />
		<path d="M57 43.5C68 34 89.5 29 89.5 29" stroke="#475BCF" stroke-width="3" stroke-linecap="round" />
	</g>
	<mask id="mask1_6_96" style="mask-type:alpha" maskUnits="userSpaceOnUse" x="0" y="24" width="104" height="90">
		<path d="M28 100.5L2.89443 113.053C1.56462 113.718 0 112.751 0 111.264V86.7142C0 85.9681 0.415323 85.284 1.0773 84.9398L12.5 79C13.9621 70.2469 14.7767 66.43 18 58C20.5 54 28.2975 48.4937 33.5 45C39 40 39.5 32.5 42.5 26C44.0673 22.6042 50.3178 22.6659 51 34C50.2756 42.1652 48.4198 46.5227 42.5 54C62.4123 59.3012 73.3078 57.4344 92.5 50C98 47.8695 103.5 54.9999 96.5 60C104.5 58.4999 106 68 100 71C102.5 72.5 103 77.4999 100 79L93 82.5C95.8339 85.0374 95 87.5 93 89C91 90.5 65 107 28 100.5Z" fill="#FFCDBE" />
	</mask>
	<g mask="url(#mask1_6_96)">
		<path d="M28 100.5L2.89443 113.053C1.56462 113.718 0 112.751 0 111.264V86.7142C0 85.9681 0.415323 85.284 1.0773 84.9398L12.5 79C13.9621 70.2469 14.7767 66.43 18 58C20.5 54 28.2975 48.4937 33.5 45C39 40 39.5 32.5 42.5 26C44.0673 22.6042 50.3178 22.6659 51 34C50.2756 42.1652 48.4198 46.5227 42.5 54C62.4123 59.3012 73.3078 57.4344 92.5 50C98 47.8695 103.5 54.9999 96.5 60C104.5 58.4999 106 68 100 71C102.5 72.5 103 77.4999 100 79L93 82.5C95.8339 85.0374 95 87.5 93 89C91 90.5 65 107 28 100.5Z" fill="#E0E0FC" />
		<path d="M67.1847 87.0335C66.3748 87.2076 65.8594 88.0053 66.0335 88.8153C66.2076 89.6252 67.0053 90.1406 67.8153 89.9665L67.1847 87.0335ZM67.8153 89.9665C82.2656 86.8601 90.1174 83.8944 103.653 77.3505L102.347 74.6495C88.9828 81.1107 81.3582 83.9866 67.1847 87.0335L67.8153 89.9665Z" fill="#7470FA" />
		<path d="M70.8483 76.0076C70.0242 76.0914 69.4239 76.8274 69.5077 77.6516C69.5914 78.4757 70.3275 79.076 71.1517 78.9922L70.8483 76.0076ZM71.1517 78.9922C80.6406 78.0279 90.1393 74.8012 97.0023 71.8597C100.44 70.3862 103.247 68.9712 105.093 67.9228C106.003 67.406 106.727 66.9514 107.181 66.6063C107.298 66.5177 107.417 66.4207 107.525 66.3191C107.609 66.2403 107.785 66.0686 107.921 65.8276C107.987 65.7101 108.118 65.4469 108.128 65.0881C108.14 64.6482 107.962 64.1869 107.578 63.8652C107.263 63.6024 106.933 63.536 106.781 63.5147C106.609 63.4905 106.462 63.4975 106.369 63.5057L106.631 66.4942C106.597 66.4972 106.498 66.5044 106.364 66.4855C106.251 66.4697 105.949 66.4139 105.653 66.1667C105.287 65.8607 105.118 65.42 105.129 65.0056C105.139 64.6725 105.26 64.4397 105.306 64.3574C105.402 64.1868 105.501 64.1044 105.471 64.1327C105.465 64.1381 105.434 64.1659 105.365 64.2186C105.075 64.4389 104.492 64.8141 103.611 65.3141C101.876 66.2994 99.1715 67.6659 95.8204 69.1023C89.1057 71.9803 79.9193 75.0858 70.8483 76.0076L71.1517 78.9922Z" fill="#7470FA" />
		<path d="M66.9633 65.0024C66.1351 65.0227 65.4802 65.7105 65.5004 66.5387C65.5207 67.3668 66.2085 68.0218 67.0367 68.0015L66.9633 65.0024ZM67.0367 68.0015C77.5715 67.7436 87.3977 64.3005 94.3206 60.9402C97.7867 59.2577 100.561 57.5783 102.368 56.2935C103.256 55.6622 103.97 55.0837 104.415 54.6177C104.53 54.4969 104.648 54.3626 104.752 54.2193C104.842 54.0939 104.986 53.8756 105.071 53.5927C105.154 53.3192 105.264 52.6643 104.772 52.0799C104.337 51.5625 103.756 51.5104 103.556 51.503L103.444 54.5009C103.365 54.498 102.867 54.4755 102.477 54.0113C102.03 53.48 102.146 52.9018 102.199 52.7271C102.23 52.6239 102.267 52.5526 102.285 52.5192C102.305 52.4832 102.319 52.4634 102.321 52.4613C102.322 52.4593 102.302 52.4867 102.245 52.5465C102 52.8031 101.471 53.2503 100.629 53.8487C98.9775 55.0235 96.3497 56.6205 93.0106 58.2413C86.3231 61.4874 76.9285 64.7584 66.9633 65.0024L67.0367 68.0015Z" fill="#7470FA" />
		<path d="M11.5314 78.105C11.3133 79.4684 12.2417 80.7505 13.605 80.9686C14.9684 81.1867 16.2505 80.2583 16.4686 78.895L11.5314 78.105ZM16.4686 78.895C17.4407 72.8196 19.147 66.5986 21.0995 61.2294C23.0672 55.8181 25.2224 51.4447 27.0218 48.9704L22.9782 46.0296C20.7776 49.0553 18.4328 53.9319 16.4005 59.5206C14.353 65.1514 12.5593 71.6804 11.5314 78.105L16.4686 78.895Z" fill="#7470FA" />
		<path d="M28.5 95.5L0 110.5L-2.5 119L29.5 118L96 90L94.5 84.5C73.8864 95.6123 60.19 99.0293 28.5 95.5Z" fill="#7470FA" />
	</g>
	<path d="M93 11L103 1.5M102 25.5L115 20.5M106 42.5L120 43" stroke="#7470FA" stroke-width="3" stroke-linecap="round" />
	<defs>
		<linearGradient id="paint0_linear_6_96" x1="28.7579" y1="49.5651" x2="53.0881" y2="-7.40184" gradientUnits="userSpaceOnUse">
			<stop stop-color="#526BF0" />
			<stop offset="1" stop-color="#8572FF" />
		</linearGradient>
	</defs>
</svg>
