<svg width="66" height="68" viewBox="0 0 66 68" fill="none" xmlns="http://www.w3.org/2000/svg">
<g opacity="0.2">
<path d="M42.6952 61.125L41.5702 58.875H39.1874L35.8124 54.375H34.1249V52.125V51V47.625H37.4999C44.3231 47.625 49.8749 42.0731 49.8749 35.25V34.125H44.2499C40.0649 34.125 36.3659 36.2186 34.1249 39.4069V29.625H35.5008L36.1736 26.9767L36.7676 26.7878C37.3964 26.5864 38.0332 26.3198 38.6632 25.9946L39.2178 25.7077L41.5747 27.1095L45.1106 23.5736L43.7088 21.2167L43.9957 20.6621C44.3208 20.0321 44.5874 19.3954 44.7888 18.7665L44.9778 18.1725L47.6249 17.5009V12.5002L44.9767 11.8275L44.7877 11.2335C44.5863 10.6046 44.3197 9.96788 43.9946 9.33788L43.7077 8.78325L45.1094 6.42637L41.5736 2.8905L39.2167 4.29225L38.6621 4.00538C38.0321 3.68025 37.3953 3.41362 36.7664 3.21225L36.1724 3.02325L35.5008 0.375H30.5002L29.8274 3.02325L29.2334 3.21225C28.6046 3.41362 27.9678 3.68025 27.3378 4.00538L26.7832 4.29225L24.4263 2.8905L20.8904 6.42637L22.2922 8.78325L22.0053 9.33788C21.6802 9.96788 21.4136 10.6046 21.2122 11.2335L21.0232 11.8275L18.3749 12.4991V17.4998L21.0232 18.1725L21.2122 18.7665C21.4136 19.3954 21.6802 20.0321 22.0053 20.6621L22.2922 21.2167L20.8904 23.5736L24.4263 27.1095L26.7832 25.7077L27.3378 25.9946C27.9678 26.3198 28.6046 26.5864 29.2334 26.7878L29.8274 26.9767L30.4991 29.625H31.8749V43.9069C29.6339 40.7186 25.9349 38.625 21.7499 38.625H16.1249V39.75C16.1249 46.5731 21.6768 52.125 28.4999 52.125H31.8749V54.375H29.0973L23.4723 61.125H16.5547L13.1797 67.875H50.1911L48.5036 61.125H42.6952ZM37.4999 21.75C36.2568 21.75 35.2499 20.7431 35.2499 19.5C35.2499 18.2569 36.2568 17.25 37.4999 17.25C38.7431 17.25 39.7499 18.2569 39.7499 19.5C39.7499 20.7431 38.7431 21.75 37.4999 21.75ZM28.4999 8.25C29.7431 8.25 30.7499 9.25687 30.7499 10.5C30.7499 11.7431 29.7431 12.75 28.4999 12.75C27.2568 12.75 26.2499 11.7431 26.2499 10.5C26.2499 9.25687 27.2568 8.25 28.4999 8.25ZM25.9203 23.6704L24.3296 22.0796L40.0796 6.32963L41.6703 7.92037L25.9203 23.6704Z" fill="url(#paint0_linear_832_633)"/>
<path d="M20.1176 25.9822L18.0634 23.928L19.7272 21.1279C19.5619 20.7713 19.4111 20.4101 19.2773 20.0524L16.125 19.2491V14.478C14.451 13.3508 12.5194 12.75 10.5 12.75C4.91663 12.75 0.375 17.2916 0.375 22.875C0.375 28.4584 4.91663 33 10.5 33C14.9145 33 18.7789 30.1425 20.1176 25.9822ZM10.5 21.75C12.3608 21.75 13.875 23.2642 13.875 25.125C13.875 26.5898 12.9311 27.8272 11.625 28.293V30.75H9.375V28.293C8.06887 27.8272 7.125 26.5898 7.125 25.125H9.375C9.375 25.746 9.879 26.25 10.5 26.25C11.121 26.25 11.625 25.746 11.625 25.125C11.625 24.504 11.121 24 10.5 24C8.63925 24 7.125 22.4858 7.125 20.625C7.125 19.1602 8.06887 17.9228 9.375 17.457V15H11.625V17.457C12.9311 17.9228 13.875 19.1602 13.875 20.625H11.625C11.625 20.004 11.121 19.5 10.5 19.5C9.879 19.5 9.375 20.004 9.375 20.625C9.375 21.246 9.879 21.75 10.5 21.75Z" fill="url(#paint1_linear_832_633)"/>
<path d="M55.5004 12.75C53.4811 12.75 51.5494 13.3507 49.8754 14.4791V19.2502L46.7232 20.0524C46.5893 20.4101 46.4386 20.7713 46.2732 21.1279L47.9371 23.928L45.8828 25.9822C47.2216 30.1425 51.0859 33 55.5004 33C61.0838 33 65.6254 28.4584 65.6254 22.875C65.6254 17.2916 61.0838 12.75 55.5004 12.75ZM55.5004 21.75C57.3612 21.75 58.8754 23.2642 58.8754 25.125C58.8754 26.5898 57.9316 27.8272 56.6254 28.293V30.75H54.3754V28.293C53.0693 27.8272 52.1254 26.5898 52.1254 25.125H54.3754C54.3754 25.746 54.8794 26.25 55.5004 26.25C56.1214 26.25 56.6254 25.746 56.6254 25.125C56.6254 24.504 56.1214 24 55.5004 24C53.6397 24 52.1254 22.4858 52.1254 20.625C52.1254 19.1602 53.0693 17.9228 54.3754 17.457V15H56.6254V17.457C57.9316 17.9228 58.8754 19.1602 58.8754 20.625H56.6254C56.6254 20.004 56.1214 19.5 55.5004 19.5C54.8794 19.5 54.3754 20.004 54.3754 20.625C54.3754 21.246 54.8794 21.75 55.5004 21.75Z" fill="url(#paint2_linear_832_633)"/>
</g>
<path d="M34.125 54.375V52.125V51V47.625H37.5C44.3231 47.625 49.875 42.0731 49.875 35.25V34.125H44.25C40.065 34.125 36.366 36.2186 34.125 39.4069V29.625H35.5009L36.1736 26.9767L36.7676 26.7878C37.3965 26.5864 38.0333 26.3198 38.6633 25.9946L39.2179 25.7078L41.5748 27.1095L45.1106 23.5736L43.7089 21.2167L43.9958 20.6621C44.3209 20.0321 44.5875 19.3954 44.7889 18.7665L44.9779 18.1725L47.625 17.5009V12.5002L44.9768 11.8275L44.7878 11.2335C44.5864 10.6046 44.3198 9.96788 43.9946 9.33788L43.7078 8.78325L45.1095 6.42637L41.5736 2.8905L39.2168 4.29225L38.6621 4.00538C38.0321 3.68025 37.3954 3.41362 36.7665 3.21225L36.1725 3.02325L35.5009 0.375H30.5003L29.8275 3.02325L29.2335 3.21225C28.6046 3.41362 27.9679 3.68025 27.3379 4.00538L26.7833 4.29225L24.4264 2.8905L20.8905 6.42637L22.2923 8.78325L22.0054 9.33788C21.6802 9.96788 21.4136 10.6046 21.2122 11.2335L21.0233 11.8275L18.375 12.4991V17.4998L21.0233 18.1725L21.2122 18.7665C21.4136 19.3954 21.6802 20.0321 22.0054 20.6621L22.2923 21.2167L20.8905 23.5736L24.4264 27.1095L26.7833 25.7078L27.3379 25.9946C27.9679 26.3198 28.6046 26.5864 29.2335 26.7878L29.8275 26.9767L30.4991 29.625H31.875V43.9069C29.634 40.7186 25.935 38.625 21.75 38.625H16.125V39.75C16.125 46.5731 21.6769 52.125 28.5 52.125H31.875V54.375H34.125ZM37.5 21.75C36.2569 21.75 35.25 20.7431 35.25 19.5C35.25 18.2569 36.2569 17.25 37.5 17.25C38.7431 17.25 39.75 18.2569 39.75 19.5C39.75 20.7431 38.7431 21.75 37.5 21.75ZM28.5 8.25C29.7431 8.25 30.75 9.25688 30.75 10.5C30.75 11.7431 29.7431 12.75 28.5 12.75C27.2569 12.75 26.25 11.7431 26.25 10.5C26.25 9.25688 27.2569 8.25 28.5 8.25ZM25.9204 23.6704L24.3296 22.0796L40.0796 6.32963L41.6704 7.92037L25.9204 23.6704Z" fill="url(#paint3_linear_832_633)"/>
<defs>
<linearGradient id="paint0_linear_832_633" x1="23.7279" y1="52.9687" x2="62.9196" y2="19.8405" gradientUnits="userSpaceOnUse">
<stop stop-color="#526BF0"/>
<stop offset="1" stop-color="#8572FF"/>
</linearGradient>
<linearGradient id="paint1_linear_832_633" x1="6.00165" y1="28.5281" x2="17" y2="11.9979" gradientUnits="userSpaceOnUse">
<stop stop-color="#526BF0"/>
<stop offset="1" stop-color="#8572FF"/>
</linearGradient>
<linearGradient id="paint2_linear_832_633" x1="51.5095" y1="28.5281" x2="62.5078" y2="11.9979" gradientUnits="userSpaceOnUse">
<stop stop-color="#526BF0"/>
<stop offset="1" stop-color="#8572FF"/>
</linearGradient>
<linearGradient id="paint3_linear_832_633" x1="25.7438" y1="42.45" x2="57.519" y2="11.8344" gradientUnits="userSpaceOnUse">
<stop stop-color="#526BF0"/>
<stop offset="1" stop-color="#8572FF"/>
</linearGradient>
</defs>
</svg>
