<svg width="72" height="72" viewBox="0 0 72 72" fill="none" xmlns="http://www.w3.org/2000/svg">
<path d="M62.0156 33.1875H12.0938C9.76373 33.1875 7.875 35.0762 7.875 37.4062V43.7344C7.875 46.0644 9.76373 47.9531 12.0938 47.9531H62.0156V33.1875Z" fill="#E3E2FE"/>
<path d="M64.125 45.8438H12.0938C10.9306 45.8438 9.98438 44.8975 9.98438 43.7344V37.4062C9.98438 36.2431 10.9306 35.2969 12.0938 35.2969H64.125C65.2899 35.2969 66.2344 34.3524 66.2344 33.1875C66.2344 32.0226 65.2899 31.0781 64.125 31.0781H12.0938C8.60442 31.0781 5.76562 33.9169 5.76562 37.4062V43.7344C5.76562 47.2237 8.60442 50.0625 12.0938 50.0625H64.125C65.2899 50.0625 66.2344 49.1181 66.2344 47.9531C66.2344 46.7882 65.2899 45.8438 64.125 45.8438Z" fill="url(#paint0_linear_2234_685)"/>
<path d="M67.7812 52.1719H6.32812C3.99811 52.1719 2.10938 54.0606 2.10938 56.3906V62.7188C2.10938 65.0488 3.99811 66.9375 6.32812 66.9375H67.7812V52.1719Z" fill="#E3E2FE"/>
<path d="M69.8906 69.0469H6.32812C2.8388 69.0469 0 66.2081 0 62.7188V56.3906C0 52.9013 2.8388 50.0625 6.32812 50.0625H69.8906C71.0556 50.0625 72 51.0069 72 52.1719C72 53.3368 71.0556 54.2812 69.8906 54.2812H6.32812C5.16502 54.2812 4.21875 55.2275 4.21875 56.3906V62.7188C4.21875 63.8819 5.16502 64.8281 6.32812 64.8281H69.8906C71.0556 64.8281 72 65.7726 72 66.9375C72 68.1024 71.0556 69.0469 69.8906 69.0469Z" fill="url(#paint1_linear_2234_685)"/>
<path fill-rule="evenodd" clip-rule="evenodd" d="M15.6094 16.6539L7.17188 14.7363V24.75C7.17188 25.9149 6.22744 26.8594 5.0625 26.8594C3.89756 26.8594 2.95313 25.9149 2.95313 24.75V12.0938C2.95311 11.1897 3.50042 10.2856 4.59506 10.0368L35.5326 3.00554C35.8402 2.93565 36.1598 2.93565 36.4676 3.00554L67.4049 10.0368C69.5942 10.5343 69.5942 13.6531 67.4049 14.1506L56.3906 16.6539V33.1876C56.3906 34.3526 55.4462 35.297 54.2812 35.297H17.7188C16.5538 35.297 15.6094 34.3526 15.6094 33.1876V16.6539Z" fill="url(#paint2_linear_2234_685)"/>
<defs>
<linearGradient id="paint0_linear_2234_685" x1="22.9992" y1="45.8701" x2="27.3711" y2="24.403" gradientUnits="userSpaceOnUse">
<stop stop-color="#526BF0"/>
<stop offset="1" stop-color="#8572FF"/>
</linearGradient>
<linearGradient id="paint1_linear_2234_685" x1="20.52" y1="64.8545" x2="24.2353" y2="43.1325" gradientUnits="userSpaceOnUse">
<stop stop-color="#526BF0"/>
<stop offset="1" stop-color="#8572FF"/>
</linearGradient>
<linearGradient id="paint2_linear_2234_685" x1="21.7898" y1="28.1544" x2="32.7743" y2="-6.44929" gradientUnits="userSpaceOnUse">
<stop stop-color="#526BF0"/>
<stop offset="1" stop-color="#8572FF"/>
</linearGradient>
</defs>
</svg>
