<?xml version="1.0" encoding="UTF-8"?>
<svg width="576px" height="512px" viewBox="0 0 576 512" version="1.1" xmlns="http://www.w3.org/2000/svg" xmlns:xlink="http://www.w3.org/1999/xlink">
    <!-- Generator: Sketch 52.5 (67469) - http://www.bohemiancoding.com/sketch -->
    <title>energy-efficient-charging-station</title>
    <desc>Created with Sketch.</desc>
    <g id="Page-1" stroke="none" stroke-width="1" fill="none" fill-rule="evenodd">
        <g id="energy-efficient-charging-station">
            <rect id="Rectangle" fill="#E3E2FE" x="32" y="81" width="288" height="382"></rect>
            <path d="M336,448 L16,448 C7.16,448 0,455.16 0,464 L0,496 C0,504.84 7.16,512 16,512 L336,512 C344.84,512 352,504.84 352,496 L352,464 C352,455.16 344.84,448 336,448 Z M544,128 L544,80 C544,71.16 536.84,64 528,64 C519.16,64 512,71.16 512,80 L512,128 L480,128 L480,80 C480,71.16 472.84,64 464,64 C455.16,64 448,71.16 448,80 L448,128 L432,128 C423.16,128 416,135.16 416,144 L416,176 C416,211.76 439.62,241.69 472,251.93 L472,370.42 C472,384.37 462.5,397.34 448.74,399.61 C431.22,402.5 416,388.99 416,372 L416,344 C416,295.4 376.6,256 328,256 L320,256 L320,64 C320,28.65 291.35,0 256,0 L96,0 C60.65,0 32,28.65 32,64 L32,416 L320,416 L320,304 L328,304 C350.09,304 368,321.91 368,344 L368,368.61 C368,408.28 396.92,443.77 436.41,447.62 C481.71,452.05 520,416.41 520,372 L520,251.93 C552.38,241.69 576,211.76 576,176 L576,144 C576,135.16 568.84,128 560,128 L544,128 Z M260.09,175.76 L166.39,314.76 C164.19,318.09 160.18,320 156,320 C148.33,320 142.53,313.72 144.33,307.08 L167.35,224 L108,224 C100.75,224 95.15,218.41 96.11,212.11 L112.11,105.11 C112.9,99.9 117.98,96 124,96 L192,96 C199.88,96 205.62,102.54 203.6,109.21 L192,160 L249.7,160 C258.94,160 264.71,168.78 260.09,175.76 Z" id="Shape" fill="#526CF0" fill-rule="nonzero"></path>
        </g>
    </g>
</svg>