<svg width="72" height="72" viewBox="0 0 72 72" fill="none" xmlns="http://www.w3.org/2000/svg">
<g clip-path="url(#clip0_2234_840)">
<path d="M64.7594 57.9642H62.0795C61.4872 57.9642 61.0069 57.4841 61.0069 56.8917C61.0069 56.2992 61.487 55.8191 62.0795 55.8191H64.7594C67.5692 55.8191 69.8552 53.5331 69.8552 50.7231V17.2814C69.8552 11.6103 65.2416 6.99666 59.5704 6.99666H24.9436C24.3513 6.99666 23.8711 6.51656 23.8711 5.92411C23.8711 5.33166 24.3512 4.85156 24.9436 4.85156H59.5704C66.4242 4.85156 72.0001 10.4275 72.0001 17.2813V50.723C72.0003 54.7158 68.7521 57.9642 64.7594 57.9642Z" fill="url(#paint0_linear_2234_840)"/>
<path d="M18.0092 9.92171H11.3782C10.7858 9.92171 10.3057 9.44161 10.3057 8.84916C10.3057 8.2567 10.7858 7.77661 11.3782 7.77661H18.0092C18.6016 7.77661 19.0818 8.2567 19.0818 8.84916C19.0818 9.44161 18.6016 9.92171 18.0092 9.92171Z" fill="url(#paint1_linear_2234_840)"/>
<path d="M18.0092 4.07161H11.3782C10.7858 4.07161 10.3057 3.59151 10.3057 2.99906C10.3057 2.40661 10.7858 1.92651 11.3782 1.92651H18.0092C18.6016 1.92651 19.0818 2.40661 19.0818 2.99906C19.0818 3.59151 18.6016 4.07161 18.0092 4.07161Z" fill="url(#paint2_linear_2234_840)"/>
<path d="M17.4131 10.0601H20.4157C21.0946 10.0601 21.739 9.76395 22.1827 9.25011C22.7193 8.62869 23.5064 7.8125 24.6432 7.41791C25.5152 7.11528 26.1309 6.332 26.2203 5.41344L26.2306 5.30755V3.96331C26.2306 3.65478 25.9961 3.4025 25.6899 3.36565C23.918 3.15261 22.6675 1.93423 22.0409 1.16305C21.7141 0.760858 21.2274 0.522217 20.7091 0.522217H16.8618C16.4672 0.522217 16.1475 0.841998 16.1475 1.23659V8.75159L17.4131 10.0601Z" fill="#E3E2FE"/>
<path d="M25.6899 5.90837C24.0429 6.10637 22.8464 7.17301 22.1827 7.9418C21.739 8.45565 21.0946 8.7518 20.4157 8.7518H16.1475V10.6109C16.1475 11.0057 16.4675 11.3258 16.8624 11.3258H20.4156C21.0945 11.3258 21.7389 11.0296 22.1825 10.5158C22.8466 9.74673 24.044 8.67938 25.6921 8.48209C25.9981 8.44552 26.2304 8.18987 26.2304 7.88162V5.30762C26.2306 5.61671 25.9967 5.87138 25.6899 5.90837Z" fill="#E3E2FE"/>
<path d="M56.877 25.1064L58.1714 23.5134C59.1791 22.2731 58.2965 20.4187 56.6983 20.4187H36.7602C10.978 20.4187 3.09909 46.6932 3.09895 46.6942L2.43281 49.5419L0.328781 52.1344C0.114609 53.0865 0 54.0271 0 54.8555V58.3773L0.072 59.4441C0.169734 60.8914 1.37489 62.014 2.82558 62.009L62.1648 61.799C63.4975 61.7942 64.5997 60.7597 64.6886 59.4299L64.7591 58.3772V50.3988L62.8857 46.9374L64.6034 42.5909C63.4977 30.5274 56.877 25.1064 56.877 25.1064Z" fill="#E3E2FE"/>
<path d="M62.3254 60.8112H2.43366C1.08956 60.8112 0 59.7215 0 58.3774V60.9514C0 62.2955 1.08956 63.3851 2.43366 63.3851H62.3253C63.6694 63.3851 64.7589 62.2955 64.7589 60.9514V58.3774C64.7591 59.7215 63.6695 60.8112 62.3254 60.8112Z" fill="#E3E2FE"/>
<path d="M12.5391 70.1689C20.5285 70.1689 20.5285 62.0979 20.5285 62.0979C19.9118 58.2404 16.5703 55.2925 12.5391 55.2925C8.50798 55.2925 5.16645 58.2404 4.5498 62.0979C4.5498 62.098 4.5498 70.1689 12.5391 70.1689Z" fill="url(#paint3_linear_2234_840)"/>
<path d="M12.5391 64.8874C15.036 64.8874 15.036 62.0981 15.0359 62.0981V62.0983C14.5687 61.1939 13.6271 60.5745 12.5389 60.5745C11.4508 60.5745 10.5091 61.1938 10.042 62.0981C10.0423 62.098 10.0423 64.8874 12.5391 64.8874Z" fill="#E3E2FE"/>
<path d="M12.5384 63.6218C11.4503 63.6218 10.5086 63.0025 10.0414 62.0981C9.84215 62.484 9.72754 62.9209 9.72754 63.3851C9.72754 64.9375 10.986 66.1958 12.5382 66.1958C14.0904 66.1958 15.3489 64.9374 15.3489 63.3851C15.3489 62.9209 15.2344 62.484 15.035 62.0981C14.5681 63.0024 13.6264 63.6218 12.5384 63.6218Z" fill="#E3E2FE"/>
<path fill-rule="evenodd" clip-rule="evenodd" d="M34.8846 26.0073H45.5857C48.2987 26.0073 50.8793 27.1932 52.6372 29.2596C54.9982 32.0345 56.0188 34.9816 56.4601 37.0143L56.4596 37.0146H56.4597C56.7968 38.5683 56.7961 39.5886 56.7961 39.5886H13.1113C13.2633 39.288 13.4248 38.9779 13.5959 38.66C13.8998 38.0953 14.2271 37.548 14.5715 37.0152L14.5693 37.0126C18.9928 30.169 26.648 26.0073 34.8846 26.0073Z" fill="url(#paint4_linear_2234_840)"/>
<path d="M1.59427 50.8688H5.1594C8.40123 50.8688 8.81453 47.0741 8.70906 46.9495C8.57785 46.7945 8.38449 46.6941 8.16554 46.6941H3.09854C2.32524 47.3526 1.66726 48.3855 1.15918 49.5599L1.59427 50.8688Z" fill="url(#paint5_linear_2234_840)"/>
<path d="M5.15985 49.5606H1.16104C0.80793 50.3766 0.525977 51.2599 0.329102 52.1345H5.15985C7.21495 52.1345 8.88093 50.4686 8.88093 48.4135V47.4093C8.88093 47.2333 8.81498 47.0743 8.70951 46.9497C8.23701 48.4618 6.82795 49.5606 5.15985 49.5606Z" fill="url(#paint6_linear_2234_840)"/>
<path d="M64.7592 46.0548C64.7592 44.844 64.7031 43.6906 64.6022 42.5911L58.0201 46.0054C57.9016 46.0669 57.8053 46.1589 57.7383 46.2688C57.7383 46.2688 57.6995 49.1332 59.8106 49.1332H63.4934L64.759 47.8248V46.0548H64.7592Z" fill="url(#paint7_linear_2234_840)"/>
<path d="M59.8111 47.825C58.8297 47.825 58.0038 47.1736 57.7326 46.2808C57.6702 46.3881 57.6348 46.5114 57.6348 46.6402V48.2227C57.6348 49.4246 58.6092 50.399 59.8111 50.399H64.7595V47.825H59.8111Z" fill="url(#paint8_linear_2234_840)"/>
<path d="M12.5386 68.9033C8.5074 68.9033 5.16587 65.9554 4.54923 62.0979C4.48229 62.5171 4.44629 62.9467 4.44629 63.3849C4.44629 67.8542 8.06935 71.4773 12.5387 71.4773C17.008 71.4773 20.631 67.8542 20.631 63.3849C20.631 62.9467 20.595 62.5171 20.528 62.0979C19.9112 65.9554 16.5697 68.9033 12.5386 68.9033Z" fill="url(#paint9_linear_2234_840)"/>
<path d="M51.4727 70.1689C59.4621 70.1689 59.4621 62.0979 59.4621 62.0979C58.8454 58.2404 55.5039 55.2925 51.4727 55.2925C47.4416 55.2925 44.1 58.2404 43.4834 62.0979C43.4834 62.098 43.4834 70.1689 51.4727 70.1689Z" fill="url(#paint10_linear_2234_840)"/>
<path d="M51.4727 64.8874C53.9696 64.8874 53.9696 62.0981 53.9695 62.0981V62.0983C53.5023 61.1939 52.5607 60.5745 51.4725 60.5745C50.3844 60.5745 49.4427 61.1938 48.9756 62.0981C48.9759 62.098 48.9759 64.8874 51.4727 64.8874Z" fill="#E3E2FE"/>
<path d="M51.4728 63.6218C50.3848 63.6218 49.443 63.0025 48.9758 62.0981C48.7766 62.484 48.6621 62.9209 48.6621 63.3851C48.6621 64.9375 49.9204 66.1958 51.4728 66.1958C53.025 66.1958 54.2835 64.9374 54.2835 63.3851C54.2835 62.9209 54.169 62.484 53.9696 62.0981C53.5026 63.0024 52.5608 63.6218 51.4728 63.6218Z" fill="#E3E2FE"/>
<path d="M51.4731 68.9033C47.442 68.9033 44.1004 65.9554 43.4838 62.0979C43.4167 62.5171 43.3809 62.9467 43.3809 63.3849C43.3809 67.8542 47.0039 71.4773 51.4733 71.4773C55.9426 71.4773 59.5655 67.8542 59.5655 63.3849C59.5655 62.9467 59.5295 62.5171 59.4626 62.0979C58.8458 65.9554 55.5043 68.9033 51.4731 68.9033Z" fill="url(#paint11_linear_2234_840)"/>
<path d="M34.2006 47.1365H29.1087C28.5164 47.1365 28.0361 46.6565 28.0361 46.064C28.0361 45.4716 28.5162 44.9915 29.1087 44.9915H34.2006C34.7929 44.9915 35.2731 45.4716 35.2731 46.064C35.273 46.6565 34.7929 47.1365 34.2006 47.1365Z" fill="url(#paint12_linear_2234_840)"/>
<path d="M37.3938 41.948C36.8015 41.948 36.3213 41.468 36.3213 40.8755V24.7205C36.3213 24.1282 36.8014 23.6479 37.3938 23.6479C37.9863 23.6479 38.4664 24.128 38.4664 24.7205V40.8755C38.4662 41.468 37.9861 41.948 37.3938 41.948Z" fill="#E3E2FE"/>
</g>
<defs>
<linearGradient id="paint0_linear_2234_840" x1="37.5879" y1="46.2352" x2="67.1929" y2="4.87824" gradientUnits="userSpaceOnUse">
<stop stop-color="#526BF0"/>
<stop offset="1" stop-color="#8572FF"/>
</linearGradient>
<linearGradient id="paint1_linear_2234_840" x1="12.8069" y1="9.448" x2="13.1976" y2="6.98372" gradientUnits="userSpaceOnUse">
<stop stop-color="#526BF0"/>
<stop offset="1" stop-color="#8572FF"/>
</linearGradient>
<linearGradient id="paint2_linear_2234_840" x1="12.8069" y1="3.5979" x2="13.1976" y2="1.13362" gradientUnits="userSpaceOnUse">
<stop stop-color="#526BF0"/>
<stop offset="1" stop-color="#8572FF"/>
</linearGradient>
<linearGradient id="paint3_linear_2234_840" x1="9.10372" y1="66.8837" x2="16.8566" y2="54.0463" gradientUnits="userSpaceOnUse">
<stop stop-color="#526BF0"/>
<stop offset="1" stop-color="#8572FF"/>
</linearGradient>
<linearGradient id="paint4_linear_2234_840" x1="25.5615" y1="36.5894" x2="28.661" y2="21.2201" gradientUnits="userSpaceOnUse">
<stop stop-color="#526BF0"/>
<stop offset="1" stop-color="#8572FF"/>
</linearGradient>
<linearGradient id="paint5_linear_2234_840" x1="3.31495" y1="49.9469" x2="4.87513" y2="45.589" gradientUnits="userSpaceOnUse">
<stop stop-color="#526BF0"/>
<stop offset="1" stop-color="#8572FF"/>
</linearGradient>
<linearGradient id="paint6_linear_2234_840" x1="2.76637" y1="50.9896" x2="4.8461" y2="45.7014" gradientUnits="userSpaceOnUse">
<stop stop-color="#526BF0"/>
<stop offset="1" stop-color="#8572FF"/>
</linearGradient>
<linearGradient id="paint7_linear_2234_840" x1="59.7392" y1="47.6885" x2="63.15" y2="42.0456" gradientUnits="userSpaceOnUse">
<stop stop-color="#526BF0"/>
<stop offset="1" stop-color="#8572FF"/>
</linearGradient>
<linearGradient id="paint8_linear_2234_840" x1="59.6653" y1="49.4895" x2="61.2596" y2="45.2374" gradientUnits="userSpaceOnUse">
<stop stop-color="#526BF0"/>
<stop offset="1" stop-color="#8572FF"/>
</linearGradient>
<linearGradient id="paint9_linear_2234_840" x1="9.05892" y1="69.406" x2="12.6972" y2="59.7278" gradientUnits="userSpaceOnUse">
<stop stop-color="#526BF0"/>
<stop offset="1" stop-color="#8572FF"/>
</linearGradient>
<linearGradient id="paint10_linear_2234_840" x1="48.0373" y1="66.8837" x2="55.7902" y2="54.0463" gradientUnits="userSpaceOnUse">
<stop stop-color="#526BF0"/>
<stop offset="1" stop-color="#8572FF"/>
</linearGradient>
<linearGradient id="paint11_linear_2234_840" x1="47.9935" y1="69.406" x2="51.6317" y2="59.7278" gradientUnits="userSpaceOnUse">
<stop stop-color="#526BF0"/>
<stop offset="1" stop-color="#8572FF"/>
</linearGradient>
<linearGradient id="paint12_linear_2234_840" x1="30.0987" y1="46.6628" x2="30.5671" y2="44.2267" gradientUnits="userSpaceOnUse">
<stop stop-color="#526BF0"/>
<stop offset="1" stop-color="#8572FF"/>
</linearGradient>
<clipPath id="clip0_2234_840">
<rect width="72" height="72" fill="white"/>
</clipPath>
</defs>
</svg>
