<svg width="72" height="72" viewBox="0 0 72 72" fill="none" xmlns="http://www.w3.org/2000/svg">
<path opacity="0.2" d="M16.875 32.7656C7.5553 32.7656 0 40.3209 0 49.6406C0 58.9603 7.5553 66.5156 16.875 66.5156C26.1947 66.5156 33.75 58.9603 33.75 49.6406C33.75 40.3209 26.1947 32.7656 16.875 32.7656ZM16.875 55.9688C13.3857 55.9688 10.5469 53.1299 10.5469 49.6406C10.5469 46.1514 13.3857 43.3125 16.875 43.3125C20.3643 43.3125 23.2031 46.1514 23.2031 49.6406C23.2031 53.1299 20.3643 55.9688 16.875 55.9688Z" fill="url(#paint0_linear_832_844)"/>
<path d="M55.125 18C55.125 16.8371 56.0715 15.8906 57.2344 15.8906V11.6719C53.7451 11.6719 50.9062 14.5107 50.9062 18V24.3281H55.125V18Z" fill="url(#paint1_linear_832_844)"/>
<path d="M44.7344 45.4219C47.6562 40.3819 53.111 36.9844 59.3441 36.9844C62.4158 36.9844 65.2981 37.8094 67.7816 39.2498V36.9844C67.7816 32.3317 63.9968 28.5469 59.3441 28.5469H30.851C26.8432 25.8827 22.0378 24.3281 16.8753 24.3281C11.0059 24.3281 5.28473 26.3831 0.766602 30.1146L3.45276 33.3677C7.21722 30.2591 11.9842 28.5469 16.8753 28.5469C27.0618 28.5469 35.585 35.8055 37.545 45.4219H44.7344Z" fill="url(#paint2_linear_832_844)"/>
<path d="M43.0027 49.6406H37.9688V55.9688H42.6006C42.5138 55.2777 42.4688 54.5735 42.4688 53.8594C42.4688 52.4031 42.6544 50.9897 43.0027 49.6406Z" fill="url(#paint3_linear_832_844)"/>
<path opacity="0.2" d="M59.3438 41.2031C52.3537 41.2031 46.6875 46.8693 46.6875 53.8594C46.6875 60.8494 52.3537 66.5156 59.3438 66.5156C66.3338 66.5156 72 60.8494 72 53.8594C72 46.8693 66.3338 41.2031 59.3438 41.2031ZM59.3438 55.9688C58.1786 55.9688 57.2344 55.0245 57.2344 53.8594C57.2344 52.6943 58.1786 51.75 59.3438 51.75C60.5089 51.75 61.4531 52.6943 61.4531 53.8594C61.4531 55.0245 60.5089 55.9688 59.3438 55.9688Z" fill="url(#paint4_linear_832_844)"/>
<path d="M10.5469 20.7977C12.6145 20.3434 14.736 20.1094 16.875 20.1094C22.2589 20.1094 27.4845 21.564 32.0718 24.3281H40.2891L36.4131 9.5625H40.0781V5.34375H6.32812V9.5625H10.5469V20.7977Z" fill="url(#paint5_linear_832_844)"/>
<defs>
<linearGradient id="paint0_linear_832_844" x1="9.61875" y1="59.0625" x2="27.7655" y2="31.0873" gradientUnits="userSpaceOnUse">
<stop stop-color="#526BF0"/>
<stop offset="1" stop-color="#8572FF"/>
</linearGradient>
<linearGradient id="paint1_linear_832_844" x1="52.7098" y1="21.5332" x2="59.9167" y2="15.9781" gradientUnits="userSpaceOnUse">
<stop stop-color="#526BF0"/>
<stop offset="1" stop-color="#8572FF"/>
</linearGradient>
<linearGradient id="paint2_linear_832_844" x1="19.8659" y1="40.7637" x2="24.735" y2="16.9163" gradientUnits="userSpaceOnUse">
<stop stop-color="#526BF0"/>
<stop offset="1" stop-color="#8572FF"/>
</linearGradient>
<linearGradient id="paint3_linear_832_844" x1="39.4034" y1="54.5713" x2="43.0534" y2="50.0952" gradientUnits="userSpaceOnUse">
<stop stop-color="#526BF0"/>
<stop offset="1" stop-color="#8572FF"/>
</linearGradient>
<linearGradient id="paint4_linear_832_844" x1="53.9016" y1="60.9258" x2="67.5117" y2="39.9444" gradientUnits="userSpaceOnUse">
<stop stop-color="#526BF0"/>
<stop offset="1" stop-color="#8572FF"/>
</linearGradient>
<linearGradient id="paint5_linear_832_844" x1="16.007" y1="20.1357" x2="23.172" y2="0.37643" gradientUnits="userSpaceOnUse">
<stop stop-color="#526BF0"/>
<stop offset="1" stop-color="#8572FF"/>
</linearGradient>
</defs>
</svg>
