<svg width="24" height="30" viewBox="0 0 24 30" fill="none" xmlns="http://www.w3.org/2000/svg"><path d="M15 2L15.6508 1.24074C15.4695 1.08539 15.2387 1 15 1V2ZM22 8H23C23 7.70808 22.8724 7.43073 22.6508 7.24074L22 8ZM21 8V26.9526H23V8H21ZM21 26.9526C21 27.5857 20.5289 28 20.0664 28V30C21.7397 30 23 28.581 23 26.9526H21ZM20.0664 28H4V30H20.0664V28ZM4 28C3.5375 28 3.06641 27.5857 3.06641 26.9526H1.06641C1.06641 28.581 2.32671 30 4 30V28ZM3.06641 26.9526V4.0474H1.06641V26.9526H3.06641ZM3.06641 4.0474C3.06641 3.41428 3.5375 3 4 3V1C2.32671 1 1.06641 2.41902 1.06641 4.0474H3.06641ZM4 3H15V1H4V3ZM14.3492 2.75926L21.3492 8.75926L22.6508 7.24074L15.6508 1.24074L14.3492 2.75926Z" fill="#C4C4C4"></path><path d="M22 9H17C15.8954 9 15 8.10457 15 7V2" stroke="#C4C4C4" stroke-width="2" stroke-linecap="round"></path><line x1="7" y1="15.1667" x2="17" y2="15.1667" stroke="#C4C4C4" stroke-linecap="round"></line><line x1="7" y1="19.1667" x2="17" y2="19.1667" stroke="#C4C4C4" stroke-linecap="round"></line><line x1="7" y1="23.1667" x2="17" y2="23.1667" stroke="#C4C4C4" stroke-linecap="round"></line></svg>