<svg width="72" height="72" viewBox="0 0 72 72" fill="none" xmlns="http://www.w3.org/2000/svg">
<g clip-path="url(#clip0_832_643)">
<path opacity="0.2" d="M72 36C72 55.8823 55.8823 72 36 72C29.8556 72 24.0707 70.4606 19.01 67.7467C14.8439 65.5124 12.6877 62.4821 9.70645 58.859C6.89266 55.4396 3.17831 51.492 1.77219 47.1877C0.622024 43.6662 0 39.9057 0 36C0 29.3536 1.80113 23.1278 4.94202 17.7841C11.1967 7.14282 22.7641 2.64282 36 2.64282C39.9601 2.64282 43.7709 0.639526 47.3348 1.82075C61.6635 6.57007 72 20.078 72 36Z" fill="url(#paint0_linear_832_643)"/>
<path d="M53.2488 6.9134C52.0852 4.55095 50.0374 2.73457 47.5429 1.89062C43.9194 0.664644 40.0374 -1.52588e-05 36 -1.52588e-05C22.8031 -1.52588e-05 11.265 7.10102 4.99763 17.6905C4.11867 19.1757 4.47274 21.0824 5.82718 22.152C6.73085 22.8655 7.93128 23.0805 9.02638 22.725L18.8202 19.5452C20.0062 19.16 21.3079 19.4727 22.1895 20.3545L24.5422 22.7072C25.4949 23.6599 25.7765 25.0941 25.255 26.3363C24.5036 28.1263 25.4432 30.176 27.2898 30.775L30.1204 31.6931C30.5472 31.8316 30.9209 32.0986 31.1901 32.4574C31.9012 33.4057 31.7229 34.7486 30.7889 35.4783L29.6445 36.3724C28.5769 37.2066 27.9529 38.486 27.9529 39.8408V40.8517C27.9529 42.5869 28.8072 44.211 30.2372 45.1941L32.2008 46.544C32.3791 46.6666 32.5789 46.7545 32.7898 46.8032L33.9483 47.0706C36.3919 47.6345 38.2639 49.6011 38.707 52.0694C38.8767 53.0146 38.8269 53.986 38.5614 54.9089L36.6332 61.6118C36.3162 62.7137 37.1432 63.812 38.2897 63.812C38.7238 63.812 39.1419 63.6483 39.4605 63.3535L46.8476 56.5177C47.8886 55.5543 48.7341 54.3995 49.3381 53.1161L50.9874 49.6112C51.5329 48.452 51.8725 47.2067 51.9909 45.931L52.6323 39.0179C52.9118 36.0051 51.5979 33.0649 49.1667 31.2634C47.6756 30.1585 45.8689 29.5621 44.0132 29.5621H42.6915C40.7243 29.5621 39.0658 28.0961 38.8241 26.1439C38.6496 24.7345 39.2557 23.3418 40.406 22.5089L41.8667 21.4512C42.3718 21.0854 42.9574 20.8462 43.5742 20.7536L47.1577 20.216C49.6464 19.8428 51.8191 18.3315 53.0348 16.128C54.6079 13.2759 54.6879 9.83519 53.2488 6.9134V6.9134Z" fill="url(#paint1_linear_832_643)"/>
<path d="M14.6012 53.5553C12.1531 52.3399 10.226 50.2814 9.17441 47.7586L8.03186 45.0177C7.56485 43.8973 6.52283 43.1217 5.31563 42.9957C2.91986 42.7458 1.06622 45.0532 1.82433 47.3396C4.74584 56.1491 10.9784 63.4482 19.0472 67.7639L19.5691 62.5368C19.9419 58.8013 17.9638 55.2247 14.6012 53.5553V53.5553Z" fill="url(#paint2_linear_832_643)"/>
<path d="M66.6341 17.0853L66.4086 17.508C64.5092 21.0694 65.031 25.4373 67.7159 28.451C69.2934 30.2216 70.165 32.5102 70.165 34.8816C70.165 37.657 68.9722 40.2984 66.8902 42.1335L64.0743 44.6157C62.2442 46.2288 61.1958 48.5506 61.1958 50.99V51.7266C61.1958 53.1713 60.8275 54.5921 60.1257 55.8548L58.8713 58.1113C58.5553 58.68 58.5169 59.362 58.7673 59.9626C59.3628 61.3911 61.232 61.7212 62.2897 60.5911C68.3121 54.156 72.0003 45.5092 72.0003 36C72.0003 29.061 70.0353 22.582 66.6341 17.0853V17.0853Z" fill="url(#paint3_linear_832_643)"/>
</g>
<defs>
<linearGradient id="paint0_linear_832_643" x1="20.52" y1="56.4198" x2="58.1353" y2="-2.75827" gradientUnits="userSpaceOnUse">
<stop stop-color="#526BF0"/>
<stop offset="1" stop-color="#8572FF"/>
</linearGradient>
<linearGradient id="paint1_linear_832_643" x1="18.6975" y1="49.7202" x2="55.6449" y2="5.3069" gradientUnits="userSpaceOnUse">
<stop stop-color="#526BF0"/>
<stop offset="1" stop-color="#8572FF"/>
</linearGradient>
<linearGradient id="paint2_linear_832_643" x1="6.7714" y1="62.2901" x2="21.2777" y2="46.0849" gradientUnits="userSpaceOnUse">
<stop stop-color="#526BF0"/>
<stop offset="1" stop-color="#8572FF"/>
</linearGradient>
<linearGradient id="paint3_linear_832_643" x1="62.4216" y1="51.5123" x2="82.3826" y2="42.1822" gradientUnits="userSpaceOnUse">
<stop stop-color="#526BF0"/>
<stop offset="1" stop-color="#8572FF"/>
</linearGradient>
<clipPath id="clip0_832_643">
<rect width="72" height="72" fill="white"/>
</clipPath>
</defs>
</svg>
