<svg width="72" height="72" viewBox="0 0 72 72" fill="none" xmlns="http://www.w3.org/2000/svg">
<g clip-path="url(#clip0_832_716)">
<path opacity="0.2" d="M36.5149 24.6656C38.0279 23.1457 39.9228 22.0619 42 21.5284V6C42 4.4087 41.3679 2.88258 40.2426 1.75736C39.1174 0.632141 37.5913 0 36 0L9 0C7.4087 0 5.88258 0.632141 4.75736 1.75736C3.63214 2.88258 3 4.4087 3 6V33C3 34.5913 3.63214 36.1174 4.75736 37.2426C5.88258 38.3679 7.4087 39 9 39H22.1805L36.5149 24.6656ZM30 9C30.5933 9 31.1734 9.17595 31.6667 9.50559C32.1601 9.83524 32.5446 10.3038 32.7716 10.8519C32.9987 11.4001 33.0581 12.0033 32.9424 12.5853C32.8266 13.1672 32.5409 13.7018 32.1213 14.1213C31.7018 14.5409 31.1672 14.8266 30.5853 14.9424C30.0033 15.0581 29.4001 14.9987 28.852 14.7716C28.3038 14.5446 27.8352 14.1601 27.5056 13.6667C27.1759 13.1734 27 12.5933 27 12C27 11.2044 27.3161 10.4413 27.8787 9.87868C28.4413 9.31607 29.2044 9 30 9ZM30 21C30.5933 21 31.1734 21.1759 31.6667 21.5056C32.1601 21.8352 32.5446 22.3038 32.7716 22.8519C32.9987 23.4001 33.0581 24.0033 32.9424 24.5853C32.8266 25.1672 32.5409 25.7018 32.1213 26.1213C31.7018 26.5409 31.1672 26.8266 30.5853 26.9424C30.0033 27.0581 29.4001 26.9987 28.852 26.7716C28.3038 26.5446 27.8352 26.1601 27.5056 25.6667C27.1759 25.1734 27 24.5933 27 24C27 23.2044 27.3161 22.4413 27.8787 21.8787C28.4413 21.3161 29.2044 21 30 21ZM15 9C15.5933 9 16.1734 9.17595 16.6667 9.50559C17.1601 9.83524 17.5446 10.3038 17.7716 10.8519C17.9987 11.4001 18.0581 12.0033 17.9424 12.5853C17.8266 13.1672 17.5409 13.7018 17.1213 14.1213C16.7018 14.5409 16.1672 14.8266 15.5853 14.9424C15.0033 15.0581 14.4001 14.9987 13.852 14.7716C13.3038 14.5446 12.8352 14.1601 12.5056 13.6667C12.1759 13.1734 12 12.5933 12 12C12 11.2044 12.3161 10.4413 12.8787 9.87868C13.4413 9.31607 14.2044 9 15 9ZM15 30C14.4067 30 13.8266 29.8241 13.3333 29.4944C12.8399 29.1648 12.4554 28.6962 12.2284 28.1481C12.0013 27.5999 11.9419 26.9967 12.0576 26.4147C12.1734 25.8328 12.4591 25.2982 12.8787 24.8787C13.2982 24.4591 13.8328 24.1734 14.4147 24.0576C14.9967 23.9419 15.5999 24.0013 16.1481 24.2284C16.6962 24.4554 17.1648 24.8399 17.4944 25.3333C17.8241 25.8266 18 26.4067 18 27C18 27.7956 17.6839 28.5587 17.1213 29.1213C16.5587 29.6839 15.7957 30 15 30Z" fill="url(#paint0_linear_832_716)"/>
<path d="M66.2127 41.6363L50.8617 26.2849C50.3541 25.7756 49.759 25.3619 49.1048 25.0635C45.3057 23.3411 41.2883 24.1339 38.6359 26.7885L23.2845 42.138C22.7753 42.6456 22.3615 43.2407 22.0632 43.8949C20.3408 47.694 21.1335 51.7114 23.7882 54.3638L39.1392 69.7152C39.6467 70.2244 40.2419 70.6381 40.896 70.9365C44.6952 72.6589 48.7125 71.8661 51.3649 69.2115L66.7163 53.8605C67.2255 53.353 67.6393 52.7578 67.9377 52.1036C69.6585 48.306 68.8658 44.2875 66.2127 41.6363ZM44.9997 51C44.4063 51 43.8263 50.8241 43.3329 50.4944C42.8396 50.1648 42.4551 49.6963 42.228 49.1481C42.001 48.5999 41.9415 47.9967 42.0573 47.4148C42.1731 46.8328 42.4588 46.2983 42.8783 45.8787C43.2979 45.4592 43.8324 45.1734 44.4144 45.0577C44.9963 44.9419 45.5995 45.0013 46.1477 45.2284C46.6959 45.4555 47.1644 45.84 47.4941 46.3333C47.8237 46.8267 47.9997 47.4067 47.9997 48C47.9997 48.7957 47.6836 49.5587 47.121 50.1213C46.5584 50.684 45.7953 51 44.9997 51Z" fill="url(#paint1_linear_832_716)"/>
</g>
<defs>
<linearGradient id="paint0_linear_832_716" x1="14.115" y1="30.3875" x2="35.0846" y2="-1.93938" gradientUnits="userSpaceOnUse">
<stop stop-color="#526BF0"/>
<stop offset="1" stop-color="#8572FF"/>
</linearGradient>
<linearGradient id="paint1_linear_832_716" x1="34.7446" y1="61.3159" x2="60.3912" y2="21.7786" gradientUnits="userSpaceOnUse">
<stop stop-color="#526BF0"/>
<stop offset="1" stop-color="#8572FF"/>
</linearGradient>
<clipPath id="clip0_832_716">
<rect width="72" height="72" fill="white"/>
</clipPath>
</defs>
</svg>
