<svg width="72" height="72" viewBox="0 0 72 72" fill="none" xmlns="http://www.w3.org/2000/svg">
<path d="M62.5382 27.8255L37.2257 9.77013C36.4923 9.24687 35.5077 9.24687 34.7743 9.77013L9.46181 27.8255C8.90775 28.2231 8.57812 28.8617 8.57812 29.5436V61.4531C8.57812 62.619 9.52158 63.5624 10.6875 63.5624H61.3125C62.4784 63.5624 63.4219 62.619 63.4219 61.4531V29.5436C63.4219 28.8617 63.0923 28.2231 62.5382 27.8255Z" fill="#E3E2FE"/>
<path d="M69.2041 22.2596L39.7119 1.19472C37.578 -0.407848 34.383 -0.379019 32.3272 1.16589L2.78761 22.2637C1.10461 23.477 0 25.486 0 27.5336C0 31.0231 2.83866 33.8618 6.32812 33.8618C7.6898 33.8618 9.11377 33.2988 10.1437 32.5264L36 14.0796L61.8193 32.4976C62.8864 33.2988 64.3103 33.8618 65.6719 33.8618C69.1613 33.8618 72 31.0231 72 27.5336C72 25.486 70.8954 23.477 69.2041 22.2596ZM27.5625 46.3774H32.2426L33.9545 53.2164C34.1686 54.0734 34.8917 54.7058 35.7692 54.8025C36.6719 54.8976 37.4999 54.4207 37.8869 53.649L46.3244 36.774C46.6519 36.1209 46.6169 35.3444 46.2317 34.7223C45.8466 34.1001 45.1688 33.7211 44.4375 33.7211H39.7574L38.0455 26.8821C37.8314 26.0252 37.1083 25.3928 36.2308 25.296C35.3306 25.2033 34.5087 25.6626 34.1131 26.4496L25.6756 43.3246C25.3481 43.9776 25.3831 44.7542 25.7683 45.3763C26.1534 45.9984 26.8312 46.3774 27.5625 46.3774ZM61.3125 59.3437H10.6875C7.19803 59.3437 4.35938 62.1824 4.35938 65.6718V69.8906C4.35938 71.0565 5.30283 72 6.46875 72H65.5312C66.6972 72 67.6406 71.0565 67.6406 69.8906V65.6718C67.6406 62.1824 64.802 59.3437 61.3125 59.3437Z" fill="url(#paint0_linear_2234_1230)"/>
<defs>
<linearGradient id="paint0_linear_2234_1230" x1="20.52" y1="56.1" x2="59.2331" y2="-3.58041" gradientUnits="userSpaceOnUse">
<stop stop-color="#526BF0"/>
<stop offset="1" stop-color="#8572FF"/>
</linearGradient>
</defs>
</svg>
