<svg width="72" height="72" viewBox="0 0 72 72" fill="none" xmlns="http://www.w3.org/2000/svg">
<g clip-path="url(#clip0_2234_1279)">
<path d="M54.3372 43.8565C52.7326 43.8565 50.9829 42.9636 49.2827 41.2493C47.2807 39.2307 45.5206 36.2541 44.3267 32.8674C43.1328 29.4807 42.6367 26.0585 42.93 23.2306C43.2522 20.1249 44.5001 18.0371 46.4438 17.3518C48.3874 16.6665 50.669 17.5099 52.8677 19.727C54.8698 21.7455 56.6298 24.7222 57.8237 28.1088C59.0177 31.4953 59.5138 34.9177 59.2204 37.7455C58.8984 40.8512 57.6505 42.9389 55.7066 43.6244C55.2659 43.7797 54.8079 43.8565 54.3372 43.8565ZM47.8083 19.246C47.5758 19.246 47.3556 19.2817 47.1497 19.3543C44.9049 20.1457 44.0158 25.6 46.329 32.1614C47.4206 35.2576 49.005 37.9541 50.7902 39.7541C52.3557 41.3324 53.8898 42.0135 55.0006 41.6218C57.2454 40.8304 58.1344 35.3761 55.8211 28.8147C54.7296 25.7186 53.1451 23.0221 51.3599 21.2221C50.0849 19.9362 48.8299 19.246 47.8083 19.246Z" fill="#E3E2FE"/>
<path d="M7.10836 60.1879L8.11565 59.1806C8.2484 59.0479 8.33685 58.8772 8.36864 58.6922L9.03689 54.8124C9.10214 54.4333 9.39914 54.1363 9.7784 54.0709L13.3102 53.4625C13.6893 53.3973 13.9863 53.1003 14.0517 52.721L14.6601 49.1892C14.7253 48.8101 15.0223 48.5131 15.4016 48.4477L19.2816 47.7795C19.4666 47.7475 19.6372 47.6592 19.7699 47.5265L35.6111 31.6854C35.966 31.3304 35.966 30.7548 35.6111 30.3999L30.1644 24.9532C29.8094 24.5983 29.2339 24.5983 28.8789 24.9532L0.376215 53.4558C0.210137 53.6219 0.114793 53.8457 0.110153 54.0806L0.000183826 59.6374C-0.0100818 60.1533 0.410949 60.5744 0.926902 60.5641L6.4837 60.4541C6.7184 60.4493 6.94228 60.354 7.10836 60.1879Z" fill="#E3E2FE"/>
<path d="M51.1703 8.66172C44.9547 2.44609 34.8772 2.44609 28.6617 8.66172C22.4461 14.8773 22.4461 24.9548 28.6617 31.1703C34.8773 37.3858 44.9548 37.3859 51.1703 31.1703C57.3859 24.9547 57.3859 14.8772 51.1703 8.66172ZM41.524 18.308C39.5859 16.3699 39.5859 13.2278 41.524 11.2897C43.4621 9.35163 46.6042 9.35163 48.5423 11.2897C50.4804 13.2278 50.4804 16.3699 48.5423 18.308C46.6042 20.2461 43.4621 20.2461 41.524 18.308Z" fill="url(#paint0_linear_2234_1279)"/>
<path d="M71.7829 51.9432C72.1513 51.3308 72.0423 50.5443 71.5213 50.0552L57.1205 36.5372C56.5225 35.9758 55.5912 35.9763 54.9937 36.5381L49.0763 42.101L49.0755 39.9595C49.0752 39.2391 48.491 38.6553 47.7705 38.6555L46.0541 38.6562C45.3337 38.6564 44.75 39.2406 44.7503 39.961L44.7527 46.1658L40.603 50.067C40.0824 50.5565 39.9738 51.3429 40.3427 51.9551L40.8687 52.8282C41.3675 53.6561 42.5029 53.8126 43.2072 53.1507L44.7535 51.6969L44.7596 66.4375C44.7597 66.8641 45.1058 67.2099 45.5324 67.2098L66.6051 67.2019C67.0317 67.2018 67.3775 66.8557 67.3774 66.429L67.3713 51.6884L68.9191 53.1412C69.6236 53.8026 70.7589 53.6454 71.2571 52.8174L71.7829 51.9432ZM56.0628 45.0552C54.7909 45.0552 53.7598 44.0241 53.7598 42.7521C53.7598 41.4802 54.7909 40.4491 56.0628 40.4491C57.3348 40.4491 58.3659 41.4802 58.3659 42.7521C58.3659 44.0241 57.3348 45.0552 56.0628 45.0552Z" fill="url(#paint1_linear_2234_1279)"/>
<path d="M58.8909 54.5132H54.0212C53.3305 54.5132 52.7705 55.0732 52.7705 55.7639V67.2068H60.1418V55.7639C60.1416 55.0732 59.5817 54.5132 58.8909 54.5132Z" fill="#E3E2FE"/>
<path d="M56.2656 40.459C55.9226 41.047 55.4944 41.4476 55.0004 41.6217C53.8896 42.0132 52.3555 41.3323 50.7901 39.7539C49.0049 37.9539 47.4204 35.2574 46.3289 32.1613C44.0156 25.6 44.9048 20.1457 47.1496 19.3542C47.3555 19.2816 47.5757 19.2459 47.8081 19.2459C47.9588 19.2459 48.1151 19.2628 48.2753 19.2924C48.346 19.2294 48.4163 19.1659 48.4841 19.0981C48.9687 18.6135 49.3308 18.0534 49.5728 17.4559C48.4802 17.0492 47.4193 17.0077 46.4438 17.3517C44.4999 18.0369 43.252 20.1248 42.93 23.2305C42.6367 26.0583 43.1328 29.4807 44.3267 32.8672C45.5206 36.2538 47.2808 39.2305 49.2827 41.2492C50.9829 42.9634 52.7326 43.8564 54.3372 43.8564C54.8078 43.8564 55.2659 43.7796 55.7066 43.6242C56.6722 43.2838 57.4657 42.5971 58.0597 41.6117C57.6951 40.9736 57.0358 40.5265 56.2656 40.459Z" fill="#E3E2FE"/>
</g>
<defs>
<linearGradient id="paint0_linear_2234_1279" x1="33.0721" y1="28.8024" x2="50.1876" y2="2.41704" gradientUnits="userSpaceOnUse">
<stop stop-color="#526BF0"/>
<stop offset="1" stop-color="#8572FF"/>
</linearGradient>
<linearGradient id="paint1_linear_2234_1279" x1="49.2094" y1="60.3433" x2="65.7551" y2="34.1951" gradientUnits="userSpaceOnUse">
<stop stop-color="#526BF0"/>
<stop offset="1" stop-color="#8572FF"/>
</linearGradient>
<clipPath id="clip0_2234_1279">
<rect width="72" height="72" fill="white"/>
</clipPath>
</defs>
</svg>
