<svg width="61" height="71" viewBox="0 0 61 71" fill="none" xmlns="http://www.w3.org/2000/svg">
<path opacity="0.2" fill-rule="evenodd" clip-rule="evenodd" d="M2.00369 30C0.34147 30 -0.595321 28.0901 0.422248 26.7757L20.3445 1.04275C21.1452 0.0085392 22.7067 0.0085392 23.5074 1.04274L43.4297 26.7757C44.4473 28.0901 43.5105 30 41.8483 30H31.926V69C31.926 70.1046 31.0305 71 29.926 71H13.926C12.8214 71 11.926 70.1046 11.926 69V30H2.00369Z" fill="url(#paint0_linear_832_616)"/>
<path fill-rule="evenodd" clip-rule="evenodd" d="M42.9258 71C52.8669 71 60.9258 62.9411 60.9258 53C60.9258 43.0589 52.8669 35 42.9258 35C32.9847 35 24.9258 43.0589 24.9258 53C24.9258 62.9411 32.9847 71 42.9258 71ZM35.9258 49C37.5826 49 38.9258 47.6569 38.9258 46C38.9258 44.3431 37.5826 43 35.9258 43C34.2689 43 32.9258 44.3431 32.9258 46C32.9258 47.6569 34.2689 49 35.9258 49ZM48.9258 57C47.2689 57 45.9258 58.3431 45.9258 60C45.9258 61.6569 47.2689 63 48.9258 63C50.5826 63 51.9258 61.6569 51.9258 60C51.9258 58.3431 50.5826 57 48.9258 57ZM46.8045 44.1213C47.976 42.9497 49.8755 42.9497 51.0471 44.1213C52.2187 45.2929 52.2187 47.1924 51.0471 48.364L38.1335 61.2776C36.9619 62.4491 35.0624 62.4491 33.8909 61.2776C32.7193 60.106 32.7193 58.2065 33.8909 57.0349L46.8045 44.1213Z" fill="#536CF1"/>
<path opacity="0.2" fill-rule="evenodd" clip-rule="evenodd" d="M38.9258 46C38.9258 47.6569 37.5826 49 35.9258 49C34.2689 49 32.9258 47.6569 32.9258 46C32.9258 44.3431 34.2689 43 35.9258 43C37.5826 43 38.9258 44.3431 38.9258 46ZM45.9258 60C45.9258 58.3431 47.2689 57 48.9258 57C50.5826 57 51.9258 58.3431 51.9258 60C51.9258 61.6569 50.5826 63 48.9258 63C47.2689 63 45.9258 61.6569 45.9258 60ZM51.0471 44.1213C49.8755 42.9497 47.976 42.9497 46.8045 44.1213L33.8909 57.0349C32.7193 58.2065 32.7193 60.106 33.8909 61.2776C35.0624 62.4491 36.9619 62.4491 38.1335 61.2776L51.0471 48.364C52.2187 47.1924 52.2187 45.2929 51.0471 44.1213Z" fill="url(#paint1_linear_832_616)"/>
<defs>
<linearGradient id="paint0_linear_832_616" x1="12.4978" y1="55.3798" x2="54.1054" y2="15.6137" gradientUnits="userSpaceOnUse">
<stop stop-color="#526BF0"/>
<stop offset="1" stop-color="#8572FF"/>
</linearGradient>
<linearGradient id="paint1_linear_832_616" x1="38.3408" y1="58.5833" x2="49.3095" y2="42.5194" gradientUnits="userSpaceOnUse">
<stop stop-color="#526BF0"/>
<stop offset="1" stop-color="#8572FF"/>
</linearGradient>
</defs>
</svg>
