<svg width="72" height="72" viewBox="0 0 72 72" fill="none" xmlns="http://www.w3.org/2000/svg">
<path opacity="0.2" d="M24.1719 47.0094L10.9879 29.98C15.2215 29.2378 19.5751 29.6043 23.625 31.044V18.4867C23.6159 15.2683 24.3014 12.0859 25.6349 9.15682C26.9683 6.2277 28.9182 3.62087 31.3514 1.51437C24.7903 2.61449 18.8315 6.00456 14.5334 11.0824C10.2353 16.1603 7.87614 22.5973 7.875 29.25C7.87507 29.4992 7.95882 29.7412 8.11283 29.9372L22.7661 48.8667C23.1884 48.2139 23.6582 47.5931 24.1719 47.0094Z" fill="url(#paint0_linear_832_790)"/>
<path opacity="0.2" d="M40.6475 1.51413C43.0811 3.62076 45.0314 6.22785 46.365 9.15731C47.6987 12.0868 48.3844 15.2696 48.3752 18.4884V31.0434C52.4251 29.6038 56.7787 29.2373 61.0123 29.9796L47.8283 47.0093C48.3421 47.5931 48.8121 48.2139 49.2346 48.8667L63.8874 29.9371C64.0414 29.7412 64.1251 29.4992 64.1252 29.25C64.1241 22.597 61.7648 16.1599 57.4664 11.0819C53.168 6.00395 47.2089 2.61397 40.6475 1.51413Z" fill="url(#paint1_linear_832_790)"/>
<path opacity="0.2" d="M25.875 31.2426C25.8755 31.3429 25.8894 31.4426 25.9163 31.5393L29.1159 43.231C29.7933 42.895 30.4941 42.6086 31.213 42.3741L28.3744 32.0031C33.3469 30.4989 38.6531 30.4982 43.626 32.0011L40.787 42.3741C41.5059 42.6086 42.2067 42.895 42.8841 43.231L46.0837 31.5393C46.1106 31.4426 46.1245 31.3429 46.125 31.2426V18.4883C46.125 15.0494 45.2503 11.6671 43.5831 8.65932C41.9159 5.65158 39.511 3.11734 36.5947 1.29497C36.4163 1.18354 36.2103 1.12445 36 1.12445C35.7897 1.12445 35.5837 1.18354 35.4053 1.29497L35.404 1.29587C32.488 3.11796 30.0835 5.65183 28.4165 8.65914C26.7496 11.6665 25.875 15.0484 25.875 18.4868V31.2426Z" fill="url(#paint2_linear_832_790)"/>
<path d="M36 43.875C33.33 43.875 30.7199 44.6668 28.4998 46.1502C26.2797 47.6336 24.5494 49.742 23.5276 52.2088C22.5058 54.6756 22.2385 57.39 22.7594 60.0087C23.2803 62.6275 24.5661 65.0329 26.4541 66.9209C28.3421 68.8089 30.7475 70.0947 33.3663 70.6156C35.985 71.1365 38.6994 70.8691 41.1662 69.8474C43.633 68.8256 45.7414 67.0953 47.2248 64.8752C48.7082 62.6551 49.5 60.045 49.5 57.375C49.5 53.7946 48.0777 50.3608 45.5459 47.8291C43.0142 45.2973 39.5804 43.875 36 43.875ZM34.875 56.25H37.125C38.0198 56.251 38.8777 56.6069 39.5104 57.2396C40.1431 57.8723 40.499 58.7302 40.5 59.625V61.875C40.499 62.7698 40.1431 63.6277 39.5104 64.2604C38.8777 64.8931 38.0198 65.249 37.125 65.25V66.375C37.125 66.6734 37.0065 66.9595 36.7955 67.1705C36.5845 67.3815 36.2984 67.5 36 67.5C35.7016 67.5 35.4155 67.3815 35.2045 67.1705C34.9935 66.9595 34.875 66.6734 34.875 66.375V65.25C33.9802 65.249 33.1223 64.8931 32.4896 64.2604C31.8569 63.6277 31.501 62.7698 31.5 61.875C31.5 61.5766 31.6185 61.2905 31.8295 61.0795C32.0405 60.8685 32.3266 60.75 32.625 60.75C32.9234 60.75 33.2095 60.8685 33.4205 61.0795C33.6315 61.2905 33.75 61.5766 33.75 61.875C33.7504 62.1732 33.869 62.4592 34.0799 62.6701C34.2908 62.881 34.5768 62.9996 34.875 63H37.125C37.4233 62.9996 37.7092 62.881 37.9201 62.6701C38.131 62.4592 38.2496 62.1732 38.25 61.875V59.625C38.2496 59.3267 38.131 59.0408 37.9201 58.8299C37.7092 58.619 37.4233 58.5004 37.125 58.5H34.875C33.9802 58.499 33.1223 58.1431 32.4896 57.5104C31.8569 56.8777 31.501 56.0198 31.5 55.125V52.875C31.501 51.9802 31.8569 51.1223 32.4896 50.4896C33.1223 49.8569 33.9802 49.501 34.875 49.5V48.375C34.875 48.0766 34.9935 47.7905 35.2045 47.5795C35.4155 47.3685 35.7016 47.25 36 47.25C36.2984 47.25 36.5845 47.3685 36.7955 47.5795C37.0065 47.7905 37.125 48.0766 37.125 48.375V49.5C38.0198 49.501 38.8777 49.8569 39.5104 50.4896C40.1431 51.1223 40.499 51.9802 40.5 52.875C40.5 53.1734 40.3815 53.4595 40.1705 53.6705C39.9595 53.8815 39.6734 54 39.375 54C39.0766 54 38.7905 53.8815 38.5795 53.6705C38.3685 53.4595 38.25 53.1734 38.25 52.875C38.2496 52.5767 38.131 52.2908 37.9201 52.0799C37.7092 51.869 37.4233 51.7504 37.125 51.75H34.875C34.5768 51.7504 34.2908 51.869 34.0799 52.0799C33.869 52.2908 33.7504 52.5767 33.75 52.875V55.125C33.7504 55.4232 33.869 55.7092 34.0799 55.9201C34.2908 56.131 34.5768 56.2496 34.875 56.25Z" fill="url(#paint3_linear_832_790)"/>
<defs>
<linearGradient id="paint0_linear_832_790" x1="14.5658" y1="38.4098" x2="41.4708" y2="17.8463" gradientUnits="userSpaceOnUse">
<stop stop-color="#526BF0"/>
<stop offset="1" stop-color="#8572FF"/>
</linearGradient>
<linearGradient id="paint1_linear_832_790" x1="47.3386" y1="38.4097" x2="74.2441" y2="17.8448" gradientUnits="userSpaceOnUse">
<stop stop-color="#526BF0"/>
<stop offset="1" stop-color="#8572FF"/>
</linearGradient>
<linearGradient id="paint2_linear_832_790" x1="31.6463" y1="33.9325" x2="55.3702" y2="16.3438" gradientUnits="userSpaceOnUse">
<stop stop-color="#526BF0"/>
<stop offset="1" stop-color="#8572FF"/>
</linearGradient>
<linearGradient id="paint3_linear_832_790" x1="30.195" y1="64.9125" x2="44.7124" y2="42.5323" gradientUnits="userSpaceOnUse">
<stop stop-color="#526BF0"/>
<stop offset="1" stop-color="#8572FF"/>
</linearGradient>
</defs>
</svg>
