<svg width="72" height="72" viewBox="0 0 72 72" fill="none" xmlns="http://www.w3.org/2000/svg">
<path opacity="0.2" d="M50.9998 33H67.4998C67.4976 31.3901 67.0637 29.8103 66.2432 28.4252C65.4226 27.0401 64.2456 25.9005 62.8348 25.125C63.6475 24.2758 64.1928 23.2065 64.403 22.05C64.6133 20.8936 64.4792 19.7008 64.0175 18.6198C63.5557 17.5389 62.7866 16.6174 61.8057 15.9697C60.8248 15.3221 59.6752 14.9768 58.4998 14.9768C57.3244 14.9768 56.1748 15.3221 55.1939 15.9697C54.213 16.6174 53.4439 17.5389 52.9821 18.6198C52.5204 19.7008 52.3863 20.8936 52.5966 22.05C52.8068 23.2065 53.3521 24.2758 54.1648 25.125C52.8524 25.8405 51.7389 26.8715 50.9248 28.125C50.9683 28.2456 50.9936 28.372 50.9998 28.5V33Z" fill="url(#paint0_linear_832_733)"/>
<path d="M24 29.9998H48V68.9998H24V29.9998Z" fill="url(#paint1_linear_832_733)"/>
<path d="M40.95 16.0799C41.7504 15.3871 42.3923 14.5303 42.8323 13.5675C43.2723 12.6047 43.5 11.5585 43.5 10.4999C43.5 8.51082 42.7098 6.60316 41.3033 5.19664C39.8968 3.79012 37.9891 2.99994 36 2.99994C34.0109 2.99994 32.1032 3.79012 30.6967 5.19664C29.2902 6.60316 28.5 8.51082 28.5 10.4999C28.5 11.5585 28.7277 12.6047 29.1677 13.5675C29.6077 14.5303 30.2496 15.3871 31.05 16.0799C28.9502 17.0308 27.1687 18.5662 25.9185 20.5028C24.6682 22.4393 24.0022 24.6949 24 26.9999H48C47.9978 24.6949 47.3317 22.4393 46.0815 20.5028C44.8313 18.5662 43.0498 17.0308 40.95 16.0799Z" fill="url(#paint2_linear_832_733)"/>
<path opacity="0.2" d="M3 67.5C3 67.8978 3.15804 68.2793 3.43934 68.5606C3.72064 68.8419 4.10218 69 4.5 69H21V36H3V67.5Z" fill="url(#paint3_linear_832_733)"/>
<path opacity="0.2" d="M17.835 25.125C18.6477 24.2758 19.193 23.2065 19.4032 22.05C19.6135 20.8936 19.4794 19.7008 19.0177 18.6198C18.5559 17.5389 17.7868 16.6174 16.8059 15.9697C15.825 15.3221 14.6754 14.9768 13.5 14.9768C12.3246 14.9768 11.175 15.3221 10.1941 15.9697C9.21316 16.6174 8.44408 17.5389 7.98233 18.6198C7.52058 19.7008 7.38651 20.8936 7.59677 22.05C7.80702 23.2065 8.35233 24.2758 9.165 25.125C7.75417 25.9005 6.57716 27.0401 5.75665 28.4252C4.93614 29.8103 4.50218 31.3901 4.5 33H21V28.5C21.0091 28.3821 21.0343 28.2661 21.075 28.155C20.2647 26.8905 19.1509 25.8489 17.835 25.125Z" fill="url(#paint4_linear_832_733)"/>
<path opacity="0.2" d="M51 69H67.5C67.8978 69 68.2794 68.8419 68.5607 68.5606C68.842 68.2793 69 67.8978 69 67.5V36H51V69Z" fill="url(#paint5_linear_832_733)"/>
<defs>
<linearGradient id="paint0_linear_832_733" x1="55.6487" y1="29.0199" x2="65.6462" y2="14.8461" gradientUnits="userSpaceOnUse">
<stop stop-color="#526BF0"/>
<stop offset="1" stop-color="#8572FF"/>
</linearGradient>
<linearGradient id="paint1_linear_832_733" x1="30.84" y1="60.3873" x2="53.7728" y2="38.6314" gradientUnits="userSpaceOnUse">
<stop stop-color="#526BF0"/>
<stop offset="1" stop-color="#8572FF"/>
</linearGradient>
<linearGradient id="paint2_linear_832_733" x1="30.84" y1="21.6999" x2="43.7444" y2="1.80648" gradientUnits="userSpaceOnUse">
<stop stop-color="#526BF0"/>
<stop offset="1" stop-color="#8572FF"/>
</linearGradient>
<linearGradient id="paint3_linear_832_733" x1="8.13" y1="61.7125" x2="27.2734" y2="45.6152" gradientUnits="userSpaceOnUse">
<stop stop-color="#526BF0"/>
<stop offset="1" stop-color="#8572FF"/>
</linearGradient>
<linearGradient id="paint4_linear_832_733" x1="9.22388" y1="29.0199" x2="19.2214" y2="14.8461" gradientUnits="userSpaceOnUse">
<stop stop-color="#526BF0"/>
<stop offset="1" stop-color="#8572FF"/>
</linearGradient>
<linearGradient id="paint5_linear_832_733" x1="56.13" y1="61.7125" x2="75.2734" y2="45.6152" gradientUnits="userSpaceOnUse">
<stop stop-color="#526BF0"/>
<stop offset="1" stop-color="#8572FF"/>
</linearGradient>
</defs>
</svg>
