<svg width="72" height="72" viewBox="0 0 72 72" fill="none" xmlns="http://www.w3.org/2000/svg">
<g clip-path="url(#clip0_2234_749)">
<path d="M71.7228 37.9599C69.7293 41.9492 63.7782 53.8485 61.784 57.8375C61.154 59.099 59.8645 59.8966 58.454 59.8966H6.86532C5.20187 59.8966 3.7417 58.7949 3.28394 57.1951L0.151005 46.2306C-0.51003 43.9185 1.07273 41.5692 3.46394 41.3116L6.82808 40.9485V27.568C6.82808 24.9083 8.92446 22.7204 11.581 22.6071L15.7567 22.4287V17.3375C15.7567 14.4466 18.0998 12.1035 20.9907 12.1035H23.6488C24.5658 12.1035 25.4084 12.6094 25.8398 13.4178L30.1039 21.4139L30.121 21.8158L40.2786 21.3813C42.0491 21.3052 43.725 22.1789 44.6777 23.6732C49.6149 31.3406 43.9042 22.4738 52.6195 36.014L69.1345 34.2342C71.1672 34.0154 72.6367 36.132 71.7228 37.9599Z" fill="url(#paint0_linear_2234_749)"/>
<path d="M52.6195 36.0141L6.82812 40.9485V27.568C6.82812 24.9084 8.92451 22.7204 11.5811 22.6072C26.679 21.962 19.9809 22.2495 40.2787 21.3813C42.0492 21.3053 43.725 22.1789 44.6778 23.6732C46.1201 25.9133 48.1057 29.0015 52.6195 36.0141Z" fill="#E3E2FE"/>
<path d="M16.7839 30.6559C16.7021 30.2762 16.8217 29.836 17.1221 29.5356C17.8957 28.762 19.2418 29.3054 19.2418 30.4138C19.2418 31.8959 17.0716 32.121 16.7839 30.6559Z" fill="url(#paint1_linear_2234_749)"/>
<path d="M21.7496 30.656C21.6126 30.0204 22.0289 29.3331 22.7241 29.1975C23.4773 29.0439 24.2076 29.62 24.2076 30.414C24.2076 30.9904 23.8049 31.5128 23.2082 31.6306C22.5823 31.7659 21.8879 31.3604 21.7496 30.656Z" fill="url(#paint2_linear_2234_749)"/>
<path d="M68.8736 43.6609L68.2281 44.9504H68.2265L67.581 46.2414C67.5089 46.2465 49.2545 47.5511 49.1822 47.5511C48.5367 47.5511 47.9921 47.0514 47.9455 46.3981C47.8974 45.7138 48.411 45.1211 49.0953 45.0714L68.8736 43.6609Z" fill="#E3E2FE"/>
<path d="M12.7249 52.9138C11.356 52.9138 10.2422 51.7999 10.2422 50.431C10.2422 49.0621 11.356 47.9482 12.7249 47.9482C14.0939 47.9482 15.2077 49.0621 15.2077 50.431C15.2077 51.7999 14.0939 52.9138 12.7249 52.9138ZM12.7249 50.4295V50.4312C12.7249 50.4298 12.7249 50.4295 12.7249 50.4295Z" fill="#E3E2FE"/>
<path d="M22.0345 52.9138C20.6656 52.9138 19.5518 51.7999 19.5518 50.431C19.5518 49.0621 20.6656 47.9482 22.0345 47.9482C23.4035 47.9482 24.5173 49.0621 24.5173 50.431C24.5173 51.7999 23.4035 52.9138 22.0345 52.9138ZM22.0345 50.4295V50.4312C22.0345 50.4298 22.0345 50.4295 22.0345 50.4295Z" fill="#E3E2FE"/>
<path d="M48.2772 29.2687C48.2369 29.2706 30.1424 30.1036 30.1019 30.1036C29.4424 30.1036 28.8946 29.5853 28.8636 28.9196C28.8326 28.2337 29.3617 27.6534 30.046 27.6223L46.7255 26.8542L48.2772 29.2687Z" fill="url(#paint3_linear_2234_749)"/>
</g>
<defs>
<linearGradient id="paint0_linear_2234_749" x1="20.52" y1="49.3423" x2="40.9649" y2="1.86079" gradientUnits="userSpaceOnUse">
<stop stop-color="#526BF0"/>
<stop offset="1" stop-color="#8572FF"/>
</linearGradient>
<linearGradient id="paint1_linear_2234_749" x1="17.4664" y1="31.1006" x2="18.7948" y2="29.0455" gradientUnits="userSpaceOnUse">
<stop stop-color="#526BF0"/>
<stop offset="1" stop-color="#8572FF"/>
</linearGradient>
<linearGradient id="paint2_linear_2234_749" x1="22.4316" y1="31.108" x2="23.7671" y2="29.0491" gradientUnits="userSpaceOnUse">
<stop stop-color="#526BF0"/>
<stop offset="1" stop-color="#8572FF"/>
</linearGradient>
<linearGradient id="paint3_linear_2234_749" x1="34.3956" y1="29.386" x2="34.8062" y2="25.6039" gradientUnits="userSpaceOnUse">
<stop stop-color="#526BF0"/>
<stop offset="1" stop-color="#8572FF"/>
</linearGradient>
<clipPath id="clip0_2234_749">
<rect width="72" height="72" fill="white"/>
</clipPath>
</defs>
</svg>
