<svg width="72" height="72" viewBox="0 0 72 72" fill="none" xmlns="http://www.w3.org/2000/svg">
<path d="M36 72C34.8341 72 33.8906 71.0565 33.8906 69.8906V10.5469C33.8906 9.38095 34.8341 8.4375 36 8.4375C37.1659 8.4375 38.1094 9.38095 38.1094 10.5469V69.8906C38.1094 71.0565 37.1659 72 36 72Z" fill="#E3E2FE"/>
<path d="M36 12.6562C32.5105 12.6562 29.6719 9.81759 29.6719 6.32812C29.6719 2.83866 32.5105 0 36 0C39.4895 0 42.3281 2.83866 42.3281 6.32812C42.3281 9.81759 39.4895 12.6562 36 12.6562Z" fill="#E3E2FE"/>
<path d="M27.5625 42.4688H44.4375C47.927 42.4688 50.7656 39.6301 50.7656 36.1406C50.7656 32.6512 47.927 29.8125 44.4375 29.8125C43.2716 29.8125 42.3281 30.756 42.3281 31.9219C42.3281 33.0878 43.2716 34.0312 44.4375 34.0312C45.5993 34.0312 46.5469 34.9788 46.5469 36.1406C46.5469 37.3025 45.5993 38.25 44.4375 38.25H27.5625C24.073 38.25 21.2344 41.0887 21.2344 44.5781C21.2344 48.0676 24.073 50.9062 27.5625 50.9062H40.2188C41.3806 50.9062 42.3281 51.8538 42.3281 53.0156C42.3281 54.1775 41.3806 55.125 40.2188 55.125H31.7812C28.2918 55.125 25.4531 57.9637 25.4531 61.4531C25.4531 64.9426 28.2918 67.7812 31.7812 67.7812H40.2188C41.3847 67.7812 42.3281 66.8378 42.3281 65.6719C42.3281 64.506 41.3847 63.5625 40.2188 63.5625H31.7812C30.6194 63.5625 29.6719 62.615 29.6719 61.4531C29.6719 60.2913 30.6194 59.3438 31.7812 59.3438H40.2188C43.7082 59.3438 46.5469 56.5051 46.5469 53.0156C46.5469 49.5262 43.7082 46.6875 40.2188 46.6875H27.5625C26.4007 46.6875 25.4531 45.74 25.4531 44.5781C25.4531 43.4163 26.4007 42.4688 27.5625 42.4688Z" fill="url(#paint0_linear_2234_560)"/>
<path d="M46.5469 53.0156C46.5469 49.5262 43.7082 46.6875 40.2188 46.6875H36V50.9062H40.2188C41.3806 50.9062 42.3281 51.8538 42.3281 53.0156C42.3281 54.1775 41.3806 55.125 40.2188 55.125H36V59.3438H40.2188C43.7082 59.3438 46.5469 56.5051 46.5469 53.0156Z" fill="url(#paint1_linear_2234_560)"/>
<path d="M44.4375 29.8125C43.2716 29.8125 42.3281 30.756 42.3281 31.9219C42.3281 33.0878 43.2716 34.0312 44.4375 34.0312C45.5993 34.0312 46.5469 34.9788 46.5469 36.1406C46.5469 37.3025 45.5993 38.25 44.4375 38.25H36V42.4688H44.4375C47.927 42.4688 50.7656 39.6301 50.7656 36.1406C50.7656 32.6512 47.927 29.8125 44.4375 29.8125Z" fill="url(#paint2_linear_2234_560)"/>
<path d="M42.3281 65.6719C42.3281 64.506 41.3847 63.5625 40.2188 63.5625H36V67.7812H40.2188C41.3847 67.7812 42.3281 66.8378 42.3281 65.6719Z" fill="url(#paint3_linear_2234_560)"/>
<path d="M70.5514 29.9812C63.8857 27.3233 61.3124 22.8093 59.2452 19.1812C57.5998 16.3124 56.0811 13.5701 52.917 13.0216C49.331 12.3469 44.606 14.7938 35.9999 21.8391C27.4356 14.7939 22.7106 12.3469 19.0827 13.0218C15.9186 13.5702 14.3998 16.3125 12.7545 19.1813C10.6873 22.8094 8.11405 27.3235 1.44829 29.9813C0.520303 30.3189 -0.028134 31.3313 0.182663 32.3016C0.351413 33.314 1.23735 34.0313 2.24985 34.0313H69.7498C70.7624 34.0313 71.6483 33.314 71.817 32.3015C72.0278 31.3313 71.4794 30.3188 70.5514 29.9812Z" fill="#E3E2FE"/>
<path d="M71.8172 32.3014C71.6484 33.3139 70.7625 34.0312 69.75 34.0312H36V21.839C44.6061 14.7938 49.3311 12.3468 52.9172 13.0217C56.0812 13.5701 57.6 16.3124 59.2453 19.1812C61.3125 22.8093 63.8858 27.3234 70.5516 29.9812C71.4795 30.3187 72.028 31.3312 71.8172 32.3014Z" fill="#E3E2FE"/>
<path d="M50.0908 34.0312H44.3953C43.1297 32.2172 42.3281 30.1078 42.3281 27.7031C42.3281 26.5217 43.2561 25.5938 44.4375 25.5938C45.6189 25.5938 46.5469 26.5217 46.5469 27.7031C46.5469 30.2342 48.1078 32.3436 50.0908 34.0312Z" fill="url(#paint4_linear_2234_560)"/>
<path d="M65.5308 34.0313H54.8572C52.2838 32.0061 49.7105 28.8842 47.7697 24.2859C47.3056 23.2313 47.8119 21.9656 48.9089 21.5436C49.9636 21.1219 51.1869 21.5858 51.6512 22.6828C56.3339 33.9046 65.4463 34.0313 65.5308 34.0313Z" fill="url(#paint5_linear_2234_560)"/>
<path d="M29.6718 27.7031C29.6718 30.1078 28.8703 32.2172 27.6046 34.0312H21.9092C23.8921 32.3436 25.4531 30.2342 25.4531 27.7031C25.4531 26.5217 26.3811 25.5938 27.5624 25.5938C28.7438 25.5938 29.6718 26.5217 29.6718 27.7031Z" fill="url(#paint6_linear_2234_560)"/>
<path d="M24.2298 24.2859C22.2891 28.8842 19.7158 32.0061 17.1423 34.0312H6.46875C6.55327 34.0312 15.6656 33.9045 20.3483 22.6828C20.8125 21.5859 22.0359 21.1219 23.0906 21.5436C24.1875 21.9656 24.6937 23.2312 24.2298 24.2859Z" fill="url(#paint7_linear_2234_560)"/>
<defs>
<linearGradient id="paint0_linear_2234_560" x1="29.6508" y1="59.3965" x2="51.6449" y2="33.0249" gradientUnits="userSpaceOnUse">
<stop stop-color="#526BF0"/>
<stop offset="1" stop-color="#8572FF"/>
</linearGradient>
<linearGradient id="paint1_linear_2234_560" x1="39.0059" y1="56.5488" x2="46.2305" y2="47.2676" gradientUnits="userSpaceOnUse">
<stop stop-color="#526BF0"/>
<stop offset="1" stop-color="#8572FF"/>
</linearGradient>
<linearGradient id="paint2_linear_2234_560" x1="40.2082" y1="39.6738" x2="46.5385" y2="28.2886" gradientUnits="userSpaceOnUse">
<stop stop-color="#526BF0"/>
<stop offset="1" stop-color="#8572FF"/>
</linearGradient>
<linearGradient id="paint3_linear_2234_560" x1="37.8035" y1="66.8496" x2="39.6136" y2="62.664" gradientUnits="userSpaceOnUse">
<stop stop-color="#526BF0"/>
<stop offset="1" stop-color="#8572FF"/>
</linearGradient>
<linearGradient id="paint4_linear_2234_560" x1="44.5405" y1="32.168" x2="49.2201" y2="25.5308" gradientUnits="userSpaceOnUse">
<stop stop-color="#526BF0"/>
<stop offset="1" stop-color="#8572FF"/>
</linearGradient>
<linearGradient id="paint5_linear_2234_560" x1="52.7086" y1="31.2395" x2="58.3392" y2="18.9263" gradientUnits="userSpaceOnUse">
<stop stop-color="#526BF0"/>
<stop offset="1" stop-color="#8572FF"/>
</linearGradient>
<linearGradient id="paint6_linear_2234_560" x1="24.1215" y1="32.168" x2="28.8012" y2="25.5308" gradientUnits="userSpaceOnUse">
<stop stop-color="#526BF0"/>
<stop offset="1" stop-color="#8572FF"/>
</linearGradient>
<linearGradient id="paint7_linear_2234_560" x1="11.5797" y1="31.2395" x2="17.2103" y2="18.9263" gradientUnits="userSpaceOnUse">
<stop stop-color="#526BF0"/>
<stop offset="1" stop-color="#8572FF"/>
</linearGradient>
</defs>
</svg>
