<svg width="72" height="72" viewBox="0 0 72 72" fill="none" xmlns="http://www.w3.org/2000/svg">
<g clip-path="url(#clip0_2234_652)">
<path d="M68.9997 54H3.87877C3.59723 54 3.36914 53.7717 3.36914 53.4903V47.9941H72.0377V50.9619C72.0377 52.6398 70.6775 54 68.9997 54Z" fill="url(#paint0_linear_2234_652)"/>
<path d="M71.9979 50.3692H45.96V25.4834H63.7764C64.8003 25.4834 65.7597 25.9837 66.3455 26.8236L71.4345 34.1178C71.8012 34.6434 71.9979 35.2691 71.9979 35.9102V50.3692Z" fill="#E3E2FE"/>
<path d="M53.2783 39.4072V30.3238C53.2783 30.0603 53.4919 29.8467 53.7555 29.8467H62.885C63.0409 29.8467 63.187 29.9229 63.2763 30.0507L67.5482 36.1737C67.6041 36.2537 67.634 36.349 67.634 36.4466V39.4071C67.634 39.6706 67.4204 39.8842 67.1569 39.8842H53.7555C53.4919 39.8844 53.2783 39.6707 53.2783 39.4072Z" fill="url(#paint1_linear_2234_652)"/>
<path d="M60.8044 58.8841C64.2673 58.8841 67.0745 56.0769 67.0745 52.6139C67.0745 49.151 64.2673 46.3438 60.8044 46.3438C57.3414 46.3438 54.5342 49.151 54.5342 52.6139C54.5342 56.0769 57.3414 58.8841 60.8044 58.8841Z" fill="#E3E2FE"/>
<path d="M60.8055 54.9429C59.5213 54.9429 58.4766 53.8982 58.4766 52.614C58.4766 51.33 59.5213 50.2852 60.8055 50.2852C62.0896 50.2852 63.1343 51.3299 63.1343 52.614C63.1343 53.8982 62.0896 54.9429 60.8055 54.9429Z" fill="url(#paint2_linear_2234_652)"/>
<path d="M50 54H0.95738C0.428604 54 0 53.5318 0 52.9542V14.0458C0 13.4682 0.428604 13 0.95738 13H49.0426C49.5714 13 50 13.4682 50 14.0458V54Z" fill="url(#paint3_linear_2234_652)"/>
<path d="M34.0311 30.3713C33.7469 30.3713 33.4611 30.2737 33.2284 30.074L25.2013 23.191L17.1741 30.074C16.6569 30.5177 15.8778 30.4579 15.434 29.9404C14.9903 29.4231 15.0501 28.644 15.5676 28.2003L24.398 20.6284C24.8601 20.2319 25.5424 20.2319 26.0045 20.6284L34.8349 28.2003C35.3523 28.644 35.412 29.4231 34.9685 29.9404C34.7244 30.2252 34.3787 30.3713 34.0311 30.3713Z" fill="#E3E2FE"/>
<path d="M32.1154 31.4258L25.7081 25.9318C25.4163 25.6816 24.9857 25.6816 24.6939 25.9318L18.2866 31.426C18.1141 31.5739 18.0146 31.7899 18.0146 32.0173V39.893C18.0146 40.3232 18.3634 40.6721 18.7937 40.6721H23.0428V33.8208C23.0428 33.4966 23.3057 33.2337 23.6299 33.2337H26.7721C27.0964 33.2337 27.3592 33.4966 27.3592 33.8208V40.6721H31.6083C32.0385 40.6721 32.3872 40.3233 32.3872 39.893V32.0173C32.3874 31.7899 32.2879 31.5739 32.1154 31.4258Z" fill="#E3E2FE"/>
<path d="M14.2692 58.8841C17.7321 58.8841 20.5394 56.0769 20.5394 52.6139C20.5394 49.151 17.7321 46.3438 14.2692 46.3438C10.8063 46.3438 7.99902 49.151 7.99902 52.6139C7.99902 56.0769 10.8063 58.8841 14.2692 58.8841Z" fill="#E3E2FE"/>
<path d="M14.2693 54.9429C12.9851 54.9429 11.9404 53.8982 11.9404 52.614C11.9404 51.33 12.9851 50.2852 14.2693 50.2852C15.5535 50.2852 16.5982 51.3299 16.5982 52.614C16.5982 53.8982 15.5535 54.9429 14.2693 54.9429Z" fill="url(#paint4_linear_2234_652)"/>
</g>
<defs>
<linearGradient id="paint0_linear_2234_652" x1="22.9397" y1="52.6737" x2="23.3397" y2="45.6235" gradientUnits="userSpaceOnUse">
<stop stop-color="#526BF0"/>
<stop offset="1" stop-color="#8572FF"/>
</linearGradient>
<linearGradient id="paint1_linear_2234_652" x1="57.3697" y1="37.6676" x2="61.8164" y2="27.8635" gradientUnits="userSpaceOnUse">
<stop stop-color="#526BF0"/>
<stop offset="1" stop-color="#8572FF"/>
</linearGradient>
<linearGradient id="paint2_linear_2234_652" x1="59.804" y1="53.9143" x2="62.3084" y2="50.0535" gradientUnits="userSpaceOnUse">
<stop stop-color="#526BF0"/>
<stop offset="1" stop-color="#8572FF"/>
</linearGradient>
<linearGradient id="paint3_linear_2234_652" x1="14.25" y1="44.9458" x2="34.2692" y2="7.30962" gradientUnits="userSpaceOnUse">
<stop stop-color="#526BF0"/>
<stop offset="1" stop-color="#8572FF"/>
</linearGradient>
<linearGradient id="paint4_linear_2234_652" x1="13.2679" y1="53.9143" x2="15.7723" y2="50.0535" gradientUnits="userSpaceOnUse">
<stop stop-color="#526BF0"/>
<stop offset="1" stop-color="#8572FF"/>
</linearGradient>
<clipPath id="clip0_2234_652">
<rect width="72" height="72" fill="white"/>
</clipPath>
</defs>
</svg>
