<?xml version="1.0" encoding="UTF-8"?>
<svg width="124px" height="88px" viewBox="0 0 124 88" version="1.1" xmlns="http://www.w3.org/2000/svg" xmlns:xlink="http://www.w3.org/1999/xlink">
    <!-- Generator: Sketch 52.5 (67469) - http://www.bohemiancoding.com/sketch -->
    <title>4365975_charity_delivery_donation_sending relief_icon</title>
    <desc>Created with Sketch.</desc>
    <g id="Page-1" stroke="none" stroke-width="1" fill="none" fill-rule="evenodd">
        <g id="4365975_charity_delivery_donation_sending-relief_icon">
            <circle id="Oval" fill="#E3E2FE" cx="30" cy="74" r="9"></circle>
            <circle id="Oval" fill="#E3E2FE" cx="94" cy="74" r="9"></circle>
            <path d="M30,60.7 C23.7,60.7 18.5,65.1 17.1,70.9 C16.9,71.9 16.7,72.9 16.7,74 C16.7,75.1 16.8,76.2 17.1,77.2 C18.5,83 23.8,87.3 30,87.3 C36.2,87.3 41.4,83 42.9,77.2 C43.2,76.2 43.3,75.1 43.3,74 C43.3,72.9 43.2,71.9 42.9,70.9 C41.5,65.1 36.3,60.7 30,60.7 Z M36,77.1 C34.9,79.2 32.6,80.7 30,80.7 C27.4,80.7 25.2,79.3 24,77.1 C23.5,76.2 23.2,75.1 23.2,73.9 C23.2,72.8 23.5,71.8 23.9,70.8 C25,68.6 27.3,67.1 29.9,67.1 C32.5,67.1 34.8,68.6 35.9,70.8 C36.4,71.7 36.6,72.8 36.6,73.9 C36.8,75.1 36.5,76.2 36,77.1 Z" id="Shape" fill="#596CF2" fill-rule="nonzero"></path>
            <path d="M94,60.7 C87.7,60.7 82.5,65.1 81.1,70.9 C80.9,71.9 80.7,72.9 80.7,74 C80.7,75.1 80.8,76.2 81.1,77.2 C82.5,83 87.7,87.3 93.9,87.3 C100.1,87.3 105.3,83 106.8,77.3 C107.1,76.3 107.2,75.2 107.2,74.1 C107.2,73.1 107.1,72 106.8,71.1 C105.5,65.1 100.2,60.7 94,60.7 Z M99.9,77.1 C98.8,79.2 96.5,80.6 94,80.6 C91.5,80.6 89.2,79.2 88.1,77.1 C87.6,76.1 87.3,75.1 87.3,73.9 C87.3,72.8 87.6,71.8 88,70.8 C89.1,68.6 91.4,67.1 94,67.1 C96.6,67.1 98.9,68.6 100,70.8 C100.5,71.7 100.7,72.8 100.7,73.8 C100.7,75.1 100.4,76.2 99.9,77.1 Z" id="Shape" fill="#606DF4" fill-rule="nonzero"></path>
            <rect id="Rectangle" fill="#606EF5" x="17" y="8" width="48" height="40"></rect>
            <path d="M123.7,50.7 C123.7,46 122.1,42 118.7,38.6 C110.6,30.5 102.6,22.2 94.6,14 C92.4,11.8 89.8,10.5 86.6,10.5 C84.6,10.5 82.6,10.5 80.5,10.5 L80.5,5.5 C80.5,2.9 78.4,0.8 75.8,0.8 L5,0.8 C2.4,0.8 0.3,2.9 0.3,5.5 L0.3,68.3 C0.3,70.9 2.4,73 5,73 L10.6,73 C10.7,71.8 10.8,70.5 11.1,69.4 C13.2,60.7 21,54.6 30,54.6 C39,54.6 46.8,60.7 48.8,69.5 C49.1,70.7 49.3,71.9 49.3,73.1 L74.6,73.1 C74.7,71.9 74.8,70.6 75.1,69.5 C77.2,60.7 85,54.6 94,54.6 C103,54.6 110.8,60.7 112.8,69.5 C113.1,70.6 113.2,71.8 113.3,73 C114.8,73 116.3,73 117.7,73 C122.5,73 123.8,71.3 123.6,66.2 C123.4,61 123.7,55.9 123.7,50.7 Z M56.2,30.1 C54.7,32.4 52.8,34.5 50.1,36.6 C47.5,38.8 44.7,40.7 41.5,42.5 C41.1,42.7 40.8,42.8 40.5,42.8 C40.1,42.8 39.8,42.7 39.5,42.5 C35.8,40.4 32.9,38.4 30.3,36.2 C28.5,34.7 26.5,32.8 24.9,30.3 C23.5,28.1 22.7,25.8 22.6,23.4 C22.5,20.7 23.4,18.2 25.1,15.9 C26.7,13.9 28.9,12.7 31.7,12.4 C34.2,12.2 36.3,12.7 38.2,13.8 C39.2,14.4 40,15.1 40.7,15.9 C42.5,13.6 45.1,12.4 48.2,12.3 L48.6,12.3 C51.5,12.3 54,13.3 55.9,15.4 C57.2,16.8 58,18.6 58.5,20.8 C58.9,24.1 58.2,27.1 56.2,30.1 Z M80.5,39.9 L80.5,17.5 L82.1,17.5 C83.7,17.5 85.2,17.5 86.8,17.5 C87.7,17.5 88.5,17.7 89.7,18.9 C92.3,21.6 95,24.3 97.6,27 C101.8,31.3 106.1,35.7 110.4,40 L80.5,40 L80.5,39.9 Z" id="Shape" fill="#E3E2FE" fill-rule="nonzero"></path>
        </g>
    </g>
</svg>