<svg width="72" height="72" viewBox="0 0 72 72" fill="none" xmlns="http://www.w3.org/2000/svg">
<path d="M33.75 63.5063C33.75 63.1598 33.831 62.8133 33.9885 62.4983L39.852 50.7758L28.0035 42.8783C27.3735 42.4598 27 41.7578 27 41.0063C27 40.2548 27.3735 39.5528 28.0035 39.1343L38.6955 32.0063L28.0035 24.8783C27.4455 24.5048 27.081 23.9063 27.0135 23.2403C26.9415 22.5743 27.1755 21.9128 27.6435 21.4313L33.75 15.1853V11.3198C29.9835 8.76835 25.443 7.25635 20.8125 7.25635C9.144 7.25635 0 15.8693 0 26.8628C0 41.9648 27.27 60.5408 33.75 64.7393V63.5063Z" fill="url(#paint0_linear_2219_939)"/>
<path opacity="0.2" d="M51.1879 7.25635C46.5574 7.25635 42.0169 8.76835 38.2504 11.3198V16.1033C38.2504 16.6928 38.0209 17.2553 37.6069 17.6783L32.7559 22.6373L44.0014 30.1343C44.6224 30.5528 45.0004 31.2548 45.0004 32.0063C45.0004 32.7578 44.6224 33.4598 43.9969 33.8783L33.3049 41.0063L43.9969 48.1343C44.9419 48.7643 45.2659 49.9973 44.7619 51.0143L38.2504 64.0373V64.7438C51.2824 56.5133 72.0004 39.9848 72.0004 26.8629C72.0004 15.8693 62.8609 7.25635 51.1879 7.25635Z" fill="url(#paint1_linear_2219_939)"/>
<defs>
<linearGradient id="paint0_linear_2219_939" x1="11.3578" y1="52.0452" x2="45.1312" y2="15.9492" gradientUnits="userSpaceOnUse">
<stop stop-color="#526BF0"/>
<stop offset="1" stop-color="#8572FF"/>
</linearGradient>
<linearGradient id="paint1_linear_2219_939" x1="43.9405" y1="52.0487" x2="77.7473" y2="16.4707" gradientUnits="userSpaceOnUse">
<stop stop-color="#526BF0"/>
<stop offset="1" stop-color="#8572FF"/>
</linearGradient>
</defs>
</svg>
