<svg width="72" height="72" viewBox="0 0 72 72" fill="none" xmlns="http://www.w3.org/2000/svg">
<path d="M30.6046 0.348183C30.6156 0.341152 30.627 0.335105 30.6379 0.328355C30.7056 0.281667 30.6976 0.286308 30.6046 0.348183ZM50.4337 31.9219C52.3731 30.602 53.8077 29.6016 53.8077 29.6016C54.5251 29.2217 54.9891 28.5047 54.9891 27.7031V20.4045L55.9171 21.0375C57.1038 21.6965 58.2519 21.3127 58.8702 20.4469C59.5032 19.4767 59.25 18.1689 58.2797 17.4937L54.9891 15.3L49.8424 5.94829L42.3329 6.86249L32.9674 0.348183C32.2609 -0.108989 31.3506 -0.115036 30.6379 0.328355C29.4692 1.134 5.69091 17.2277 5.2921 17.4936C4.32193 18.1687 4.0688 19.4766 4.70161 20.4467C5.33766 21.3376 6.49866 21.6793 7.65474 21.0374L8.58272 20.4044V53.0156C8.58272 54.1967 9.51071 55.125 10.6921 55.125H21.239C23.569 55.125 25.4577 53.2363 25.4577 50.9062V38.25H40.2233C40.6283 38.25 42.3517 37.2338 44.4421 35.8982V65.6719H61.3171V31.9219H50.4337Z" fill="url(#paint0_linear_2234_1245)"/>
<path d="M54.9893 2.10938C54.9893 0.927984 54.0613 0 52.8799 0H44.4424C43.261 0 42.333 0.927984 42.333 2.10938V6.8625C41.5382 6.33262 54.5559 15.011 54.9893 15.3V2.10938ZM66.4641 27.9141L62.2454 25.8047C61.6549 25.5094 60.9798 25.5094 60.3894 25.8047L57.0986 27.45L53.8079 25.8047C53.2174 25.5094 52.5422 25.5094 51.9519 25.8047L48.6611 27.45L45.3704 25.8047C44.7799 25.5094 44.1047 25.5094 43.5144 25.8047L39.2957 27.9141C38.5783 28.2939 38.1143 29.0109 38.1143 29.8125V34.0312H23.3486C22.1827 34.0312 21.2393 34.9747 21.2393 36.1406V55.125H38.1143V67.7812C38.1143 68.5828 38.5783 69.3 39.2957 69.6797L43.5144 71.7787C44.1049 72.0737 44.78 72.0737 45.3704 71.7787L48.6611 70.1437L51.9519 71.7787C52.5424 72.0737 53.2175 72.0737 53.8079 71.7787L57.0986 70.1437L60.3894 71.7891C60.6844 71.9155 60.9799 72 61.3174 72C61.6549 72 61.9503 71.9155 62.2454 71.7891L66.4641 69.6797C67.1815 69.2999 67.6455 68.5828 67.6455 67.7812V29.8125C67.6455 29.0109 67.1816 28.2938 66.4641 27.9141ZM57.0986 36.1406C58.28 36.1406 59.208 37.0686 59.208 38.25C59.208 39.4311 58.28 40.3594 57.0986 40.3594C55.9172 40.3594 54.9893 39.4311 54.9893 38.25C54.9893 37.0686 55.9172 36.1406 57.0986 36.1406ZM57.0986 61.4531H48.6611C47.4797 61.4531 46.5518 60.5249 46.5518 59.3438C46.5518 58.1624 47.4797 57.2344 48.6611 57.2344H57.0986C58.28 57.2344 59.208 58.1624 59.208 59.3438C59.208 60.5249 58.28 61.4531 57.0986 61.4531ZM46.5518 50.9062C46.5518 49.7249 47.4797 48.7969 48.6611 48.7969C49.8425 48.7969 50.7705 49.7249 50.7705 50.9062C50.7705 52.0874 49.8425 53.0156 48.6611 53.0156C47.4797 53.0156 46.5518 52.0874 46.5518 50.9062ZM58.28 52.678C57.124 53.3199 55.963 52.9782 55.3269 52.0874L46.8894 39.4311C46.2565 38.4609 46.5096 37.1531 47.4799 36.478C48.4503 35.8453 49.7582 36.0984 50.433 37.0686L58.8705 49.7249C59.5033 50.6953 59.2503 52.0031 58.28 52.678ZM31.7861 25.5938C35.2756 25.5938 38.1143 22.7551 38.1143 19.2656C38.1143 15.7762 35.2756 12.9375 31.7861 12.9375C28.2967 12.9375 25.458 15.7762 25.458 19.2656C25.458 22.7551 28.2967 25.5938 31.7861 25.5938Z" fill="#E3E2FE"/>
<defs>
<linearGradient id="paint0_linear_2234_1245" x1="20.5888" y1="51.1694" x2="57.6818" y2="1.56977" gradientUnits="userSpaceOnUse">
<stop stop-color="#526BF0"/>
<stop offset="1" stop-color="#8572FF"/>
</linearGradient>
</defs>
</svg>
