<svg width="72" height="72" viewBox="0 0 72 72" fill="none" xmlns="http://www.w3.org/2000/svg">
<g clip-path="url(#clip0_832_819)">
<path opacity="0.2" d="M71.2023 26.3003L51.7916 10.6725C51.008 10.0415 49.8912 10.0418 49.1076 10.6725L46.6377 12.6608L59.4379 22.9665C60.9594 24.1912 61.8319 26.0138 61.8319 27.9671V59.6606C61.8319 60.4107 61.7014 61.1309 61.4639 61.8007H69.8605C71.0423 61.8007 72.0005 60.8424 72.0005 59.6606V27.9673C72.0002 27.3194 71.7067 26.7064 71.2023 26.3003Z" fill="url(#paint0_linear_832_819)"/>
<path opacity="0.2" d="M56.754 26.3003L37.3434 10.6725C36.5598 10.0415 35.4427 10.0418 34.6594 10.6725L32.1895 12.6609L44.9897 22.9665C46.5111 24.1915 47.3837 26.0141 47.3837 27.9673V59.6608C47.3837 60.4109 47.2532 61.131 47.0157 61.8008H55.4123C56.5939 61.8008 57.5522 60.8426 57.5522 59.6608V27.9673C57.5519 27.3194 57.2584 26.7066 56.754 26.3003Z" fill="url(#paint1_linear_832_819)"/>
<path d="M42.3052 26.3003L22.8945 10.6725C22.1109 10.0415 20.994 10.0418 20.2105 10.6725L0.798047 26.3003C0.293484 26.7064 0 27.3194 0 27.9673V59.6608C0 60.8426 0.958219 61.8008 2.14003 61.8008H15.4679C16.6497 61.8008 17.6079 60.8426 17.6079 59.6608V50.1113C17.6079 47.9369 19.377 46.1678 21.5515 46.1678C23.726 46.1678 25.4952 47.9369 25.4952 50.1113V59.6608C25.4952 60.8426 26.4534 61.8008 27.6352 61.8008H28.7764H31.0369H40.9631C42.1449 61.8008 43.1031 60.8426 43.1031 59.6608V27.9673C43.1032 27.3194 42.8098 26.7066 42.3052 26.3003Z" fill="url(#paint2_linear_832_819)"/>
</g>
<defs>
<linearGradient id="paint0_linear_832_819" x1="53.8661" y1="50.4054" x2="83.1179" y2="28.2407" gradientUnits="userSpaceOnUse">
<stop stop-color="#526BF0"/>
<stop offset="1" stop-color="#8572FF"/>
</linearGradient>
<linearGradient id="paint1_linear_832_819" x1="39.4178" y1="50.4055" x2="68.6696" y2="28.2409" gradientUnits="userSpaceOnUse">
<stop stop-color="#526BF0"/>
<stop offset="1" stop-color="#8572FF"/>
</linearGradient>
<linearGradient id="paint2_linear_832_819" x1="12.2844" y1="50.4055" x2="41.723" y2="12.4969" gradientUnits="userSpaceOnUse">
<stop stop-color="#526BF0"/>
<stop offset="1" stop-color="#8572FF"/>
</linearGradient>
<clipPath id="clip0_832_819">
<rect width="72" height="72" fill="white"/>
</clipPath>
</defs>
</svg>
