<svg width="72" height="72" viewBox="0 0 72 72" fill="none" xmlns="http://www.w3.org/2000/svg">
<g opacity="0.2">
<path d="M65.5312 0H6.46875C5.30283 0 4.35938 0.943453 4.35938 2.10938V69.8906C4.35938 71.0565 5.30283 72 6.46875 72H65.5312C66.6972 72 67.6406 71.0565 67.6406 69.8906V2.10938C67.6406 0.943453 66.6972 0 65.5312 0Z" fill="url(#paint0_linear_832_664)"/>
</g>
<path d="M12.7969 39.1094V43.3281H25.4531V37H14.9062C13.7403 37 12.7969 37.9435 12.7969 39.1094ZM57.0938 37H29.6719V43.3281H59.2031V39.1094C59.2031 37.9435 58.2597 37 57.0938 37ZM29.6719 53.875H59.2031V47.5469H29.6719V53.875ZM29.6719 64.4219H57.0938C58.2597 64.4219 59.2031 63.4784 59.2031 62.3125V58.0938H29.6719V64.4219ZM12.7969 62.3125C12.7969 63.4784 13.7403 64.4219 14.9062 64.4219H25.4531V47.5469H12.7969V62.3125Z" fill="url(#paint1_linear_832_664)"/>
<path d="M38.44 25H34.84L31.222 19.366V25H28V12.4H31.222V17.692L34.66 12.4H38.26L34.264 18.52L38.44 25Z" fill="url(#paint2_linear_832_664)"/>
<path d="M41.6997 12.4H44.4717V25H41.2497V15.784L39.0537 16.342L38.2797 13.624L41.6997 12.4Z" fill="url(#paint3_linear_832_664)"/>
<defs>
<linearGradient id="paint0_linear_832_664" x1="22.3945" y1="56.1" x2="62.9075" y2="1.20787" gradientUnits="userSpaceOnUse">
<stop stop-color="#526BF0"/>
<stop offset="1" stop-color="#8572FF"/>
</linearGradient>
<linearGradient id="paint1_linear_832_664" x1="26.0227" y1="58.3662" x2="36.8155" y2="30.2091" gradientUnits="userSpaceOnUse">
<stop stop-color="#526BF0"/>
<stop offset="1" stop-color="#8572FF"/>
</linearGradient>
<linearGradient id="paint2_linear_832_664" x1="32.6944" y1="22.2175" x2="38.6027" y2="10.3105" gradientUnits="userSpaceOnUse">
<stop stop-color="#526BF0"/>
<stop offset="1" stop-color="#8572FF"/>
</linearGradient>
<linearGradient id="paint3_linear_832_664" x1="32.6944" y1="22.2175" x2="38.6027" y2="10.3105" gradientUnits="userSpaceOnUse">
<stop stop-color="#526BF0"/>
<stop offset="1" stop-color="#8572FF"/>
</linearGradient>
</defs>
</svg>
