<svg width="72" height="62" viewBox="0 0 72 62" fill="none" xmlns="http://www.w3.org/2000/svg">
<g clip-path="url(#clip0_832_611)">
<path opacity="0.2" d="M63.6921 33.2308H55.3844L35.9997 27.6923L16.6151 33.2308H8.30744C7.47648 33.2308 6.6459 33.6185 6.14744 34.2831C5.59378 34.9477 5.42744 35.8337 5.59377 36.6644L10.9657 58.5231H61.0336L66.4059 36.6646C66.5722 35.8339 66.4059 34.9477 65.8522 34.2833C65.3536 33.6185 64.523 33.2308 63.6921 33.2308Z" fill="url(#paint0_linear_832_611)"/>
<path d="M33.2308 44.3077C31.7001 44.3077 30.4615 45.5463 30.4615 47.0769C30.4615 48.6076 31.7001 49.8462 33.2308 49.8462H38.7692C40.2999 49.8462 41.5385 48.6076 41.5385 47.0769C41.5385 45.5463 40.2999 44.3077 38.7692 44.3077H33.2308ZM16.6154 33.2308H55.3846V30.4615C55.3846 25.8646 51.674 22.1538 47.0769 22.1538H36H24.9231C20.326 22.1538 16.6154 25.8646 16.6154 30.4615V33.2308ZM47.0769 11.0769C47.0769 4.96782 42.1063 0 36 0C29.8937 0 24.9231 4.96782 24.9231 11.0769C24.9231 17.186 29.8937 22.1538 36 22.1538C42.1063 22.1538 47.0769 17.186 47.0769 11.0769ZM69.2308 55.7538H2.76923C1.23858 55.7538 0 56.9924 0 58.5231C0 60.0537 1.23858 61.2923 2.76923 61.2923H69.2308C70.7614 61.2923 72 60.0537 72 58.5231C72 56.9924 70.7614 55.7538 69.2308 55.7538Z" fill="url(#paint1_linear_832_611)"/>
</g>
<defs>
<linearGradient id="paint0_linear_832_611" x1="22.8988" y1="51.7146" x2="33.6566" y2="18.9367" gradientUnits="userSpaceOnUse">
<stop stop-color="#526BF0"/>
<stop offset="1" stop-color="#8572FF"/>
</linearGradient>
<linearGradient id="paint1_linear_832_611" x1="20.52" y1="47.7569" x2="51.0653" y2="-7.55825" gradientUnits="userSpaceOnUse">
<stop stop-color="#526BF0"/>
<stop offset="1" stop-color="#8572FF"/>
</linearGradient>
<clipPath id="clip0_832_611">
<rect width="72" height="61.2923" fill="white"/>
</clipPath>
</defs>
</svg>
