<svg width="72" height="72" viewBox="0 0 72 72" fill="none" xmlns="http://www.w3.org/2000/svg">
<g clip-path="url(#clip0_832_809)">
<g opacity="0.2">
<path d="M19.125 55.125H17.0156V19.2656C17.0156 18.0997 16.0722 17.1562 14.9062 17.1562H10.6875C9.52158 17.1562 8.57812 18.0997 8.57812 19.2656V55.125H6.46875C5.30283 55.125 4.35938 56.0685 4.35938 57.2344V65.6719C4.35938 66.8378 5.30283 67.7812 6.46875 67.7812H19.125C20.2909 67.7812 21.2344 66.8378 21.2344 65.6719V57.2344C21.2344 56.0685 20.2909 55.125 19.125 55.125ZM65.5312 55.125H63.4219V19.2656C63.4219 18.0997 62.4784 17.1562 61.3125 17.1562H57.0938C55.9278 17.1562 54.9844 18.0997 54.9844 19.2656V55.125H52.875C51.7091 55.125 50.7656 56.0685 50.7656 57.2344V65.6719C50.7656 66.8378 51.7091 67.7812 52.875 67.7812H65.5312C66.6972 67.7812 67.6406 66.8378 67.6406 65.6719V57.2344C67.6406 56.0685 66.6972 55.125 65.5312 55.125Z" fill="url(#paint0_linear_832_809)"/>
</g>
<path d="M36.0205 25.6781C34.8546 25.6781 33.9112 26.6215 33.9112 27.7874V30.1242C31.4572 30.9952 29.6841 33.3171 29.6841 36.0663C29.6841 39.5558 32.5228 42.3944 36.0122 42.3944C37.1741 42.3944 38.1216 43.34 38.1216 44.5038C38.1216 46.2342 35.736 47.2105 34.525 45.9972C33.7011 45.1691 32.362 45.1733 31.5381 45.9932C30.7142 46.8151 30.7142 48.152 31.534 48.976C32.2085 49.6517 33.0166 50.1339 33.8906 50.4449V53.0154C33.8906 54.1813 34.8341 55.1248 36 55.1248C37.1659 55.1248 38.1094 54.1813 38.1094 53.0154V50.4472C40.5655 49.5771 42.3405 47.2546 42.3405 44.5038C42.3405 41.0143 39.5018 38.1757 36.0124 38.1757C34.8505 38.1757 33.903 37.2301 33.903 36.0663C33.903 34.338 36.2925 33.3574 37.4996 34.5729C38.3235 35.401 39.6626 35.3968 40.4865 34.5769C41.3104 33.755 41.3104 32.4181 40.4906 31.5941C39.8152 30.9175 39.0052 30.435 38.1299 30.1239V27.7874C38.1299 26.6215 37.1866 25.6781 36.0205 25.6781ZM70.4015 8.78238L36.5109 0.0646191C36.1731 -0.0218652 35.827 -0.0218652 35.4891 0.0646191L1.59848 8.78238C0.65925 9.01723 0 9.85971 0 10.8279V19.2654C0 20.4313 0.943453 21.3748 2.10938 21.3748H69.8906C71.0565 21.3748 72 20.4313 72 19.2654V10.8279C72 9.85971 71.3408 9.01723 70.4015 8.78238ZM69.8906 63.5623H2.10938C0.943453 63.5623 0 64.5057 0 65.6717V69.8904C0 71.0563 0.943453 71.9998 2.10938 71.9998H69.8906C71.0565 71.9998 72 71.0563 72 69.8904V65.6717C72 64.5057 71.0565 63.5623 69.8906 63.5623Z" fill="url(#paint1_linear_832_809)"/>
</g>
<defs>
<linearGradient id="paint0_linear_832_809" x1="22.3945" y1="56.6016" x2="46.7695" y2="9.63087" gradientUnits="userSpaceOnUse">
<stop stop-color="#526BF0"/>
<stop offset="1" stop-color="#8572FF"/>
</linearGradient>
<linearGradient id="paint1_linear_832_809" x1="20.52" y1="56.0998" x2="59.2332" y2="-3.58063" gradientUnits="userSpaceOnUse">
<stop stop-color="#526BF0"/>
<stop offset="1" stop-color="#8572FF"/>
</linearGradient>
<clipPath id="clip0_832_809">
<rect width="72" height="72" fill="white"/>
</clipPath>
</defs>
</svg>
