<svg width="72" height="72" viewBox="0 0 72 72" fill="none" xmlns="http://www.w3.org/2000/svg">
<g clip-path="url(#clip0_832_852)">
<path d="M30.0459 34.9456H31.9149L30.9805 32.5267L30.0459 34.9456Z" fill="url(#paint0_linear_832_852)"/>
<path d="M46.6967 17.1947H45.5146V19.4485H46.6967C47.5901 19.4485 48.0161 19.0224 48.0161 18.3215C48.0161 17.6206 47.59 17.1947 46.6967 17.1947Z" fill="url(#paint1_linear_832_852)"/>
<path d="M34.9732 21.9087C36.1688 21.9087 37.1309 21.0015 37.1309 19.5035C37.1309 18.0055 36.1689 17.0983 34.9732 17.0983C33.7774 17.0983 32.8154 18.0055 32.8154 19.5035C32.8156 21.0015 33.7776 21.9087 34.9732 21.9087Z" fill="url(#paint2_linear_832_852)"/>
<path fill-rule="evenodd" clip-rule="evenodd" d="M32.1982 0.0358582H39.8018V9.09604H63.006V44.332H39.8018V67.7454H72V71.9641H0V67.7454H32.1982V44.332H8.9939V9.09604H32.1982V0.0358582ZM34.973 14.4733C38.1064 14.4733 40.4018 16.5897 40.4018 19.5034C40.4018 22.417 38.1065 24.5336 34.973 24.5336C31.8394 24.5336 29.5441 22.417 29.5441 19.5034C29.5443 16.5898 31.8396 14.4733 34.973 14.4733ZM20.4598 14.6932H28.2799V17.1395H23.7031V18.7888H27.7163V21.2352H23.7031V24.3138H20.4598V14.6932ZM20.1231 39.1787C18.5152 39.1787 16.8934 38.7801 15.9312 38.1891L16.9758 35.8252C17.8829 36.3611 19.0923 36.7048 20.1505 36.7048C21.0713 36.7048 21.4012 36.5123 21.4012 36.1825C21.4012 35.7383 20.6835 35.5889 19.7753 35.3999C18.2113 35.0743 16.0824 34.6312 16.0824 32.3619C16.0824 30.5751 17.5803 29.1184 20.5628 29.1184C21.8549 29.1184 23.1879 29.3933 24.1911 29.9568L23.2153 32.3069C22.2671 31.826 21.3737 31.5922 20.5354 31.5922C19.587 31.5922 19.2847 31.8672 19.2847 32.1969C19.2847 32.6164 19.9867 32.7565 20.8807 32.9348C22.4473 33.2474 24.6034 33.6776 24.6034 35.9352C24.6034 37.6942 23.1055 39.1787 20.1231 39.1787ZM33.4542 38.9587L32.8083 37.2819H29.1526L28.5066 38.9587H25.2081L29.4136 29.3382H32.6022L36.8077 38.9587H33.4542ZM45.6036 38.9587H38.0172V29.3382H41.2606V36.4437H45.6036V38.9587ZM45.5142 21.8949V24.3138H42.2708V14.6932H46.9025C49.5823 14.6932 51.2867 16.0951 51.2867 18.3215C51.2867 19.7096 50.6271 20.7541 49.4725 21.345L51.4929 24.3136H48.0296L46.394 21.8947H45.5142V21.8949ZM55.1827 38.9587H47.184V29.3382H55.0041V31.7845H50.3725V32.9114H54.4407V35.2479H50.3725V36.5123H55.1827V38.9587Z" fill="url(#paint3_linear_832_852)"/>
<path opacity="0.2" d="M34.9734 14.4733C38.1068 14.4733 40.4022 16.5897 40.4022 19.5034C40.4022 22.417 38.1069 24.5336 34.9734 24.5336C31.8398 24.5336 29.5446 22.417 29.5446 19.5034C29.5447 16.5898 31.84 14.4733 34.9734 14.4733ZM20.4602 14.6932H28.2803V17.1395H23.7036V18.7888H27.7167V21.2352H23.7036V24.3138H20.4602V14.6932ZM20.1235 39.1787C18.5156 39.1787 16.8938 38.7802 15.9316 38.1891L16.9762 35.8252C17.8834 36.3611 19.0927 36.7048 20.151 36.7048C21.0718 36.7048 21.4017 36.5123 21.4017 36.1825C21.4017 34.9732 16.0828 35.949 16.0828 32.3619C16.0828 30.5751 17.5808 29.1184 20.5633 29.1184C21.8553 29.1184 23.1883 29.3933 24.1915 29.9568L23.2157 32.3069C22.2675 31.826 21.3741 31.5923 20.5358 31.5923C19.5875 31.5923 19.2851 31.8672 19.2851 32.1969C19.2851 33.3515 24.6038 32.3895 24.6038 35.9352C24.6038 37.6943 23.1059 39.1787 20.1235 39.1787ZM33.4546 38.9588L32.8088 37.2819H29.1531L28.507 38.9588H25.2085L29.4141 29.3382H32.6026L36.8081 38.9588H33.4546ZM45.6041 38.9588H38.0176V29.3382H41.261V36.4437H45.6041V38.9588ZM45.5146 21.8949V24.3138H42.2713V14.6932H46.9029C49.5828 14.6932 51.2872 16.0951 51.2872 18.3215C51.2872 19.7096 50.6275 20.7542 49.4729 21.3451L51.4933 24.3137H48.03L46.3944 21.8948L45.5146 21.8949ZM55.1832 38.9588H47.1844V29.3382H55.0046V31.7845H50.373V32.9115H54.4411V35.2479H50.373V36.5123H55.1832V38.9588Z" fill="url(#paint4_linear_832_852)"/>
</g>
<defs>
<linearGradient id="paint0_linear_832_852" x1="30.5786" y1="34.4114" x2="31.9814" y2="32.7404" gradientUnits="userSpaceOnUse">
<stop stop-color="#526BF0"/>
<stop offset="1" stop-color="#8572FF"/>
</linearGradient>
<linearGradient id="paint1_linear_832_852" x1="46.2276" y1="18.9508" x2="47.3839" y2="16.9723" gradientUnits="userSpaceOnUse">
<stop stop-color="#526BF0"/>
<stop offset="1" stop-color="#8572FF"/>
</linearGradient>
<linearGradient id="paint2_linear_832_852" x1="34.0453" y1="20.8464" x2="36.7352" y2="17.1263" gradientUnits="userSpaceOnUse">
<stop stop-color="#526BF0"/>
<stop offset="1" stop-color="#8572FF"/>
</linearGradient>
<linearGradient id="paint3_linear_832_852" x1="20.52" y1="56.08" x2="59.1788" y2="-3.57617" gradientUnits="userSpaceOnUse">
<stop stop-color="#526BF0"/>
<stop offset="1" stop-color="#8572FF"/>
</linearGradient>
<linearGradient id="paint4_linear_832_852" x1="27.1183" y1="33.7229" x2="37.3001" y2="8.78501" gradientUnits="userSpaceOnUse">
<stop stop-color="#526BF0"/>
<stop offset="1" stop-color="#8572FF"/>
</linearGradient>
<clipPath id="clip0_832_852">
<rect width="72" height="72" fill="white"/>
</clipPath>
</defs>
</svg>
