<svg width="72" height="72" viewBox="0 0 72 72" fill="none" xmlns="http://www.w3.org/2000/svg">
<path opacity="0.2" d="M35.9997 9.84586L71.9994 30.6304V20.7845L35.9997 0L23.5845 7.16794V0H9.68273V15.1941L0 20.7845V30.6304L35.9997 9.84586Z" fill="url(#paint0_linear_832_675)"/>
<path d="M35.9997 9.84586L71.9994 30.6304V20.7845L35.9997 0L23.5845 7.16794L9.68273 15.1941L0 20.7845V30.6304L35.9997 9.84586Z" fill="url(#paint1_linear_832_675)"/>
<path opacity="0.2" d="M42.9512 38.1094H53.257V43.5736H42.9512V38.1094Z" fill="url(#paint2_linear_832_675)"/>
<path opacity="0.2" d="M18.7432 38.1094H29.049V58.0982H18.7432V38.1094Z" fill="url(#paint3_linear_832_675)"/>
<path d="M5.64551 32.2426V58.0982H14.525V33.8906H33.2683V58.0982H66.3554V32.2426L36.0004 14.7172L5.64551 32.2426ZM38.7326 33.8906H57.4759V47.7924H38.7326V33.8906Z" fill="url(#paint4_linear_832_675)"/>
<path opacity="0.2" d="M0 62.317H72V72H0V62.317Z" fill="url(#paint5_linear_832_675)"/>
<defs>
<linearGradient id="paint0_linear_832_675" x1="20.5198" y1="23.8662" x2="29.7701" y2="-9.65375" gradientUnits="userSpaceOnUse">
<stop stop-color="#526BF0"/>
<stop offset="1" stop-color="#8572FF"/>
</linearGradient>
<linearGradient id="paint1_linear_832_675" x1="20.5198" y1="23.8662" x2="29.7701" y2="-9.65375" gradientUnits="userSpaceOnUse">
<stop stop-color="#526BF0"/>
<stop offset="1" stop-color="#8572FF"/>
</linearGradient>
<linearGradient id="paint2_linear_832_675" x1="45.8883" y1="42.3669" x2="47.8675" y2="36.6125" gradientUnits="userSpaceOnUse">
<stop stop-color="#526BF0"/>
<stop offset="1" stop-color="#8572FF"/>
</linearGradient>
<linearGradient id="paint3_linear_832_675" x1="21.6803" y1="53.684" x2="33.1469" y2="44.5702" gradientUnits="userSpaceOnUse">
<stop stop-color="#526BF0"/>
<stop offset="1" stop-color="#8572FF"/>
</linearGradient>
<linearGradient id="paint4_linear_832_675" x1="22.9478" y1="48.5182" x2="42.4404" y2="6.46468" gradientUnits="userSpaceOnUse">
<stop stop-color="#526BF0"/>
<stop offset="1" stop-color="#8572FF"/>
</linearGradient>
<linearGradient id="paint5_linear_832_675" x1="20.52" y1="69.8616" x2="21.5073" y2="58.5443" gradientUnits="userSpaceOnUse">
<stop stop-color="#526BF0"/>
<stop offset="1" stop-color="#8572FF"/>
</linearGradient>
</defs>
</svg>
