<svg width="72" height="72" viewBox="0 0 72 72" fill="none" xmlns="http://www.w3.org/2000/svg">
<g clip-path="url(#clip0_832_744)">
<path d="M48.783 36.1406C46.2094 33.9045 43.8469 31.8797 42.8344 29.8125L39.3479 27.667L42.6234 25.5938C42.9611 24.2437 43.6781 23.0203 44.6906 21.9656L45.9139 20.742C46.5469 20.1514 46.7155 19.2656 46.3781 18.4641C46.0406 17.6625 45.2812 17.1562 44.4375 17.1562H38.1094L37.0441 14.9062L38.1094 12.6562H40.2188C46.0406 12.6562 50.7656 7.93125 50.7656 2.10938C50.7656 0.927984 49.8376 0 48.6562 0H44.4375C40.9781 0 37.9408 1.68736 36 4.30298C34.0592 1.68736 31.0219 0 27.5625 0H23.3438C22.1624 0 21.2344 0.927984 21.2344 2.10938C21.2344 7.93125 25.9594 12.6562 31.7812 12.6562H33.8906L34.9348 14.9062L33.8906 17.1562H27.5625C26.7188 17.1562 25.9594 17.6625 25.6217 18.4641C25.2844 19.2656 25.4531 20.1514 26.0859 20.742L27.3092 21.9656C28.3217 23.0203 29.0388 24.2436 29.3764 25.5938L32.6102 27.6667L29.1234 29.8125C28.1109 31.8797 25.7908 33.8624 23.2594 36.0561C18.5766 40.1062 12.7969 45.0844 12.7969 53.0156C12.7969 64.7436 21.6984 72 36 72C50.3016 72 59.2031 64.7436 59.2031 53.0156C59.2031 45.0844 53.4234 40.1063 48.783 36.1406Z" fill="url(#paint0_linear_832_744)"/>
<path d="M36.012 46.6134C34.8501 46.6134 33.9026 45.6678 33.9026 44.504C33.9026 42.7757 36.2921 41.7973 37.4992 43.0106C38.3232 43.8387 39.6622 43.8345 40.4861 43.0147C41.31 42.1927 41.31 40.8558 40.4902 40.0319C39.8148 39.3552 39.0048 38.8727 38.1295 38.5616V36.2251C38.1295 35.0592 37.1861 34.1158 36.0201 34.1158C34.8542 34.1158 33.9108 35.0592 33.9108 36.2251V38.5619C31.4569 39.4329 29.6837 41.7548 29.6837 44.504C29.6837 47.9935 32.5224 50.8321 36.0118 50.8321C37.1737 50.8321 38.1212 51.7777 38.1212 52.9415C38.1212 54.6698 35.7357 55.6504 34.5246 54.435C33.7007 53.6068 32.3616 53.611 31.5377 54.4309C30.7138 55.2528 30.7138 56.5897 31.5336 57.4137C32.2081 58.0894 33.0162 58.5716 33.8902 58.8826V61.4531C33.8902 62.619 34.8337 63.5625 35.9996 63.5625C37.1655 63.5625 38.109 62.619 38.109 61.4531V58.8849C40.5651 58.0148 42.3401 55.6923 42.3401 52.9415C42.3401 49.4519 39.5015 46.6134 36.012 46.6134ZM42.834 29.8125C42.4963 29.1374 42.3277 28.4202 42.3277 27.7031C42.3277 26.9858 42.4123 26.2686 42.623 25.5938H29.3762C29.5871 26.2686 29.6715 26.9858 29.6715 27.7031C29.6715 28.4202 29.4605 29.1374 29.123 29.8125H42.834ZM38.109 12.6562H33.8902V17.1562H38.109V12.6562Z" fill="#DEE2FC"/>
</g>
<defs>
<linearGradient id="paint0_linear_832_744" x1="26.0227" y1="56.1" x2="68.4181" y2="13.9753" gradientUnits="userSpaceOnUse">
<stop stop-color="#526BF0"/>
<stop offset="1" stop-color="#8572FF"/>
</linearGradient>
<clipPath id="clip0_832_744">
<rect width="72" height="72" fill="white"/>
</clipPath>
</defs>
</svg>
