<svg width="72" height="72" viewBox="0 0 72 72" fill="none" xmlns="http://www.w3.org/2000/svg">
<path d="M35.9997 69.4286C48.0711 69.4286 57.8569 59.6429 57.8569 47.5715C57.8569 35.5001 48.0711 25.7144 35.9997 25.7144C23.9284 25.7144 14.1426 35.5001 14.1426 47.5715C14.1426 59.6429 23.9284 69.4286 35.9997 69.4286Z" fill="#E3E2FE"/>
<path d="M41.1423 42.4285C41.1423 43.1385 41.7179 43.7142 42.428 43.7142C43.1381 43.7142 43.7137 43.1385 43.7137 42.4285C43.7137 39.2502 40.9276 36.6093 37.2852 36.0963V34.7142C37.2852 34.0041 36.7095 33.4285 35.9994 33.4285C35.2894 33.4285 34.7137 34.0041 34.7137 34.7142V36.0963C31.0713 36.6106 28.2852 39.2502 28.2852 42.4285C28.2852 45.6068 31.0713 48.2476 34.7137 48.7606V56.4338C32.5023 56.003 30.8566 54.5052 30.8566 52.7142C30.8566 52.0041 30.281 51.4285 29.5709 51.4285C28.8608 51.4285 28.2852 52.0041 28.2852 52.7142C28.2852 55.8925 31.0713 58.5333 34.7137 59.0463V60.4285C34.7137 61.1385 35.2894 61.7142 35.9994 61.7142C36.7095 61.7142 37.2852 61.1385 37.2852 60.4285V59.0463C40.9276 58.532 43.7137 55.8925 43.7137 52.7142C43.7137 49.5359 40.9276 46.895 37.2852 46.382V38.7089C39.4966 39.1396 41.1423 40.6362 41.1423 42.4285ZM30.8566 42.4285C30.8566 40.6362 32.5023 39.1396 34.7137 38.7089V46.148C32.5023 45.7173 30.8566 44.2208 30.8566 42.4285ZM41.1423 52.7142C41.1423 54.5065 39.4966 56.003 37.2852 56.4338V48.9946C39.4966 49.4253 41.1423 50.9219 41.1423 52.7142Z" fill="url(#paint0_linear_2234_503)"/>
<path d="M35.9993 70.7142C23.2179 70.7142 12.8564 60.3528 12.8564 47.5713C12.8564 34.7899 23.2179 24.4285 35.9993 24.4285C48.7808 24.4285 59.1422 34.7899 59.1422 47.5713C59.1273 60.3466 48.7746 70.6993 35.9993 70.7142ZM35.9993 26.9999C24.638 26.9999 15.4279 36.21 15.4279 47.5713C15.4279 58.9326 24.638 68.1427 35.9993 68.1427C47.3606 68.1427 56.5707 58.9326 56.5707 47.5713C56.5573 36.2156 47.355 27.0134 35.9993 26.9999Z" fill="#E3E2FE"/>
<path fill-rule="evenodd" clip-rule="evenodd" d="M54 16.8941L71.0353 12.1885C71.3095 12.1085 71.4981 11.8571 71.4981 11.5714C71.4981 11.2857 71.3095 11.0342 71.0353 10.9542L36.681 1.47852C36.2358 1.34993 35.7633 1.34993 35.3181 1.47852L0.963834 10.9542C0.689548 11.0342 0.500977 11.2857 0.500977 11.5714C0.500977 11.8571 0.689548 12.1085 0.963834 12.1885L17.9995 16.8814L18 16.8815V27.0001C18 32.5672 26.0614 33.4286 36 33.4286C45.9386 33.4286 54 32.5672 54 27.0001V16.8941Z" fill="url(#paint1_linear_2234_503)"/>
<path d="M65.3506 36.846L62.2881 30.7208C62.1485 30.4549 61.9523 30.2227 61.7134 30.0407V24.84C61.7128 20.9677 59.2356 17.5299 55.5625 16.3041L37.6911 10.3487C37.0165 10.1246 36.288 10.4899 36.064 11.1644C35.84 11.839 36.2052 12.5675 36.8798 12.7915L54.7512 18.7457C57.3728 19.6219 59.1408 22.0758 59.1419 24.84V30.0407C58.903 30.2227 58.7068 30.4549 58.5672 30.7208L55.5046 36.846C55.182 37.4908 55.2163 38.2568 55.5953 38.8702C55.9743 39.4837 56.644 39.8571 57.3651 39.8571H63.4902C64.2113 39.8571 64.881 39.4837 65.26 38.8702C65.639 38.2568 65.6733 37.4908 65.3506 36.846Z" fill="#E3E2FE"/>
<path d="M35.9999 14.1429C39.5503 14.1429 42.4284 12.9916 42.4284 11.5714C42.4284 10.1513 39.5503 9 35.9999 9C32.4495 9 29.5713 10.1513 29.5713 11.5714C29.5713 12.9916 32.4495 14.1429 35.9999 14.1429Z" fill="#E3E2FE"/>
<defs>
<linearGradient id="paint0_linear_2234_503" x1="32.6823" y1="55.4678" x2="49.0909" y2="41.6701" gradientUnits="userSpaceOnUse">
<stop stop-color="#526BF0"/>
<stop offset="1" stop-color="#8572FF"/>
</linearGradient>
<linearGradient id="paint1_linear_2234_503" x1="20.7352" y1="26.3517" x2="30.9129" y2="-8.40873" gradientUnits="userSpaceOnUse">
<stop stop-color="#526BF0"/>
<stop offset="1" stop-color="#8572FF"/>
</linearGradient>
</defs>
</svg>
