<svg width="72" height="72" viewBox="0 0 72 72" fill="none" xmlns="http://www.w3.org/2000/svg">
<g clip-path="url(#clip0_832_771)">
<path fill-rule="evenodd" clip-rule="evenodd" d="M66.5819 19.4793L66.5841 19.5353C66.7445 27.9925 66.9439 38.518 63.4162 48.0821C61.4821 53.3269 58.5553 57.8863 54.7178 61.6342C50.3491 65.9008 44.628 69.29 37.7137 71.7081C37.4874 71.7872 37.2518 71.8515 37.0134 71.8993C36.6777 71.9663 36.3388 71.9998 36.0004 71.9998C35.6621 71.9998 35.3237 71.9663 34.9875 71.8993C34.7491 71.8515 34.5151 71.7878 34.2899 71.7092C27.3674 69.2955 21.6402 65.9079 17.2677 61.6408C13.4285 57.894 10.5018 53.3357 8.5693 48.092C5.05478 38.5564 5.25474 28.0508 5.41568 19.6095L5.41898 19.4793C5.45029 18.7827 5.47171 18.051 5.4838 17.2425C5.54258 13.272 8.69894 9.9882 12.6688 9.76683C20.947 9.3043 27.3509 6.60497 32.8226 1.27167L32.8693 1.22718C34.6546 -0.409232 37.3468 -0.409232 39.1315 1.22718L39.1782 1.27167C44.6499 6.60497 51.0539 9.3043 59.332 9.76628C63.3025 9.9882 66.4583 13.272 66.5171 17.2419C66.5297 18.056 66.5506 18.7877 66.5819 19.4793ZM22.1499 23C20.4102 23 18.9999 24.4103 18.9999 26.15V41.45C18.9999 43.1897 20.4102 44.6 22.1499 44.6H46.4499C48.1896 44.6 49.5999 43.1897 49.5999 41.45V26.15C49.5999 24.4103 48.1896 23 46.4499 23H22.1499ZM23.0499 28.4C23.7955 28.4 24.3999 27.7956 24.3999 27.05V25.25H27.0999V27.05C27.0999 29.2867 25.2866 31.1 23.0499 31.1H21.2499V28.4H23.0499ZM38.3499 34.25C38.3499 36.4867 36.5366 38.3 34.2999 38.3C32.0631 38.3 30.2499 36.4867 30.2499 34.25C30.2499 32.0132 32.0631 30.2 34.2999 30.2C36.5366 30.2 38.3499 32.0132 38.3499 34.25ZM23.0499 39.2H21.2499V36.5H23.0499C25.2866 36.5 27.0999 38.3132 27.0999 40.55V42.35H24.3999V40.55C24.3999 39.8044 23.7955 39.2 23.0499 39.2ZM45.5499 39.2C44.8043 39.2 44.1999 39.8044 44.1999 40.55V42.35H41.4999V40.55C41.4999 38.3132 43.3131 36.5 45.5499 36.5H47.3499V39.2H45.5499ZM44.1999 25.25V27.05C44.1999 27.7956 44.8043 28.4 45.5499 28.4H47.3499V31.1H45.5499C43.3131 31.1 41.4999 29.2867 41.4999 27.05V25.25H44.1999ZM27.9999 50C26.0011 50 24.256 48.9141 23.3223 47.3H46.4499C49.6807 47.3 52.2999 44.6809 52.2999 41.45V27.3224C53.9139 28.2561 54.9999 30.0012 54.9999 32V41.45C54.9999 46.172 51.1719 50 46.4499 50H27.9999Z" fill="url(#paint0_linear_832_771)"/>
<path opacity="0.2" d="M19 26.15C19 24.4103 20.4103 23 22.15 23H46.45C48.1897 23 49.6 24.4103 49.6 26.15V41.45C49.6 43.1897 48.1897 44.6 46.45 44.6H22.15C20.4103 44.6 19 43.1897 19 41.45V26.15ZM24.4 25.25V27.05C24.4 27.7956 23.7956 28.4 23.05 28.4H21.25V31.1H23.05C25.2868 31.1 27.1 29.2868 27.1 27.05V25.25H24.4ZM34.3 38.3C36.5368 38.3 38.35 36.4868 38.35 34.25C38.35 32.0132 36.5368 30.2 34.3 30.2C32.0632 30.2 30.25 32.0132 30.25 34.25C30.25 36.4868 32.0632 38.3 34.3 38.3ZM21.25 39.2H23.05C23.7956 39.2 24.4 39.8044 24.4 40.55V42.35H27.1V40.55C27.1 38.3132 25.2868 36.5 23.05 36.5H21.25V39.2ZM44.2 40.55C44.2 39.8044 44.8044 39.2 45.55 39.2H47.35V36.5H45.55C43.3132 36.5 41.5 38.3132 41.5 40.55V42.35H44.2V40.55ZM44.2 27.05V25.25H41.5V27.05C41.5 29.2868 43.3132 31.1 45.55 31.1H47.35V28.4H45.55C44.8044 28.4 44.2 27.7956 44.2 27.05ZM23.3224 47.3C24.2561 48.9141 26.0012 50 28 50H46.45C51.172 50 55 46.172 55 41.45V32C55 30.0012 53.9141 28.2561 52.3 27.3224V41.45C52.3 44.6809 49.6809 47.3 46.45 47.3H23.3224Z" fill="url(#paint1_linear_832_771)"/>
</g>
<defs>
<linearGradient id="paint0_linear_832_771" x1="22.8176" y1="56.0998" x2="63.6911" y2="2.44281" gradientUnits="userSpaceOnUse">
<stop stop-color="#526BF0"/>
<stop offset="1" stop-color="#8572FF"/>
</linearGradient>
<linearGradient id="paint1_linear_832_771" x1="29.26" y1="44.0375" x2="41.7688" y2="18.3259" gradientUnits="userSpaceOnUse">
<stop stop-color="#526BF0"/>
<stop offset="1" stop-color="#8572FF"/>
</linearGradient>
<clipPath id="clip0_832_771">
<rect width="72" height="72" fill="white"/>
</clipPath>
</defs>
</svg>
