<svg width="72" height="72" viewBox="0 0 72 72" fill="none" xmlns="http://www.w3.org/2000/svg">
<g clip-path="url(#clip0_832_779)">
<g opacity="0.2">
<path d="M35.8594 42.4266C34.678 42.4266 33.75 43.3546 33.75 44.536C33.75 45.7171 32.822 46.6453 31.6406 46.6453C30.4592 46.6453 29.5312 45.7171 29.5312 44.536C29.5312 43.3546 28.6033 42.4266 27.4219 42.4266C26.2405 42.4266 25.3125 43.3546 25.3125 44.536C25.3125 45.7171 24.3845 46.6453 23.2031 46.6453C22.0217 46.6453 21.0938 45.7171 21.0938 44.536C21.0938 43.3546 20.1658 42.4266 18.9844 42.4266C17.803 42.4266 16.875 43.3546 16.875 44.536C16.875 45.7171 15.947 46.6453 14.7656 46.6453C13.5842 46.6453 12.6562 45.7171 12.6562 44.536C12.6562 43.3546 11.7283 42.4266 10.5469 42.4266C9.36548 42.4266 8.4375 43.3546 8.4375 44.536C8.4375 45.7171 7.50952 46.6453 6.32812 46.6453C5.14673 46.6453 4.21875 45.7171 4.21875 44.536C4.21875 43.3546 3.29077 42.4266 2.10938 42.4266C0.927984 42.4266 0 43.3546 0 44.536V69.8485C0 71.0296 0.927984 71.9578 2.10938 71.9578H14.7656L18.9844 65.6297L23.2031 71.9578H35.8594C37.0408 71.9578 37.9688 71.0296 37.9688 69.8485V44.536C37.9688 43.3546 37.0408 42.4266 35.8594 42.4266ZM69.8906 50.8641C68.7092 50.8641 67.7812 51.7921 67.7812 52.9735C67.7812 54.1546 66.8533 55.0828 65.6719 55.0828C64.4905 55.0828 63.5625 54.1546 63.5625 52.9735C63.5625 51.7921 62.6345 50.8641 61.4531 50.8641C60.2717 50.8641 59.3438 51.7921 59.3438 52.9735C59.3438 54.1546 58.4158 55.0828 57.2344 55.0828C56.053 55.0828 55.125 54.1546 55.125 52.9735C55.125 51.7921 54.197 50.8641 53.0156 50.8641C51.8342 50.8641 50.9062 51.7921 50.9062 52.9735C50.9062 54.1546 49.9783 55.0828 48.7969 55.0828C47.6155 55.0828 46.6875 54.1546 46.6875 52.9735C46.6875 51.7921 45.7595 50.8641 44.5781 50.8641C43.3967 50.8641 42.4688 51.7921 42.4688 52.9735V69.8485C42.4688 71.0296 43.3967 71.9578 44.5781 71.9578H55.125L57.2344 67.7391L59.3438 71.9578H69.8906C71.072 71.9578 72 71.0296 72 69.8485V52.9735C72 51.7921 71.072 50.8641 69.8906 50.8641Z" fill="url(#paint0_linear_832_779)"/>
</g>
<path d="M57.2344 63.5203C56.053 63.5203 55.125 64.4483 55.125 65.6297V71.9578H59.3438V65.6297C59.3438 64.4483 58.4158 63.5203 57.2344 63.5203ZM21.0938 57.1922H16.875C15.7101 57.1922 14.7656 58.1366 14.7656 59.3016V71.9578H23.2031V59.3016C23.2031 58.1365 22.2587 57.1922 21.0938 57.1922ZM14.9062 29.7703C16.0722 29.7703 17.0156 28.8269 17.0156 27.6609V17.1141H23.3438C24.5097 17.1141 25.4531 16.1706 25.4531 15.0047C25.4531 13.8388 24.5097 12.8953 23.3438 12.8953H14.9062C13.7403 12.8953 12.7969 13.8388 12.7969 15.0047V27.6609C12.7969 28.8269 13.7403 29.7703 14.9062 29.7703ZM48.6562 17.1141H54.9844V26.7875L54.3663 26.1695C53.5424 25.3455 52.2075 25.3455 51.3835 26.1695C50.5596 26.9934 50.5596 28.3283 51.3835 29.1523L55.5998 33.3685C56.4074 34.1782 57.7506 34.2077 58.5877 33.3685L62.804 29.1523C63.6279 28.3283 63.6279 26.9934 62.804 26.1695C61.98 25.3455 60.6451 25.3455 59.8212 26.1695L59.2031 26.7875V15.0047C59.2031 13.8388 58.2597 12.8953 57.0938 12.8953H48.6562C47.4903 12.8953 46.5469 13.8388 46.5469 15.0047C46.5469 16.1706 47.4903 17.1141 48.6562 17.1141ZM36.0124 12.5398C34.8505 12.5398 33.903 11.5942 33.903 10.4304C33.903 8.70004 36.2884 7.72368 37.4996 8.93699C38.3235 9.76513 39.6626 9.76091 40.4865 8.94107C41.3104 8.11911 41.3104 6.78219 40.4906 5.95827C39.8152 5.28158 39.0052 4.7991 38.1299 4.48804V2.15155C38.1299 0.985629 37.1865 0.0421753 36.0205 0.0421753C34.8546 0.0421753 33.9112 0.985629 33.9112 2.15155V4.48832C31.4572 5.35935 29.6841 7.68121 29.6841 10.4304C29.6841 13.9199 32.5228 16.7586 36.0122 16.7586C37.1741 16.7586 38.1216 17.7041 38.1216 18.8679C38.1216 20.5962 35.7321 21.5788 34.525 20.3614C33.7011 19.5332 32.362 19.5374 31.5381 20.3573C30.7142 21.1792 30.7142 22.5162 31.534 23.3401C32.2085 24.0158 33.0166 24.498 33.8906 24.8091V27.3797C33.8906 28.5456 34.8341 29.4891 36 29.4891C37.1659 29.4891 38.1094 28.5456 38.1094 27.3797V24.8114C40.5655 23.9414 42.3405 21.6188 42.3405 18.8681C42.3405 15.3785 39.5018 12.5398 36.0124 12.5398ZM31.6406 33.9891H6.32812C2.83866 33.9891 0 36.8277 0 40.3172V44.5359C0 48.0254 2.83866 50.8641 6.32812 50.8641C7.94728 50.8641 9.42623 50.2522 10.5469 49.2491C12.7882 51.2556 16.7431 51.2556 18.9844 49.2491C21.2257 51.2556 25.1806 51.2556 27.4219 49.2491C28.5425 50.2523 30.0215 50.8641 31.6406 50.8641C35.1301 50.8641 37.9688 48.0254 37.9688 44.5359V40.3172C37.9688 36.8276 35.1301 33.9891 31.6406 33.9891ZM65.6719 42.4266H48.7969C45.3074 42.4266 42.4688 45.2652 42.4688 48.7547V52.9734C42.4688 56.4629 45.3074 59.3016 48.7969 59.3016C50.416 59.3016 51.895 58.6897 53.0156 57.6866C55.2569 59.6931 59.2118 59.6931 61.4531 57.6866C62.5738 58.6899 64.0527 59.3016 65.6719 59.3016C69.1613 59.3016 72 56.4629 72 52.9734V48.7547C72 45.2651 69.1613 42.4266 65.6719 42.4266Z" fill="url(#paint1_linear_832_779)"/>
</g>
<defs>
<linearGradient id="paint0_linear_832_779" x1="20.52" y1="65.4363" x2="29.1613" y2="32.9572" gradientUnits="userSpaceOnUse">
<stop stop-color="#526BF0"/>
<stop offset="1" stop-color="#8572FF"/>
</linearGradient>
<linearGradient id="paint1_linear_832_779" x1="20.52" y1="56.0765" x2="59.1693" y2="-3.5754" gradientUnits="userSpaceOnUse">
<stop stop-color="#526BF0"/>
<stop offset="1" stop-color="#8572FF"/>
</linearGradient>
<clipPath id="clip0_832_779">
<rect width="72" height="72" fill="white"/>
</clipPath>
</defs>
</svg>
