<svg width="72" height="72" viewBox="0 0 72 72" fill="none" xmlns="http://www.w3.org/2000/svg">
<path opacity="0.2" d="M52.875 37.9688C54.0564 37.9688 54.9844 37.0405 54.9844 35.8594V10.5469C54.9844 9.36548 54.0564 8.4375 52.875 8.4375C51.6936 8.4375 50.7656 9.36548 50.7656 10.5469C50.7656 11.728 49.8376 12.6562 48.6562 12.6562C47.4749 12.6562 46.5469 11.728 46.5469 10.5469C46.5469 9.36548 45.6189 8.4375 44.4375 8.4375C43.2561 8.4375 42.3281 9.36548 42.3281 10.5469C42.3281 11.728 41.4001 12.6562 40.2188 12.6562C39.0374 12.6562 38.1094 11.728 38.1094 10.5469C38.1094 9.36548 37.1814 8.4375 36 8.4375C34.8186 8.4375 33.8906 9.36548 33.8906 10.5469C33.8906 11.728 32.9626 12.6562 31.7812 12.6562C30.5999 12.6562 29.6719 11.728 29.6719 10.5469C29.6719 9.36548 28.7439 8.4375 27.5625 8.4375C26.3811 8.4375 25.4531 9.36548 25.4531 10.5469C25.4531 11.728 24.5251 12.6562 23.3438 12.6562C22.1624 12.6562 21.2344 11.728 21.2344 10.5469C21.2344 9.36548 20.3064 8.4375 19.125 8.4375C17.9436 8.4375 17.0156 9.36548 17.0156 10.5469V35.8594C17.0156 37.0405 17.9436 37.9688 19.125 37.9688H31.7812L36 31.6406L40.2188 37.9688H52.875ZM69.8619 21.0527C69.8313 21.0527 69.8006 21.053 69.77 21.0534C66.3144 21.0936 63.5625 23.9829 63.5625 27.4387V46.3568C63.5625 46.9159 63.3405 47.4522 62.945 47.8477L51.7714 59.0233C50.9475 59.8472 49.6126 59.8472 48.7886 59.0233C47.9647 58.1993 47.9647 56.8644 48.7886 56.0405L59.3438 45.4835V45.3698C59.3438 43.4088 57.8018 41.8001 55.8428 41.7135C53.0523 41.5901 50.2279 42.5766 48.0389 44.6903L41.4183 51.1812C39.3919 53.1679 38.25 55.8863 38.25 58.724V69.8906C38.25 71.0556 39.1944 72 40.3594 72H57.2344C58.3993 72 59.3438 71.0556 59.3438 69.8906V63.8312L71.4191 51.1502C71.792 50.7586 72 50.2386 72 49.6979V23.1619C72 21.9925 71.0314 21.0495 69.8619 21.0527ZM23.9489 44.6759C21.7638 42.5717 18.9439 41.5889 16.1577 41.7125C14.2005 41.7992 12.6562 43.4105 12.6562 45.3697V45.4835L23.2114 56.0406C24.0353 56.8645 24.0353 58.1995 23.2114 59.0234C22.3875 59.8473 21.0527 59.8473 20.2286 59.0234L9.2122 48.005C8.71622 47.5089 8.4375 46.836 8.4375 46.1344V27.7464C8.4375 24.2277 5.72766 21.087 2.20908 21.0531C2.18545 21.0528 2.16169 21.0527 2.13792 21.0527C0.968625 21.0495 0 21.9925 0 23.1619V49.4831C0 50.1618 0.261 50.8144 0.729 51.3058L12.5082 63.6757C12.6032 63.7755 12.6562 63.9082 12.6562 64.046V69.3536C12.6562 70.8152 13.841 72 15.3027 72H31.1037C32.5652 72 33.7501 70.8152 33.7501 69.3536V58.9364C33.7501 55.9616 32.5533 53.112 30.4291 51.0293L23.9489 44.6759Z" fill="url(#paint0_linear_832_605)"/>
<path d="M48.6562 0H23.3438C19.8543 0 17.0156 2.83866 17.0156 6.32812V10.5469C17.0156 14.0363 19.8543 16.875 23.3438 16.875C24.9629 16.875 26.4419 16.2631 27.5625 15.2601C29.8038 17.2665 33.7587 17.2665 36 15.2601C38.2413 17.2665 42.1962 17.2665 44.4375 15.2601C45.5581 16.2633 47.0371 16.875 48.6562 16.875C52.1457 16.875 54.9844 14.0363 54.9844 10.5469V6.32812C54.9844 2.83866 52.1457 0 48.6562 0ZM38.1094 23.2031H33.8906C32.7257 23.2031 31.7812 24.1476 31.7812 25.3125V37.9688H40.2188V25.3125C40.2188 24.1476 39.2743 23.2031 38.1094 23.2031Z" fill="url(#paint1_linear_832_605)"/>
<defs>
<linearGradient id="paint0_linear_832_605" x1="20.52" y1="57.9633" x2="52.8008" y2="1.59315" gradientUnits="userSpaceOnUse">
<stop stop-color="#526BF0"/>
<stop offset="1" stop-color="#8572FF"/>
</linearGradient>
<linearGradient id="paint1_linear_832_605" x1="27.8367" y1="29.584" x2="48.2519" y2="-1.8881" gradientUnits="userSpaceOnUse">
<stop stop-color="#526BF0"/>
<stop offset="1" stop-color="#8572FF"/>
</linearGradient>
</defs>
</svg>
