<svg width="72" height="72" viewBox="0 0 72 72" fill="none" xmlns="http://www.w3.org/2000/svg">
<g clip-path="url(#clip0_832_704)">
<path opacity="0.2" d="M14.625 15.5H18V8.75H14.625C14.3266 8.75 14.0405 8.86853 13.8295 9.0795C13.6185 9.29048 13.5 9.57663 13.5 9.875V14.375C13.5 14.6734 13.6185 14.9595 13.8295 15.1705C14.0405 15.3815 14.3266 15.5 14.625 15.5Z" fill="url(#paint0_linear_832_704)"/>
<path opacity="0.2" d="M54 15.5H57.375C57.6734 15.5 57.9595 15.3815 58.1705 15.1705C58.3815 14.9595 58.5 14.6734 58.5 14.375V9.875C58.5 9.57663 58.3815 9.29048 58.1705 9.0795C57.9595 8.86853 57.6734 8.75 57.375 8.75H54V15.5Z" fill="url(#paint1_linear_832_704)"/>
<path d="M36 29C39.7279 29 42.75 25.9779 42.75 22.25C42.75 18.5221 39.7279 15.5 36 15.5C32.2721 15.5 29.25 18.5221 29.25 22.25C29.25 25.9779 32.2721 29 36 29Z" fill="url(#paint2_linear_832_704)"/>
<path d="M28.125 45.875C28.125 44.0848 27.4138 42.3679 26.148 41.102C24.8821 39.8362 23.1652 39.125 21.375 39.125H20.25V45.875C20.25 46.1734 20.3685 46.4595 20.5795 46.6705C20.7905 46.8815 21.0766 47 21.375 47H28.125V45.875Z" fill="url(#paint3_linear_832_704)"/>
<path d="M50.625 39.125C48.8348 39.125 47.1179 39.8362 45.852 41.102C44.5862 42.3679 43.875 44.0848 43.875 45.875V47H50.625C50.9234 47 51.2095 46.8815 51.4205 46.6705C51.6315 46.4595 51.75 46.1734 51.75 45.875V39.125H50.625Z" fill="url(#paint4_linear_832_704)"/>
<path opacity="0.2" d="M66.375 2H5.625C5.32663 2 5.04048 2.11853 4.82951 2.32951C4.61853 2.54048 4.5 2.82663 4.5 3.125V21.125C4.5 21.4234 4.61853 21.7095 4.82951 21.9205C5.04048 22.1315 5.32663 22.25 5.625 22.25H18V17.75H12.375C12.0766 17.75 11.7905 17.6315 11.5795 17.4205C11.3685 17.2095 11.25 16.9234 11.25 16.625V7.625C11.25 7.32663 11.3685 7.04048 11.5795 6.8295C11.7905 6.61853 12.0766 6.5 12.375 6.5H59.625C59.9234 6.5 60.2095 6.61853 60.4205 6.8295C60.6315 7.04048 60.75 7.32663 60.75 7.625V16.625C60.75 16.9234 60.6315 17.2095 60.4205 17.4205C60.2095 17.6315 59.9234 17.75 59.625 17.75H54V22.25H66.375C66.6734 22.25 66.9595 22.1315 67.1705 21.9205C67.3815 21.7095 67.5 21.4234 67.5 21.125V3.125C67.5 2.82663 67.3815 2.54048 67.1705 2.32951C66.9595 2.11853 66.6734 2 66.375 2Z" fill="url(#paint5_linear_832_704)"/>
<path d="M20.25 8.75V36.875H21.375C23.7619 36.875 26.0511 37.8232 27.739 39.511C29.4268 41.1989 30.375 43.4881 30.375 45.875V47H41.625V45.875C41.625 43.4881 42.5732 41.1989 44.261 39.511C45.9489 37.8232 48.2381 36.875 50.625 36.875H51.75V8.75H20.25ZM36 31.25C34.22 31.25 32.4799 30.7222 30.9999 29.7332C29.5198 28.7443 28.3663 27.3387 27.6851 25.6941C27.0039 24.0496 26.8257 22.24 27.1729 20.4942C27.5202 18.7484 28.3774 17.1447 29.636 15.886C30.8947 14.6274 32.4984 13.7702 34.2442 13.4229C35.99 13.0757 37.7996 13.2539 39.4441 13.9351C41.0887 14.6163 42.4943 15.7698 43.4832 17.2499C44.4722 18.7299 45 20.47 45 22.25C45 24.6369 44.0518 26.9261 42.364 28.614C40.6761 30.3018 38.3869 31.25 36 31.25Z" fill="url(#paint6_linear_832_704)"/>
<path d="M43.7162 62.7045C44.1038 62.3111 44.0991 61.678 43.7057 61.2903C43.3123 60.9027 42.6792 60.9074 42.2915 61.3008L37.0002 66.6711V53C37.0002 52.4477 36.5525 52 36.0002 52C35.4479 52 35.0002 52.4477 35.0002 53V66.6646L29.7153 61.3008C29.3276 60.9074 28.6945 60.9027 28.3011 61.2903C27.9077 61.678 27.903 62.3111 28.2906 62.7045L35.113 69.6287C35.6026 70.1256 36.4042 70.1256 36.8938 69.6287L43.7162 62.7045Z" fill="url(#paint7_linear_832_704)"/>
</g>
<defs>
<linearGradient id="paint0_linear_832_704" x1="14.7825" y1="14.0094" x2="18.7557" y2="9.926" gradientUnits="userSpaceOnUse">
<stop stop-color="#526BF0"/>
<stop offset="1" stop-color="#8572FF"/>
</linearGradient>
<linearGradient id="paint1_linear_832_704" x1="55.2825" y1="14.0094" x2="59.2557" y2="9.926" gradientUnits="userSpaceOnUse">
<stop stop-color="#526BF0"/>
<stop offset="1" stop-color="#8572FF"/>
</linearGradient>
<linearGradient id="paint2_linear_832_704" x1="33.0975" y1="26.0187" x2="40.3562" y2="14.8287" gradientUnits="userSpaceOnUse">
<stop stop-color="#526BF0"/>
<stop offset="1" stop-color="#8572FF"/>
</linearGradient>
<linearGradient id="paint3_linear_832_704" x1="22.4944" y1="45.2609" x2="26.7286" y2="38.7334" gradientUnits="userSpaceOnUse">
<stop stop-color="#526BF0"/>
<stop offset="1" stop-color="#8572FF"/>
</linearGradient>
<linearGradient id="paint4_linear_832_704" x1="46.1194" y1="45.2609" x2="50.3536" y2="38.7334" gradientUnits="userSpaceOnUse">
<stop stop-color="#526BF0"/>
<stop offset="1" stop-color="#8572FF"/>
</linearGradient>
<linearGradient id="paint5_linear_832_704" x1="22.455" y1="17.7781" x2="27.2202" y2="-5.07624" gradientUnits="userSpaceOnUse">
<stop stop-color="#526BF0"/>
<stop offset="1" stop-color="#8572FF"/>
</linearGradient>
<linearGradient id="paint6_linear_832_704" x1="29.2275" y1="38.5531" x2="51.1239" y2="10.7543" gradientUnits="userSpaceOnUse">
<stop stop-color="#526BF0"/>
<stop offset="1" stop-color="#8572FF"/>
</linearGradient>
<linearGradient id="paint7_linear_832_704" x1="32.5632" y1="66.0261" x2="42.658" y2="52.1932" gradientUnits="userSpaceOnUse">
<stop stop-color="#526BF0"/>
<stop offset="1" stop-color="#8572FF"/>
</linearGradient>
<clipPath id="clip0_832_704">
<rect width="72" height="72" fill="white"/>
</clipPath>
</defs>
</svg>
